<mxfile host="app.diagrams.net" agent="Mozilla/5.0 (Windows NT 10.0; Win64; x64) AppleWebKit/537.36 (KHTML, like Gecko) Chrome/129.0.0.0 Safari/537.36" version="24.8.4" pages="3">
  <diagram name="MFS ATM" id="2YBvvXClWsGukQMizWep">
    <mxGraphModel dx="1134" dy="-6997" grid="1" gridSize="10" guides="1" tooltips="1" connect="1" arrows="1" fold="1" page="1" pageScale="1" pageWidth="850" pageHeight="1100" math="0" shadow="0">
      <root>
        <mxCell id="0" />
        <mxCell id="1" parent="0" />
        <mxCell id="nctrB8vf493KiRFq7X1_-12" value="&lt;font style=&quot;font-size: 14px;&quot;&gt;PLARD Consulta Datos de Tarjeta&lt;/font&gt;" style="shape=umlFrame;whiteSpace=wrap;html=1;pointerEvents=0;recursiveResize=0;container=1;collapsible=0;width=310;height=44;fontStyle=1;fontSize=13;strokeColor=#000000;strokeWidth=2;" parent="1" vertex="1">
          <mxGeometry x="11" y="9137" width="2767" height="2357" as="geometry" />
        </mxCell>
        <mxCell id="gyVIyl1_PDcGO-czcSNo-1" value="Cliente Santander&lt;div&gt;TDD&amp;nbsp;&lt;br&gt;&lt;/div&gt;" style="shape=umlLifeline;perimeter=lifelinePerimeter;whiteSpace=wrap;html=1;container=1;dropTarget=0;collapsible=0;recursiveResize=0;outlineConnect=0;portConstraint=eastwest;newEdgeStyle={&quot;edgeStyle&quot;:&quot;elbowEdgeStyle&quot;,&quot;elbow&quot;:&quot;vertical&quot;,&quot;curved&quot;:0,&quot;rounded&quot;:0};align=center;movable=1;resizable=1;rotatable=1;deletable=1;editable=1;locked=0;connectable=1;fontStyle=1;fillColor=#f8cecc;strokeColor=#b85450;sketch=1;curveFitting=1;jiggle=2;" vertex="1" parent="nctrB8vf493KiRFq7X1_-12">
          <mxGeometry x="19" y="63" width="131" height="2207" as="geometry" />
        </mxCell>
        <mxCell id="gyVIyl1_PDcGO-czcSNo-24" value="" style="html=1;points=[[0,0,0,0,5],[0,1,0,0,-5],[1,0,0,0,5],[1,1,0,0,-5]];perimeter=orthogonalPerimeter;outlineConnect=0;targetShapes=umlLifeline;portConstraint=eastwest;newEdgeStyle={&quot;curved&quot;:0,&quot;rounded&quot;:0};labelBackgroundColor=#E8A6A6;fillColor=default;strokeColor=default;" vertex="1" parent="gyVIyl1_PDcGO-czcSNo-1">
          <mxGeometry x="40" y="81" width="10" height="170" as="geometry" />
        </mxCell>
        <mxCell id="gyVIyl1_PDcGO-czcSNo-3" value="&lt;div&gt;&amp;lt;&amp;lt;Canal&amp;gt;&amp;gt;&lt;/div&gt;Cajero AutomÃ¡tico" style="shape=umlLifeline;perimeter=lifelinePerimeter;whiteSpace=wrap;html=1;container=1;dropTarget=0;collapsible=0;recursiveResize=0;outlineConnect=0;portConstraint=eastwest;newEdgeStyle={&quot;edgeStyle&quot;:&quot;elbowEdgeStyle&quot;,&quot;elbow&quot;:&quot;vertical&quot;,&quot;curved&quot;:0,&quot;rounded&quot;:0};align=center;movable=1;resizable=1;rotatable=1;deletable=1;editable=1;locked=0;connectable=1;fontStyle=1;fillColor=#f8cecc;strokeColor=#b85450;sketch=1;curveFitting=1;jiggle=2;" vertex="1" parent="nctrB8vf493KiRFq7X1_-12">
          <mxGeometry x="299" y="65" width="131" height="2213" as="geometry" />
        </mxCell>
        <mxCell id="gyVIyl1_PDcGO-czcSNo-19" value="" style="html=1;points=[[0,0,0,0,5],[0,1,0,0,-5],[1,0,0,0,5],[1,1,0,0,-5]];perimeter=orthogonalPerimeter;outlineConnect=0;targetShapes=umlLifeline;portConstraint=eastwest;newEdgeStyle={&quot;curved&quot;:0,&quot;rounded&quot;:0};labelBackgroundColor=#E8A6A6;fillColor=default;strokeColor=default;" vertex="1" parent="gyVIyl1_PDcGO-czcSNo-3">
          <mxGeometry x="40" y="218.32" width="10" height="170" as="geometry" />
        </mxCell>
        <mxCell id="gyVIyl1_PDcGO-czcSNo-5" value="&lt;div&gt;&amp;lt;&amp;lt;Queque&amp;gt;&amp;gt;&lt;/div&gt;MQ Canal" style="shape=umlLifeline;perimeter=lifelinePerimeter;whiteSpace=wrap;html=1;container=1;dropTarget=0;collapsible=0;recursiveResize=0;outlineConnect=0;portConstraint=eastwest;newEdgeStyle={&quot;edgeStyle&quot;:&quot;elbowEdgeStyle&quot;,&quot;elbow&quot;:&quot;vertical&quot;,&quot;curved&quot;:0,&quot;rounded&quot;:0};align=center;movable=1;resizable=1;rotatable=1;deletable=1;editable=1;locked=0;connectable=1;fontStyle=1;fillColor=#f8cecc;strokeColor=#b85450;sketch=1;curveFitting=1;jiggle=2;" vertex="1" parent="nctrB8vf493KiRFq7X1_-12">
          <mxGeometry x="908.5" y="63" width="118" height="2201" as="geometry" />
        </mxCell>
        <mxCell id="gyVIyl1_PDcGO-czcSNo-6" value="&lt;div&gt;&amp;lt;&amp;lt;Componente&amp;gt;&amp;gt;&lt;/div&gt;Launcher" style="shape=umlLifeline;perimeter=lifelinePerimeter;whiteSpace=wrap;html=1;container=1;dropTarget=0;collapsible=0;recursiveResize=0;outlineConnect=0;portConstraint=eastwest;newEdgeStyle={&quot;edgeStyle&quot;:&quot;elbowEdgeStyle&quot;,&quot;elbow&quot;:&quot;vertical&quot;,&quot;curved&quot;:0,&quot;rounded&quot;:0};align=center;movable=1;resizable=1;rotatable=1;deletable=1;editable=1;locked=0;connectable=1;fontStyle=1;fillColor=#f8cecc;strokeColor=#b85450;sketch=1;curveFitting=1;jiggle=2;" vertex="1" parent="nctrB8vf493KiRFq7X1_-12">
          <mxGeometry x="1049" y="63" width="118" height="2201" as="geometry" />
        </mxCell>
        <mxCell id="gyVIyl1_PDcGO-czcSNo-7" value="&lt;div&gt;&amp;lt;&amp;lt;CaaS Integration Layer&amp;gt;&amp;gt;&lt;/div&gt;&lt;div&gt;Block Card&lt;/div&gt;" style="shape=umlLifeline;perimeter=lifelinePerimeter;whiteSpace=wrap;html=1;container=1;dropTarget=0;collapsible=0;recursiveResize=0;outlineConnect=0;portConstraint=eastwest;newEdgeStyle={&quot;edgeStyle&quot;:&quot;elbowEdgeStyle&quot;,&quot;elbow&quot;:&quot;vertical&quot;,&quot;curved&quot;:0,&quot;rounded&quot;:0};align=center;movable=1;resizable=1;rotatable=1;deletable=1;editable=1;locked=0;connectable=1;fontStyle=1;fillColor=#f8cecc;strokeColor=#b85450;sketch=1;curveFitting=1;jiggle=2;" vertex="1" parent="nctrB8vf493KiRFq7X1_-12">
          <mxGeometry x="1325.5" y="63" width="163.5" height="2201" as="geometry" />
        </mxCell>
        <mxCell id="gyVIyl1_PDcGO-czcSNo-8" value="&amp;lt;&amp;lt;Autorizador&amp;gt;&amp;gt;&lt;div&gt;Stratos Cloud&lt;/div&gt;" style="shape=umlLifeline;perimeter=lifelinePerimeter;whiteSpace=wrap;html=1;container=1;dropTarget=0;collapsible=0;recursiveResize=0;outlineConnect=0;portConstraint=eastwest;newEdgeStyle={&quot;edgeStyle&quot;:&quot;elbowEdgeStyle&quot;,&quot;elbow&quot;:&quot;vertical&quot;,&quot;curved&quot;:0,&quot;rounded&quot;:0};align=center;movable=1;resizable=1;rotatable=1;deletable=1;editable=1;locked=0;connectable=1;fontStyle=1;fillColor=#f8cecc;strokeColor=#b85450;sketch=1;curveFitting=1;jiggle=2;" vertex="1" parent="nctrB8vf493KiRFq7X1_-12">
          <mxGeometry x="754" y="63" width="131" height="2200.75" as="geometry" />
        </mxCell>
        <mxCell id="gyVIyl1_PDcGO-czcSNo-9" value="&lt;div&gt;&amp;lt;&amp;lt;Queque&amp;gt;&amp;gt;&lt;/div&gt;MQ Open" style="shape=umlLifeline;perimeter=lifelinePerimeter;whiteSpace=wrap;html=1;container=1;dropTarget=0;collapsible=0;recursiveResize=0;outlineConnect=0;portConstraint=eastwest;newEdgeStyle={&quot;edgeStyle&quot;:&quot;elbowEdgeStyle&quot;,&quot;elbow&quot;:&quot;vertical&quot;,&quot;curved&quot;:0,&quot;rounded&quot;:0};align=center;movable=1;resizable=1;rotatable=1;deletable=1;editable=1;locked=0;connectable=1;fontStyle=1;fillColor=#f8cecc;strokeColor=#b85450;sketch=1;curveFitting=1;jiggle=2;" vertex="1" parent="nctrB8vf493KiRFq7X1_-12">
          <mxGeometry x="1187.5" y="63" width="118" height="2201" as="geometry" />
        </mxCell>
        <mxCell id="gyVIyl1_PDcGO-czcSNo-10" value="&lt;div&gt;&amp;lt;&amp;lt;Plataforma SaaS&amp;gt;&amp;gt;&lt;/div&gt;PLARD" style="shape=umlLifeline;perimeter=lifelinePerimeter;whiteSpace=wrap;html=1;container=1;dropTarget=0;collapsible=0;recursiveResize=0;outlineConnect=0;portConstraint=eastwest;newEdgeStyle={&quot;edgeStyle&quot;:&quot;elbowEdgeStyle&quot;,&quot;elbow&quot;:&quot;vertical&quot;,&quot;curved&quot;:0,&quot;rounded&quot;:0};align=center;movable=1;resizable=1;rotatable=1;deletable=1;editable=1;locked=0;connectable=1;fontStyle=1;fillColor=#f8cecc;strokeColor=#b85450;sketch=1;curveFitting=1;jiggle=2;" vertex="1" parent="nctrB8vf493KiRFq7X1_-12">
          <mxGeometry x="1509.25" y="63" width="149" height="2201" as="geometry" />
        </mxCell>
        <mxCell id="gyVIyl1_PDcGO-czcSNo-11" value="&lt;div&gt;&amp;lt;&amp;lt;Componente&amp;gt;&amp;gt;&lt;/div&gt;OAS Splitter" style="shape=umlLifeline;perimeter=lifelinePerimeter;whiteSpace=wrap;html=1;container=1;dropTarget=0;collapsible=0;recursiveResize=0;outlineConnect=0;portConstraint=eastwest;newEdgeStyle={&quot;edgeStyle&quot;:&quot;elbowEdgeStyle&quot;,&quot;elbow&quot;:&quot;vertical&quot;,&quot;curved&quot;:0,&quot;rounded&quot;:0};align=center;movable=1;resizable=1;rotatable=1;deletable=1;editable=1;locked=0;connectable=1;fontStyle=1;fillColor=#f8cecc;strokeColor=#b85450;sketch=1;curveFitting=1;jiggle=2;" vertex="1" parent="nctrB8vf493KiRFq7X1_-12">
          <mxGeometry x="449" y="65" width="131" height="2193" as="geometry" />
        </mxCell>
        <mxCell id="gyVIyl1_PDcGO-czcSNo-15" value="&amp;lt;&amp;lt;Autorizador&amp;gt;&amp;gt;&lt;div&gt;Stratos On-Premise&lt;/div&gt;" style="shape=umlLifeline;perimeter=lifelinePerimeter;whiteSpace=wrap;html=1;container=1;dropTarget=0;collapsible=0;recursiveResize=0;outlineConnect=0;portConstraint=eastwest;newEdgeStyle={&quot;edgeStyle&quot;:&quot;elbowEdgeStyle&quot;,&quot;elbow&quot;:&quot;vertical&quot;,&quot;curved&quot;:0,&quot;rounded&quot;:0};align=center;movable=1;resizable=1;rotatable=1;deletable=1;editable=1;locked=0;connectable=1;fontStyle=1;fillColor=#f8cecc;strokeColor=#b85450;sketch=1;curveFitting=1;jiggle=2;" vertex="1" parent="nctrB8vf493KiRFq7X1_-12">
          <mxGeometry x="599" y="65" width="131" height="2201" as="geometry" />
        </mxCell>
        <mxCell id="gyVIyl1_PDcGO-czcSNo-18" value="&lt;div&gt;&amp;lt;&amp;lt;xxx&amp;gt;&amp;gt;&lt;/div&gt;LYNX" style="shape=umlLifeline;perimeter=lifelinePerimeter;whiteSpace=wrap;html=1;container=0;dropTarget=0;collapsible=0;recursiveResize=0;outlineConnect=0;portConstraint=eastwest;newEdgeStyle={&quot;edgeStyle&quot;:&quot;elbowEdgeStyle&quot;,&quot;elbow&quot;:&quot;vertical&quot;,&quot;curved&quot;:0,&quot;rounded&quot;:0};align=center;movable=1;resizable=1;rotatable=1;deletable=1;editable=1;locked=0;connectable=1;fontStyle=1;fillColor=#f8cecc;strokeColor=#b85450;sketch=1;curveFitting=1;jiggle=2;" vertex="1" parent="nctrB8vf493KiRFq7X1_-12">
          <mxGeometry x="2421" y="63" width="118" height="2200.75" as="geometry" />
        </mxCell>
        <mxCell id="gyVIyl1_PDcGO-czcSNo-22" value="" style="html=1;verticalAlign=bottom;labelBackgroundColor=none;endArrow=none;endFill=0;endSize=6;align=left;rounded=0;startArrow=block;startFill=1;dashed=1;entryX=0.503;entryY=0.042;entryDx=0;entryDy=0;entryPerimeter=0;exitX=0.512;exitY=0.042;exitDx=0;exitDy=0;exitPerimeter=0;" edge="1" parent="nctrB8vf493KiRFq7X1_-12" source="gyVIyl1_PDcGO-czcSNo-1" target="gyVIyl1_PDcGO-czcSNo-3">
          <mxGeometry x="-1" relative="1" as="geometry">
            <mxPoint x="89" y="283" as="sourcePoint" />
            <mxPoint x="354" y="283" as="targetPoint" />
            <mxPoint as="offset" />
          </mxGeometry>
        </mxCell>
        <mxCell id="gyVIyl1_PDcGO-czcSNo-23" value="&lt;p style=&quot;margin-bottom:0cm;text-align:justify;line-height:&lt;br/&gt;normal;vertical-align:baseline&quot; class=&quot;MsoNormal&quot;&gt;&lt;br&gt;&lt;/p&gt;" style="edgeLabel;html=1;align=center;verticalAlign=middle;resizable=0;points=[];labelBackgroundColor=none;" vertex="1" connectable="0" parent="nctrB8vf493KiRFq7X1_-12">
          <mxGeometry x="218.99818181818176" y="133.00484848484848" as="geometry" />
        </mxCell>
        <mxCell id="gyVIyl1_PDcGO-czcSNo-25" value="" style="html=1;verticalAlign=bottom;labelBackgroundColor=none;endArrow=block;endFill=1;endSize=6;align=left;rounded=0;exitX=0.501;exitY=0.076;exitDx=0;exitDy=0;exitPerimeter=0;entryX=0.497;entryY=0.076;entryDx=0;entryDy=0;entryPerimeter=0;" edge="1" parent="nctrB8vf493KiRFq7X1_-12">
          <mxGeometry x="-1" relative="1" as="geometry">
            <mxPoint x="84.63099999999986" y="287.73199999999997" as="sourcePoint" />
            <mxPoint x="364.10699999999997" y="290.1880000000001" as="targetPoint" />
            <mxPoint as="offset" />
          </mxGeometry>
        </mxCell>
        <mxCell id="gyVIyl1_PDcGO-czcSNo-13" value="&lt;div&gt;&amp;lt;&amp;lt;Altair 390&amp;gt;&amp;gt;&lt;/div&gt;PAMPA" style="shape=umlLifeline;perimeter=lifelinePerimeter;whiteSpace=wrap;html=1;container=0;dropTarget=0;collapsible=0;recursiveResize=0;outlineConnect=0;portConstraint=eastwest;newEdgeStyle={&quot;edgeStyle&quot;:&quot;elbowEdgeStyle&quot;,&quot;elbow&quot;:&quot;vertical&quot;,&quot;curved&quot;:0,&quot;rounded&quot;:0};align=center;movable=1;resizable=1;rotatable=1;deletable=1;editable=1;locked=0;connectable=1;fontStyle=1;fillColor=#f8cecc;strokeColor=#b85450;sketch=1;curveFitting=1;jiggle=2;" vertex="1" parent="nctrB8vf493KiRFq7X1_-12">
          <mxGeometry x="1973" y="63" width="118" height="2200.75" as="geometry" />
        </mxCell>
        <mxCell id="gyVIyl1_PDcGO-czcSNo-16" value="&lt;div&gt;&amp;lt;&amp;lt;Altair 390&amp;gt;&amp;gt;&lt;/div&gt;CAPTACION" style="shape=umlLifeline;perimeter=lifelinePerimeter;whiteSpace=wrap;html=1;container=0;dropTarget=0;collapsible=0;recursiveResize=0;outlineConnect=0;portConstraint=eastwest;newEdgeStyle={&quot;edgeStyle&quot;:&quot;elbowEdgeStyle&quot;,&quot;elbow&quot;:&quot;vertical&quot;,&quot;curved&quot;:0,&quot;rounded&quot;:0};align=center;movable=1;resizable=1;rotatable=1;deletable=1;editable=1;locked=0;connectable=1;fontStyle=1;fillColor=#f8cecc;strokeColor=#b85450;sketch=1;curveFitting=1;jiggle=2;" vertex="1" parent="nctrB8vf493KiRFq7X1_-12">
          <mxGeometry x="2108.75" y="63.13" width="118" height="2200.75" as="geometry" />
        </mxCell>
        <mxCell id="X9y4Wk6Naa9MSp61Uxv0-1" value="&lt;div&gt;&amp;lt;&amp;lt;xxx&amp;gt;&amp;gt;&lt;/div&gt;&lt;div&gt;&lt;div&gt;&amp;nbsp;&lt;span style=&quot;background-color: initial;&quot;&gt;BIT (&lt;/span&gt;&lt;span style=&quot;background-color: initial;&quot;&gt;CARD CONTROL&lt;/span&gt;&lt;span style=&quot;background-color: initial;&quot;&gt;)&lt;/span&gt;&lt;/div&gt;&lt;/div&gt;" style="shape=umlLifeline;perimeter=lifelinePerimeter;whiteSpace=wrap;html=1;container=0;dropTarget=0;collapsible=0;recursiveResize=0;outlineConnect=0;portConstraint=eastwest;newEdgeStyle={&quot;edgeStyle&quot;:&quot;elbowEdgeStyle&quot;,&quot;elbow&quot;:&quot;vertical&quot;,&quot;curved&quot;:0,&quot;rounded&quot;:0};align=center;movable=1;resizable=1;rotatable=1;deletable=1;editable=1;locked=0;connectable=1;fontStyle=1;fillColor=#f8cecc;strokeColor=#b85450;sketch=1;curveFitting=1;jiggle=2;" vertex="1" parent="nctrB8vf493KiRFq7X1_-12">
          <mxGeometry x="2249" y="64" width="140" height="2193.75" as="geometry" />
        </mxCell>
        <mxCell id="X9y4Wk6Naa9MSp61Uxv0-2" value="" style="html=1;verticalAlign=bottom;labelBackgroundColor=none;endArrow=block;endFill=1;endSize=6;align=left;rounded=0;exitX=0.483;exitY=0.077;exitDx=0;exitDy=0;exitPerimeter=0;entryX=0.497;entryY=0.076;entryDx=0;entryDy=0;entryPerimeter=0;" edge="1" parent="nctrB8vf493KiRFq7X1_-12">
          <mxGeometry x="-1" relative="1" as="geometry">
            <mxPoint x="365.2729999999999" y="290.40099999999984" as="sourcePoint" />
            <mxPoint x="661" y="290" as="targetPoint" />
            <mxPoint as="offset" />
          </mxGeometry>
        </mxCell>
        <mxCell id="X9y4Wk6Naa9MSp61Uxv0-4" value="&lt;span style=&quot;font-family: Arial, sans-serif; font-size: 11px; text-align: justify; text-wrap: nowrap;&quot;&gt;Presenta MenÃº Santander ATM&lt;/span&gt;" style="text;html=1;align=left;verticalAlign=top;whiteSpace=wrap;rounded=0;fontSize=11;" vertex="1" parent="nctrB8vf493KiRFq7X1_-12">
          <mxGeometry x="125" y="128" width="110" height="26.32" as="geometry" />
        </mxCell>
        <mxCell id="X9y4Wk6Naa9MSp61Uxv0-5" value="&lt;span style=&quot;font-size: 11px; text-align: center; text-wrap: nowrap;&quot;&gt;Selecciona opciÃ³n Retiro de efectivo&lt;/span&gt;" style="text;html=1;align=left;verticalAlign=top;whiteSpace=wrap;rounded=0;fontSize=11;" vertex="1" parent="nctrB8vf493KiRFq7X1_-12">
          <mxGeometry x="125" y="260.32" width="110" height="26.32" as="geometry" />
        </mxCell>
        <mxCell id="X9y4Wk6Naa9MSp61Uxv0-6" value="&lt;div style=&quot;text-align: center;&quot;&gt;&lt;span style=&quot;text-wrap: nowrap;&quot;&gt;Valida peticiÃ³n de&amp;nbsp;&lt;/span&gt;&lt;span style=&quot;text-wrap: nowrap; background-color: initial;&quot;&gt;Retiro de Efectivo&lt;/span&gt;&lt;/div&gt;" style="text;html=1;align=left;verticalAlign=top;whiteSpace=wrap;rounded=0;fontSize=11;" vertex="1" parent="nctrB8vf493KiRFq7X1_-12">
          <mxGeometry x="430" y="267" width="110" height="26.32" as="geometry" />
        </mxCell>
        <mxCell id="X9y4Wk6Naa9MSp61Uxv0-8" value="" style="html=1;verticalAlign=bottom;labelBackgroundColor=none;endArrow=block;endFill=1;endSize=6;align=left;rounded=0;exitX=0.468;exitY=0.085;exitDx=0;exitDy=0;exitPerimeter=0;entryX=0.471;entryY=0.078;entryDx=0;entryDy=0;entryPerimeter=0;" edge="1" parent="nctrB8vf493KiRFq7X1_-12">
          <mxGeometry x="-1" relative="1" as="geometry">
            <mxPoint x="648.998" y="290.0849999999991" as="sourcePoint" />
            <mxPoint x="2028.5780000000004" y="291.65849999999955" as="targetPoint" />
            <mxPoint as="offset" />
          </mxGeometry>
        </mxCell>
        <mxCell id="X9y4Wk6Naa9MSp61Uxv0-9" value="&lt;div style=&quot;text-align: center;&quot;&gt;&lt;div&gt;Valida trama e&amp;nbsp;&lt;span style=&quot;background-color: initial;&quot;&gt;integra datos de la&amp;nbsp;&lt;/span&gt;&lt;span style=&quot;background-color: initial;&quot;&gt;cuenta&lt;/span&gt;&lt;/div&gt;&lt;/div&gt;" style="text;html=1;align=left;verticalAlign=top;whiteSpace=wrap;rounded=0;fontSize=11;" vertex="1" parent="nctrB8vf493KiRFq7X1_-12">
          <mxGeometry x="1049" y="267" width="221" height="26.32" as="geometry" />
        </mxCell>
        <mxCell id="X9y4Wk6Naa9MSp61Uxv0-10" value="alt" style="shape=umlFrame;whiteSpace=wrap;html=1;pointerEvents=0;width=86;height=31;" vertex="1" parent="nctrB8vf493KiRFq7X1_-12">
          <mxGeometry x="640" y="173" width="1930" height="1387" as="geometry" />
        </mxCell>
        <mxCell id="X9y4Wk6Naa9MSp61Uxv0-12" value="" style="endArrow=none;dashed=1;html=1;rounded=0;entryX=0.999;entryY=0.697;entryDx=0;entryDy=0;entryPerimeter=0;exitX=0;exitY=0.698;exitDx=0;exitDy=0;exitPerimeter=0;" edge="1" parent="nctrB8vf493KiRFq7X1_-12">
          <mxGeometry width="50" height="50" relative="1" as="geometry">
            <mxPoint x="640" y="1198.1260000000002" as="sourcePoint" />
            <mxPoint x="2568.0699999999997" y="1196.7389999999996" as="targetPoint" />
          </mxGeometry>
        </mxCell>
        <mxCell id="X9y4Wk6Naa9MSp61Uxv0-15" value="" style="html=1;verticalAlign=bottom;labelBackgroundColor=none;endArrow=block;endFill=1;endSize=6;align=left;rounded=0;exitX=0.468;exitY=0.085;exitDx=0;exitDy=0;exitPerimeter=0;" edge="1" parent="nctrB8vf493KiRFq7X1_-12">
          <mxGeometry x="-1" relative="1" as="geometry">
            <mxPoint x="658.998" y="1302.7849999999992" as="sourcePoint" />
            <mxPoint x="2479.5" y="1302.7849999999999" as="targetPoint" />
            <mxPoint as="offset" />
          </mxGeometry>
        </mxCell>
        <mxCell id="X9y4Wk6Naa9MSp61Uxv0-16" value="&lt;div style=&quot;text-align: center;&quot;&gt;&lt;div&gt;Valida trama e&amp;nbsp;&lt;span style=&quot;background-color: initial;&quot;&gt;integra datos de la&amp;nbsp;&lt;/span&gt;&lt;span style=&quot;background-color: initial;&quot;&gt;cuenta&lt;/span&gt;&lt;/div&gt;&lt;/div&gt;" style="text;html=1;align=left;verticalAlign=top;whiteSpace=wrap;rounded=0;fontSize=11;" vertex="1" parent="nctrB8vf493KiRFq7X1_-12">
          <mxGeometry x="1049" y="1272.78" width="221" height="26.32" as="geometry" />
        </mxCell>
        <mxCell id="X9y4Wk6Naa9MSp61Uxv0-17" style="edgeStyle=orthogonalEdgeStyle;rounded=0;orthogonalLoop=1;jettySize=auto;html=1;curved=0;exitX=0.503;exitY=0.55;exitDx=0;exitDy=0;exitPerimeter=0;entryX=0.5;entryY=0.561;entryDx=0;entryDy=0;entryPerimeter=0;" edge="1" parent="nctrB8vf493KiRFq7X1_-12">
          <mxGeometry relative="1" as="geometry">
            <mxPoint x="2480.354" y="1304.6325000000004" as="sourcePoint" />
            <mxPoint x="2480" y="1328.84075" as="targetPoint" />
            <Array as="points">
              <mxPoint x="2504" y="1304.22" />
              <mxPoint x="2604" y="1304.22" />
              <mxPoint x="2604" y="1329.22" />
            </Array>
          </mxGeometry>
        </mxCell>
        <mxCell id="X9y4Wk6Naa9MSp61Uxv0-19" value="&lt;div style=&quot;text-align: center;&quot;&gt;&lt;span style=&quot;background-color: initial; text-wrap: nowrap;&quot;&gt;RNEG0001&lt;/span&gt;&lt;/div&gt;" style="text;html=1;align=left;verticalAlign=top;whiteSpace=wrap;rounded=0;fontSize=11;" vertex="1" parent="nctrB8vf493KiRFq7X1_-12">
          <mxGeometry x="2491" y="1278.32" width="110" height="26.32" as="geometry" />
        </mxCell>
        <mxCell id="X9y4Wk6Naa9MSp61Uxv0-20" value="&lt;div style=&quot;text-align: center;&quot;&gt;Proceso validacion de retiro&lt;/div&gt;" style="text;html=1;align=left;verticalAlign=top;whiteSpace=wrap;rounded=0;fontSize=11;" vertex="1" parent="nctrB8vf493KiRFq7X1_-12">
          <mxGeometry x="659" y="206.68" width="221" height="26.32" as="geometry" />
        </mxCell>
        <mxCell id="X9y4Wk6Naa9MSp61Uxv0-21" value="&lt;div style=&quot;text-align: center;&quot;&gt;&lt;div&gt;== PLARD&lt;/div&gt;&lt;/div&gt;" style="text;html=1;align=left;verticalAlign=top;whiteSpace=wrap;rounded=0;fontSize=11;" vertex="1" parent="nctrB8vf493KiRFq7X1_-12">
          <mxGeometry x="668.76" y="260.32" width="221" height="26.32" as="geometry" />
        </mxCell>
        <mxCell id="X9y4Wk6Naa9MSp61Uxv0-22" value="&lt;div style=&quot;text-align: center;&quot;&gt;&lt;div&gt;== LYNX&lt;/div&gt;&lt;/div&gt;" style="text;html=1;align=left;verticalAlign=top;whiteSpace=wrap;rounded=0;fontSize=11;" vertex="1" parent="nctrB8vf493KiRFq7X1_-12">
          <mxGeometry x="664" y="1250.0000000000002" width="221" height="26.32" as="geometry" />
        </mxCell>
        <mxCell id="X9y4Wk6Naa9MSp61Uxv0-23" value="&lt;h1 style=&quot;margin-top: 0px; font-size: 11px;&quot;&gt;&lt;font style=&quot;font-size: 11px;&quot;&gt;else&lt;/font&gt;&lt;/h1&gt;&lt;h1 style=&quot;margin-top: 0px; font-size: 11px;&quot;&gt;&lt;br style=&quot;font-size: 11px;&quot;&gt;&lt;/h1&gt;" style="text;html=1;whiteSpace=wrap;overflow=hidden;rounded=0;fontSize=11;" vertex="1" parent="nctrB8vf493KiRFq7X1_-12">
          <mxGeometry x="668.76" y="1208.75" width="49.25" height="29.5" as="geometry" />
        </mxCell>
        <mxCell id="X9y4Wk6Naa9MSp61Uxv0-13" value="" style="html=1;verticalAlign=bottom;labelBackgroundColor=none;endArrow=block;endFill=1;endSize=6;align=left;rounded=0;exitX=0.482;exitY=0.164;exitDx=0;exitDy=0;exitPerimeter=0;entryX=0.498;entryY=0.164;entryDx=0;entryDy=0;entryPerimeter=0;" edge="1" parent="nctrB8vf493KiRFq7X1_-12">
          <mxGeometry x="-1" relative="1" as="geometry">
            <mxPoint x="2029.8759999999997" y="532.9230000000007" as="sourcePoint" />
            <mxPoint x="2318.7199999999993" y="532.7749999999996" as="targetPoint" />
            <mxPoint as="offset" />
            <Array as="points">
              <mxPoint x="2098.1200000000003" y="532" />
            </Array>
          </mxGeometry>
        </mxCell>
        <mxCell id="X9y4Wk6Naa9MSp61Uxv0-27" value="&lt;div style=&quot;text-align: center;&quot;&gt;&lt;div&gt;Riesgo de&amp;nbsp;&lt;span style=&quot;background-color: initial;&quot;&gt;operaciÃ³n&amp;nbsp;&lt;/span&gt;&lt;/div&gt;&lt;div&gt;&lt;span style=&quot;text-wrap: nowrap;&quot;&gt;RNEG0001&lt;/span&gt;&lt;br&gt;&lt;/div&gt;&lt;/div&gt;" style="text;html=1;align=left;verticalAlign=top;whiteSpace=wrap;rounded=0;fontSize=11;" vertex="1" parent="nctrB8vf493KiRFq7X1_-12">
          <mxGeometry x="2381" y="1382.68" width="111" height="26.32" as="geometry" />
        </mxCell>
        <mxCell id="X9y4Wk6Naa9MSp61Uxv0-32" value="" style="html=1;verticalAlign=bottom;labelBackgroundColor=none;endArrow=none;endFill=0;endSize=6;align=left;rounded=0;startArrow=block;startFill=1;dashed=1;entryX=0.503;entryY=0.042;entryDx=0;entryDy=0;entryPerimeter=0;exitX=0.471;exitY=0.22;exitDx=0;exitDy=0;exitPerimeter=0;dashPattern=8 8;" edge="1" parent="nctrB8vf493KiRFq7X1_-12">
          <mxGeometry x="-1" relative="1" as="geometry">
            <mxPoint x="664.001" y="711.2200000000012" as="sourcePoint" />
            <mxPoint x="2021.3" y="707" as="targetPoint" />
            <mxPoint as="offset" />
          </mxGeometry>
        </mxCell>
        <mxCell id="X9y4Wk6Naa9MSp61Uxv0-37" style="edgeStyle=orthogonalEdgeStyle;rounded=0;orthogonalLoop=1;jettySize=auto;html=1;curved=0;exitX=0.494;exitY=0.127;exitDx=0;exitDy=0;exitPerimeter=0;entryX=0.475;entryY=0.139;entryDx=0;entryDy=0;entryPerimeter=0;" edge="1" parent="nctrB8vf493KiRFq7X1_-12">
          <mxGeometry relative="1" as="geometry">
            <mxPoint x="2031.2920000000004" y="399.49524999999994" as="sourcePoint" />
            <mxPoint x="2029.0500000000002" y="425.9042499999996" as="targetPoint" />
            <Array as="points">
              <mxPoint x="2109" y="400" />
              <mxPoint x="2109" y="426" />
            </Array>
          </mxGeometry>
        </mxCell>
        <mxCell id="X9y4Wk6Naa9MSp61Uxv0-45" value="" style="html=1;verticalAlign=bottom;labelBackgroundColor=none;endArrow=none;endFill=0;endSize=6;align=left;rounded=0;startArrow=block;startFill=1;dashed=1;entryX=0.504;entryY=0.618;entryDx=0;entryDy=0;entryPerimeter=0;exitX=0.471;exitY=0.22;exitDx=0;exitDy=0;exitPerimeter=0;" edge="1" parent="nctrB8vf493KiRFq7X1_-12">
          <mxGeometry x="-1" relative="1" as="geometry">
            <mxPoint x="664.001" y="1473.2200000000012" as="sourcePoint" />
            <mxPoint x="2480.472" y="1469.0635000000002" as="targetPoint" />
            <mxPoint as="offset" />
          </mxGeometry>
        </mxCell>
        <mxCell id="X9y4Wk6Naa9MSp61Uxv0-47" value="&lt;div style=&quot;text-align: center;&quot;&gt;&lt;div&gt;Valida Riesgo de&amp;nbsp;&lt;span style=&quot;background-color: initial;&quot;&gt;la operaciÃ³n&amp;nbsp;&lt;/span&gt;&lt;/div&gt;&lt;div&gt;&lt;span style=&quot;background-color: initial;&quot;&gt;para&amp;nbsp;&lt;/span&gt;&lt;span style=&quot;background-color: initial;&quot;&gt;Retiro de Efectivo&lt;/span&gt;&lt;/div&gt;&lt;/div&gt;" style="text;html=1;align=left;verticalAlign=top;whiteSpace=wrap;rounded=0;fontSize=11;" vertex="1" parent="nctrB8vf493KiRFq7X1_-12">
          <mxGeometry x="2490" y="1409" width="160" height="26.32" as="geometry" />
        </mxCell>
        <mxCell id="X9y4Wk6Naa9MSp61Uxv0-51" value="" style="html=1;verticalAlign=bottom;labelBackgroundColor=none;endArrow=none;endFill=0;endSize=6;align=left;rounded=0;startArrow=block;startFill=1;dashed=1;entryX=0.501;entryY=0.668;entryDx=0;entryDy=0;entryPerimeter=0;exitX=0.471;exitY=0.22;exitDx=0;exitDy=0;exitPerimeter=0;" edge="1" parent="nctrB8vf493KiRFq7X1_-12">
          <mxGeometry x="-1" relative="1" as="geometry">
            <mxPoint x="664.001" y="1583.2200000000018" as="sourcePoint" />
            <mxPoint x="2480.1179999999995" y="1579.1009999999987" as="targetPoint" />
            <mxPoint as="offset" />
          </mxGeometry>
        </mxCell>
        <mxCell id="X9y4Wk6Naa9MSp61Uxv0-53" value="&lt;div style=&quot;text-align: center;&quot;&gt;&lt;div&gt;Valida: Limites,&amp;nbsp;&lt;span style=&quot;background-color: initial;&quot;&gt;Bloqueos Operativos y&amp;nbsp;&lt;/span&gt;&lt;span style=&quot;background-color: initial;&quot;&gt;Restricciones&lt;/span&gt;&lt;/div&gt;&lt;/div&gt;" style="text;html=1;align=left;verticalAlign=top;whiteSpace=wrap;rounded=0;fontSize=11;" vertex="1" parent="nctrB8vf493KiRFq7X1_-12">
          <mxGeometry x="1049" y="1440" width="277" height="26.32" as="geometry" />
        </mxCell>
        <mxCell id="X9y4Wk6Naa9MSp61Uxv0-56" value="&lt;div style=&quot;text-align: center;&quot;&gt;&lt;div&gt;Rechaza&amp;nbsp;&lt;span style=&quot;background-color: initial;&quot;&gt;operaciÃ³n de Retiro&amp;nbsp;&lt;/span&gt;&lt;span style=&quot;background-color: initial;&quot;&gt;de Efectivo&lt;/span&gt;&lt;/div&gt;&lt;/div&gt;" style="text;html=1;align=left;verticalAlign=top;whiteSpace=wrap;rounded=0;fontSize=11;" vertex="1" parent="nctrB8vf493KiRFq7X1_-12">
          <mxGeometry x="1049" y="1560" width="277" height="26.32" as="geometry" />
        </mxCell>
        <mxCell id="X9y4Wk6Naa9MSp61Uxv0-57" value="&lt;div style=&quot;text-align: center;&quot;&gt;&lt;div&gt;Valida: Limites,&amp;nbsp;&lt;span style=&quot;background-color: initial;&quot;&gt;Bloqueos Operativos y&amp;nbsp;&lt;/span&gt;&lt;span style=&quot;background-color: initial;&quot;&gt;Restricciones&lt;/span&gt;&lt;/div&gt;&lt;/div&gt;" style="text;html=1;align=left;verticalAlign=top;whiteSpace=wrap;rounded=0;fontSize=11;" vertex="1" parent="nctrB8vf493KiRFq7X1_-12">
          <mxGeometry x="1043" y="677" width="305.5" height="26.32" as="geometry" />
        </mxCell>
        <mxCell id="X9y4Wk6Naa9MSp61Uxv0-58" value="" style="html=1;verticalAlign=bottom;labelBackgroundColor=none;endArrow=none;endFill=0;endSize=6;align=left;rounded=0;startArrow=block;startFill=1;dashed=1;entryX=0.497;entryY=0.664;entryDx=0;entryDy=0;entryPerimeter=0;exitX=0.511;exitY=0.661;exitDx=0;exitDy=0;exitPerimeter=0;" edge="1" parent="nctrB8vf493KiRFq7X1_-12">
          <mxGeometry x="-1" relative="1" as="geometry">
            <mxPoint x="365.9409999999998" y="1584.7929999999997" as="sourcePoint" />
            <mxPoint x="664.107" y="1583.464" as="targetPoint" />
            <mxPoint as="offset" />
          </mxGeometry>
        </mxCell>
        <mxCell id="X9y4Wk6Naa9MSp61Uxv0-59" value="" style="html=1;verticalAlign=bottom;labelBackgroundColor=none;endArrow=none;endFill=0;endSize=6;align=left;rounded=0;startArrow=block;startFill=1;dashed=1;entryX=0.508;entryY=0.661;entryDx=0;entryDy=0;entryPerimeter=0;exitX=0.496;exitY=0.663;exitDx=0;exitDy=0;exitPerimeter=0;" edge="1" parent="nctrB8vf493KiRFq7X1_-12">
          <mxGeometry x="-1" relative="1" as="geometry">
            <mxPoint x="83.97600000000011" y="1583.241" as="sourcePoint" />
            <mxPoint x="365.5479999999998" y="1584.7929999999997" as="targetPoint" />
            <mxPoint as="offset" />
          </mxGeometry>
        </mxCell>
        <mxCell id="X9y4Wk6Naa9MSp61Uxv0-60" value="" style="html=1;verticalAlign=bottom;labelBackgroundColor=none;endArrow=none;endFill=0;endSize=6;align=left;rounded=0;startArrow=block;startFill=1;dashed=1;entryX=0.502;entryY=0.205;entryDx=0;entryDy=0;entryPerimeter=0;exitX=0.471;exitY=0.22;exitDx=0;exitDy=0;exitPerimeter=0;dashPattern=8 8;" edge="1" parent="nctrB8vf493KiRFq7X1_-12">
          <mxGeometry x="-1" relative="1" as="geometry">
            <mxPoint x="659.001" y="574.2200000000012" as="sourcePoint" />
            <mxPoint x="2319.2799999999997" y="570.71875" as="targetPoint" />
            <mxPoint as="offset" />
          </mxGeometry>
        </mxCell>
        <mxCell id="X9y4Wk6Naa9MSp61Uxv0-62" value="&lt;div style=&quot;text-align: center;&quot;&gt;&lt;div&gt;Rechaza&amp;nbsp;&lt;span style=&quot;background-color: initial;&quot;&gt;operaciÃ³n de Retiro&amp;nbsp;&lt;/span&gt;&lt;span style=&quot;background-color: initial;&quot;&gt;de Efectivo&lt;/span&gt;&lt;/div&gt;&lt;/div&gt;" style="text;html=1;align=left;verticalAlign=top;whiteSpace=wrap;rounded=0;fontSize=11;" vertex="1" parent="nctrB8vf493KiRFq7X1_-12">
          <mxGeometry x="1043" y="540" width="277" height="26.32" as="geometry" />
        </mxCell>
        <mxCell id="nctrB8vf493KiRFq7X1_-1" value="MODELO FUNCIONAL DE SECUENCIA - PLARD / ATM : CONSULTA DE DATOS DE TARJETA DEL CLIENTE" style="rounded=0;whiteSpace=wrap;html=1;align=center;fillColor=#FFFFFF;strokeColor=default;fontColor=#000000;fontSize=16;fontStyle=1;labelBackgroundColor=default;" parent="1" vertex="1">
          <mxGeometry x="11" y="9057" width="1670" height="79" as="geometry" />
        </mxCell>
        <mxCell id="nctrB8vf493KiRFq7X1_-2" value="&lt;img alt=&quot;&quot; src=&quot;data:image/png;base64,iVBORw0KGgoAAAANSUhEUgAAAOgAAABXCAYAAAAONQnYAAAAAXNSR0IArs4c6QAAAARnQU1BAACxjwv8YQUAAAAJcEhZcwAAFxEAABcRAcom8z8AACX3SURBVHhe7Z0JmBTVtcdPL9N797BIFEWFqIiAskgU0IggGiMvbhF5aDQmrnFHBBVRjGwSQEUNboDGGBeeu2ERVBCVXYFhBGbt6a7uWnudGTZR6v1PTzEOAwPTQ4+A1P/7zlfLPXWreub++pxbdes2mTJlypQpU6ZMmTJlypQpU6ZMmTJlypQpU6ZMmTJlypQpU6ZMmTJlqokqpEKH1lrz89LYZcpU47WI+tkjdHlrJW9wd9l2zcCY/U9nB+nPLqPYVHayhNzasUGvcH4ooFwUDqhDQ375CSxfLW4h9jN8TJnat3Qia4L+51zZdtk/ZPvlMyT7Ve/K9qvXxB3XKJrjmk9C7r8ea7iaykLlPvG8cL48N+xXhEhAVYSAmhQCmi600PTyFsr1hpspU/tWMV0cSNove3tb3mA9lXeVnswboicdQ/Wtjj/riuPabyOuIccbrqayUIU3ckesRVrX8lO6lB/XRZiUn9RD+cqOsoB8reFmytS+FaberZL2yxdsB6BS3hW6DEhlxxA95fgTltesFNzXtjNcTWWhoC9yWzRf1dlC+RJM1iP5MT2cr243ATXVaIXo3JYp++VztgBME9DcyQTUVE5kAto8MgHNocJErXYSOY3NI0omoM0jE9DcyKIRdUoRvRIjegTrfmP/ESMT0ObRoQCoTrqlhOLHl5PYr5SUK8spenMpSSNLKPo7w+XQVoioZZzo/R/xWdJE25JEY3Uij1F8RMgEtHl0MAEtoIKjyylyaTlJU2ELg6SUV5CaCpG2TaSkXkryDMP10JZE5E0QPQE4t+wApAB0G6Lok9j/K8PlFy8T0OZRuU+4+ecGtJCiJ4QpdiPsgyDJ8Shg1GiLrlC1HqW0HiRNj1AyFSR1snHIoa8oIqaK9BaRdPP3NZDuBKQzKomOMlx+VhUSOYrJ1yZJ+R0k8nZVKb9nglr8VqWjB6l0zCUqHTdIoXa/i1GHs2TqeEaSOnYoo1/nG4dnreYENEzD3FHXAydIeaO7iPZxvWTn+Askx7hBomPCJYJj4qCoc8rvZPvU3pG8p7qLjmmdo64XT9BaT/JzamZU0WjxMWvpNa/qmdc24pjTUfDOPUN0L+gV8i4cKHgWDBI8n11SY58PCjm/uEjwL+8d8XzdI0iLWhhV7FeraXVekbvoONFX3DnqKekZ8hah7tJBFbAST/BiwS30rvCJncu8ZUeHvMI9kXxl588BaOa6SBoUInVeiGJbGEoVUCK1rS4lcR1sZhlFH0I0vXsjRa8JkdTFOPTwUJDIBSiHA84ER1JE1B8B7CyA29ZwaRYhnbag/9syRo7TFHJcmbQ67k9Y3FNiFu+HmiWwVrO0KNIsrUtVy1EhzXqMpFmPhbWTFGt7UbF2KFetp5Ro1o7fqrZOryfsXR9Sbd1/L1PXo43qG6VcA6rRCL9oH9VLcT5yu+p49J+i49Gvo67HiqOux8uirrGRqGucHHVNlKKuSbApYsT9ZDDqfrok6p5WFHE9u0JxPz9T9bw0OuT65/WC5/luwfxX9gqQTrNtQc/sYyT3e2eJrnevlz0fjZa9/50e8Xz8ueCdsyHsnVsc9s4vE3wLImHfAlnwfSYJvs9hi6Wwd0lU8H1VEfZ9XSx4ll1iVLlXLaJF9gpfYeewf+NfooHiyYK3aHHIt6m4wl9UGvKXRcL+MinsL5dC/qAY8oeCwfxQcUVA+CIciH4dzpd+EABmcwJaSOFWxRQZgzRWZihV2oxIqcbKSX4TgF5XSsIpG2nj4X9vZTaRDenuHTCNIynAQXpAb8NONVxyLpnoaHwZPFtNlpVxylMSFtePKYtHr7T49CpLPqwVrA22f6WnrW1h7WAnwDrATtIrrR1hnfSUrbMet3XdmbB1E+LW7h+K1h7DZGevXxun2adyBWgh3e6THCMGq46Rr2jOh9cprtFbY64xetw1Vk+4JmA5QY+5n4BNgk3WNfdTsGlYf06Pu6fDntfjnhd1wKnLnpd2iu6X0gnXa99G3bPGLaIx9pqz/KRyx79PVT3vvR7zfFQY9bxXKXk/2ql45+iad76u+T7NmOpbpCu+xYZ9CfsathS2XE/4v9GlwAo95P1qiFFlfVkirvV9BV/BP8RA8fKof1OVHCjRlUCFrgbCWIZ1OSDAIqhHzJgckHWlhZaxSAZK0bDmATREm48FmC/AdnDURFq7HWC+i0h5dZCSjc4MDhvxuFSF6IYYuqcM6WYY1ucB0k6GS07F9eKLIKSTVa8kh560uPQEAI0BUA2AapaWsKNgbXREUNhxsONh7XXV+mvYKbBT9ZjtNAZUT9u66VW2M/WE7cztMduZSzQ6+9LZNNhmnG6vygWgSt493SXH8JdVx4hYwjVKT7oe0VXXaF3GUnI9qouuv8Me10X3ONgE2BN6FJBG3VNhT8OmwZ7Ro57ndMnzPAMKUGfp27xv6RHPzBU6vbLHgP2g8/X+iuedZLV3nq54P9YBqC7Cot7/6oJvDmwu7BPYQsM+hy2GfQH7Upf9y/WIf1la8C/7vVFlrYL5a1qEvOvviXrXF0v+TboWKAOAxXoksEkXsAxnrARWBivXQ4C2xkIAUQCEEVi0WQEtoLKjS0l6LUxxtNGtgFOJlZH04Foq/eXfPwE41wCciu0/Qfq5RHS2UZwzcXRGxC7ZAkCR5gJMF8wDIGsATQDQJABNAdAUAE0hgqYQQZMANA5ANQNQFYCqti6wM2A99CQgrbadBVB7C6K9z/0SXeg1TrmHDhRQ1XHvoLhz+IqEc4SecD4IKB8AjA/CRsFGwx7Fvsd1xTUOEXMCbBJssq66n4Q9rSvuZ3UZtgvQqGc67AXYS3rS+5oueGZ8uTdAw67/9BM9/6do3g/1iPd92AcwXv9YjwBOEXBKiKIyomiNLYF9BfsatkxP+tegfEVJifez3fpjUdfqE6Legumif/1mLVCkR/0bAOF3MF6yFQHSEj0KMEUAKSGSioFoxqKwCIAUAGdzAlpMYhtEyplhiukyVeoVpFYA1r+MoTFWw+WXL6Sfl6MfuokhZcP6ylxDyoCi31u8D0B/SFhabUEUTSGCauiDyoig8bi1fWXM2mFHGilulfU0gNh5N0BVW09YL73K3ldP2PtUadbetxqn3EMHAqhsu/0C1XF3SbVzpK4679clmOgaWQuoAjgTSHFjgBOAfi+7xqdF13gNfVAl4vpHPOKamhRd06oB6fcNAzpzSUOASp535L0DOm+n6Jv/fcS3sFrwfpIMexdq3AcN+xYpgndxXPAtSWr+Vdtk36pPiml5wKiSYq2WB0TvupkKoGQL+wtg62sB5Qiq5iPFzQ9hvfyHiD9YhX5oHNFTrghUaGF/OB0NiNujADKa6Xs2D6BIZe8TKPFjDGktQA0D2KuMoiNLAGgAwFyxDYBuhSHarUQ0vdAoPmA1BGjK4gegATlOLR+LU+BWjVpfF6djBmvU9nKVjh2i0gk3Is0dGbecMiNpPXVFzNZpWyVSXK0eoIr9bEB6LlLgvmWa7ZzzjdPupqYCKuXd1EV03Lm8ElDKzmGA877dAI1l0ttHdqiux1ZKrr+/gCg6POIc+xfJPXFw2DHxCsk1+eqoa8q1Uee0myTns49HnM9qSgbOAwNU8c1D9Jy3TPTOuy/qWXBT2Dv/WtH36VUh9+eXBd2fXRnxfj6kwrvkT2Hfktsj/pXoAszOdAF00m0R37ePSIH1O2Q/gPSv3Q1QKRM1S7As3RDxl/8n5Ct5OOwruykcKP3foK/0ipAvNDjkD90Q8gv3IsV9IuSPruQbROEMqLkDtIQifUKklXNaGyK1EoDebBQdmQKQZ8FWMqBGJC0CWJcbxQekhgDdDEBjFv+3q6ntPgdNKNTGF6OTO2vWjiM1a+fSSgAaqweoau+jV9vP0zX7uXNidFZttNilpgBaSIMdkuNvL6UBpuK8F2Cy1QAqIcWNM5zOUQLS20fkvJGnR2nMfj7HP46JOp8p4ptEBwpoEv1NyffJ04Zbo1XhXD5A8K6Oa5zGZuD8CVAFfU7BvxH91aLnBX9x74L8gpbGYQ0qCFD5EUskh49ZFlHQVU7S63ynltPbMlKeX0pht1F85Aog9YJ9xZDyzSNE0nKF6IDTiv0BupaObrDvWFf8uEaiLv3j1q7LqwGnBlMMQBUAmkAUVey/3Spb+w01DqlVUwCV7bf0UR23y6kMmHfXART9UNfDgPahCsHx0FX7u0G1SzGaehwALc4VoEqWgBbSbJ/gW/1GHJFSQN+0LqAy0tpIYKOCFPfOKEUbPcqsOQYqlJE8EH3NJA88KCNpY5C0Zrl5eVgKfdIzAOaCaiOSptBGVKIbxxA1uWO+P0A3Uuusnl8p9u5949YewWqGsw6gqv0cpLrnY/38t9fWu2HUFEDVvNsmpQGm4rxrN0Djzgd1xfGAEHU8cIXh2ihFaMrxuQV0wTS4NHqwQ8S1ok/Ut1pRMxHz21pAo0h1xcCGbYJ/wzCkwFn9n3M91I/Pj+g5XaJKHg2kV5A82igytUsC0SlIcd+pxN+LBzRgPQZIb0IEa1SkqK9cA8rSrN1Gpm09d8Rtv6kFVAGglQA0bhsQVGlAT8M1o2wBFdw3tVMdt62qdt4DKO+sBVR2DtdjzgdQx4jHDddG62ADKnhXDdP86/SI/5vdANWQ2oZ8hfPX0JqsnynmGtBiEtqh77k6RTt4IELpJhLOMIpM1VWE6HiAOZMHMhjproJ0d0SYKOu+QHMAGqZux8WsPQsr6wGaAqAJe//qsO283aJbtoCGbTderDpu3RrLwPkToAnnSETUEd9F6L6OhmujdTAB5bRV9K1+Kx4oBJSrawEV/YUAtgDRc/11NZ7ZKdeABkk6H/1OrYp+1AWKvTGbZpszAzYkQNoacM0AXD8ag+yrAe3jPK7XcGmUmgNQlmrp+QwDqtp71wIas/cDoAN2Stb+Iwy3jLIFVLTfeGvSeTtgvH03QKucD+mxvBHTm/Is7mACKrq+PjHiXbFRy6S3PwGqcd/TX1BYcdSGJg33zDWg6HPeIVDihyildKS6Dxi7TTWkNCBFevscImgGUqS9WwDbTUZxo9RsgFp7DEkAUK0OoKr9PH2L/UI9aRvIjbdW2QDK03KKeTc9zYDKdQBVnMN0zXn/Tskx/G7DNSsdTEBD7hW95Ez/c109QIsA6PolhZ2bNodtjgG1lJP6bJK+18MUry6myB+M/ab2pSBRC0D6BCBL8DulVUQreZ9RvF81F6CyrccF3AetC6gCQLcD0CrbwBfhUtt4swE0RtcGFPvNc9IAsy6g8Uz/c3il6Bixz4HnDemgprjeZRcixU3KmX5nDaACYJX9G7AseFlv4uicXALKb6sIFH+9mvTM62JFJDbp73xEivueAG22DkDRL42gP3qSUbRfNVsEtff8rWbrtQegWwFoyjZwRt3HH9kAGqWhR2mOW1ZUAkzR+bd6gI6IKa77zjVcs9LBBFTyrPgf0beqUs48XqkBFKkt90F3Rn2FDxpuWSuXgM6lYqdAyTeqaCf6n4k0v1pmFJnan9D3vBpp7iaOoAC0CFG00YOVmwtQxX7mOTxQoT6g2wBo2nbhy3X7idkBegsAvXV1fUATzvsZUC3iuq+v4ZqVDiagEffSPzQEaMT/3W799WyU2wiq54mURgStAbTUjKCNk0w0FIBJ3Afl4YAA9El+I8Yo3q+aL4L26hfbC6Cc4qZtA18w3DLKNoIqjltXMaDSboAO5z5oLHoYRtBQA4BKmeF+BeMNt6yVS0DHkG4NkvZyJf2ghyhWZQK6H/G7o2miGwCXzI9aEDX5Je//ixEdZ7g0Ss3YB700vgeg/fQt9oF6wnbBU4ZbRtn2QeW8m+dxH1Sq1wfVnMNTUef9FxmuWelg90El3+pE/T6o6ucRROvf4zG6hmtWyvFNIiql8Ej0P3dGKPFDkMS/GbtN1RcipEMluhfRMvUDNgEYD1iYiX1Z345vthTX2v2hVL3HLHH7+XrMPuDHqLX/XYZbRtkAyn1X0XbzU/Xv4qrOYbDhP0Sdw5o0cPtgAiraV/QSfd8oamDPu7hRf+FKpU2hz3DNSrkGtJxCF4UplkxnnoPGZ+0a5G+qjlYTeRAlRwGqSoYTUXMHIJsWbeL8Rc0BaJBOdGnWHgurAGj9gQpJe/+0aBuw2wvK2QDKkvNuuSUBOOs+B5WN56Ba3sgn4dIoMOrqYAK60bmovehducdz0Jo3WtZrFd5vLjBcs1KuAS2m0ElBUr9L16S5a3jbKDLF2kjkTxBNBZSZGQARQXkGwPEKUZO+YVnNASjPS5Sw9Uwm6wFaae+vx239N4g0oLPhmlG2gIq2Gy9RHLdt1zJw1gDKAxVSmXG4968S3CN382+MDiagq2m1B33QN+P+3UcSRTjNrXkW+iLPS2S4N1q5BpQftQRJeo3nHQqR9mMFKXcaRaaKiQIMJ6DcyZETyy0cSbH/gGajzzWgGp3qT1i7v7+V+5+wXYDyYHkeiyvbzp+p05l5hntG2QIq0Z/bq47b1lbVG4vLL2yrzhE7ZPvIBl8Ob0gCTWt3sABlyd5v7+EUt/5YXMm/Efu+U4L+gqxvyuQaUFY5qUPKSd6mUJVeSuKKDVTRrJPaHRbiOXLRx5yOyPkj3xDCMgVYR6EvultDb4r2B2ghtWl0dA5Stxaq5fSJSVv3HQnbmXu8bqbaf1slU7893mPNFlB+cI8091kGVK4DKL/NkuQo6nxgXcg+qpfh3iiV0dNHA9CcvQ+aLaCCe3lvwbdKUfnl7DqA8utm/C5oJLDxCzGwMavPVO4Tbs01oDwRGACdy++DVpC6A5COaepNrF+EACYPjP83v2Jm3BBSkdLevogo65Rnb9oPoN8sQn/ScG1Q/LqbnNfxDM3WZWbMdsb2ZAMvbKvWc9/Z29xE2QLKEmw399ccd8aSGTB/AlTJvA86ShedDy2Luh46x3DfpxR6zhfJm3KD6HomrnqePyiAhmmpW/Cuejnh34CIufv7oAJSX54wTPBv+jbs/+6voq+4jXHYPlXhC98o5hhQVgmJF1eQFuMZFQCpAmAvNYqOLAHEkwFn5tUyI62NACh+s6HR//j9qSFAK2sADWrU4lqFWvaV6OgOFXRCW4VOPCYIi1G741Q6sYdmO+lyzdJpnGbttDZh66onbd0AZvcMoLsiaGXmDu45ZQnqc55x2t3UFEDDdJVbcdz+70rnMERRTnV3vbB9f2bSsLhrtB51jlofc4+5W8gbc0apd8yvIv4JrYtbjQmk8ie2zGw7JnQU3VP/KLqfmiW6pikSTxyWgzmJmgIoq9S9olfU921RDGltXUB5RgVEUETSMsC7KSUEit8PBzbdHvGWXrDJV9BpY+uNxwY9wWMKYRs8FW2D+cH2FfkVPUP+yDORfAVQKjkFlPui6H9OlSi9s2ZyanklImlW0f2wF9LaLgDyM57Rz0hrSwFTTqY5qauGAOVJw2KW/B/jlhZpzdI6mLIc9WXK0nZuynLsf1OW42HtP41Z2heq1lOSMWunnWlbZz22l0nD0va+gLPvZtXat8HHH00BlBXNu7mn7LxjA89JVBdQnpNIcj0ESB/VFdcj2yTnYwWqc+yHsnPs2xHX2JdF94T/qK7JH6iuKcsAaFIFmJr7n/rBBpQV8a0ZLPkKYjF/0W6A7po0jOclkgNBXQyUbo34y6IRf3Cl5BfmR32R/2bML80T8+Ul4fxoUTgQrWyuScPWkdAO0fNdmdK6mHm7Rf06SHIfo/iXLZ45AZFzMc+aYKS1xYimFxvFOdV+ANXTlpaZias3W36lb7a2hbWDnQDroFdZT9JT1o56fC/TbsYAKE+7GbOfvVmy9X68/iwKddVUQFmC9c4/qc57Y2mktvzCdv1Z/VRjVr8kT1oNU9w8efUkPemeqifcT2cmrpZhqvs5AMpwHlxA+W5t1LNulOhbn4770ffM9El/ApSN58UVA+UANaxrAVGPBSRdDcgwBabpKiBU8jWkts03qx+rhKQu5SR9JVNVZupNRNJvsW9IIem/3PdEAWYfALOUh+0Z05oUwJoFTta+AN3bxNUx63GwPSeuVgAo+qB6HCluGnCmbWcC3F4lqr3XPWHqvc8XyRsCNNkIQHnGdynv7r9ojvtK084HamZUQIobrTcvruT6O2wsYBwPECfWTlytuJ/S44ieEde0AtH17GdyBs6fAE1kCahwgICyJPrEK/jW3Br1rV8jId1VM7P58YTVSH0zkCK6AtK6E1eHA6Fa44mraywCYzijMInB1KX8ZGZZ4hevN053QEJqe2Y5KQv5HVFOdxFV5TKSJxVTpIfehN+3OaSFtHZADNkDP+NkOBNEyxE5mzT4u7HaF6BxAFplTFwdA6CxOoDGAKgGQGMANGXthGjZBVbTB41Zu0Xjlh4zFPsZjRoXC4Bbpe2Xf6rn/a+eBpyVeUP0Ssc1+veOG3TVce26iGvI8YZrg4ra7rpIzrtvjuIYsSXlejgzs7xWM+0mbAzs8QygknscoHwC0XOqnkLkBKA7oq6nPy9zPfnbhHv63du9/0LUnAGbBXtV3+57G+DNWhGmqXt8yVQ43xigeN5LbfZ+ose9c2HzAPQnOOZLPeZdMB0uB9RASzyreoZ8Bc8JvsIy9EF/UAGilh/MzIsrAkwhUAorhwXrABoGgDyrfEQX0fdU8hPwT+lKi6QuA04Z6wBUKffJlxmnOWCVU+TUMpL+BTi3xmkbz7aAaKqsKyPlsQqKnhOi0H5nIDzkhch5Cb+RwmAag94/BZzdjOJmU0OAxjI3iQKbK6llUZxab65GiluNFLcKKW4VUtwqpLjVSHHjADRh7SRXWzsXxq1dFiQsXSfJdPrAQurc6Mczq+nM/Crblc9/bx9cmLL/cW3aPmRt2jF07WbHdYUJx3VvBj2DjzFc96kKuretaL//b4ii7yddo79TXA8nE67HACunuONhE5HaTkIUnfgDAC2PuZ9cJLqmjq5wPtOBj4+7Xhiy1fNKQdwzY13cO2tt3Pvq2mrP69+p3tdeLaZpezxvDtvf+k3c88HitGfu+rh3Dvznro155q+r9i0qTPk+49fEDjiCLKWl7qB7de+Ib8OjEX/R+0qgdJ0aCJZF/aXbVERJDdFRhSmIkApSWAVQcoqLfqgeCchJOT9epAZSBZGAujySL78mBGKTwgF16AZ/pLVxipyoABAicg7jEUaC8VMQIVJ55oUQ+qZvV5AysoTE6zaScH6QIt2LKJbVmPGDJp3IDhivriIq48i5BYYoOlclynpenaaoIUCragAt1Ch/gEatb6ukNlMqLW1hx02utBwP6zC52nLyFIVOelykU69K0am9ItTl+KbMMMgD/7fSoF8n867omci7olsi7+qMRfOu7qk6ruuo0y1ZPe8V6a42mn1EL8k56gbV/ejkmHvslJh7PJbjJyfcT0yRXZNGRZz/GCg5n2qPP3ctRJX04lHVnle6K56Z3XaZ6pnVUwm8dvLe0jVORePeD7tEPB/0UDwfw39+xlTPRz1j7k9z3gCLqbiN4FnfTfCWDgh5N90XDZRPVQPRyXJAmCwFpFpTWqhTAOiEcL70V6Vl/JxofrJn0BftpLXWmvSzio2XbgGkZwDGcYim64Kk7IzRZl2D8SyAiKqbwxSrECldiIj7mHHQoa0wUas00UJ+2ZojJ6Lo+yLRiUZxs6shQI3noKsRCTMdflyfrQFrxn/4gYsH19fY7Izt7VfKDlfxAIG922xeNmkWhlyIr4F//5N/6h5p7vuwoECJSp7omgc48EvfKPsPPA/ptpMRDzhAejuokmgN4HwP0bRRP9mXK+0H0Ca/zWLKFGsDbWhdQlL/IGnXlJM4upQiz5aSPBOA3gCQD31Adwmg9AKgJxibP5tMQE39XGIggxR08TSjSNcPaAz5ESMTUFOmDmGZgJoydQjrlw5oGVE+PqP5JWPq8NQvHVB8vltjRDkZNWPK1M+uXYBuBaBxABoHoCkAuhOAahb/hsMd0DTR81VES/lxlrHLlKnDR4gup6WIBB2AbgWgmwFo3OLZvs3iD8coMEdq5O+DHqiWErn5uaqxecDi1JZn2OfoCUC34UuoUQ/GVxPlSUTtZaJf49g9fmy4KeLPdaAzX+xLXD9PXo7lQXv2aaqZxDMBJoimJMnyrxjlTYU9ESfPTUny9JTI2eFAfnu0seJhjoh0EwHV0cauAxbqvBifbRhPpgY451USpfhFBKN4r0J5X/i9gr9HEeAsxXFzkWH8wShukhhM1DEc19JsPxOPL6Br8Pcbh+vN+icKTR3iYgD525cjh7HrZxfDuZWoMISolauZIgDZdai3BKCdBbsQ69uw752GojQad3tkEt9iGYLfCzjmBWy/A2ivNlxqVUhINfZSD0ewufUiJafWgHMF6nvZ2LWbeJgjjtvr61nYb9/X/wXllleIXJuJZgDStQrRbmOWUb7XY/lvbHwGM+Ka2r8Az2NoYBoizasAYgYAGYPG1p3nYgIkd8J+Z7hmGhei3JVo8DeifI/0G3X0MqA8rboGtvkMCbanAr4Elvcgqu4xIATnvxD1bgdME3mbGy+uwccN2di24Xz9cfwkXCOyDZqO67oF1oq/4LB9Pep/BmX/xr6pWA7iY3myN1zTEpSvxvJ29uPUWyRqg/pvwPZLRn2Tca39+Fw4/kzYg9j3MspewfJh+NfOhIjrPAq+f0LZc1yOz7kJ/ku5zsz0M0QXYP9TON+/sBzOKTsfh3rawe6B78uwGfi7HxkvWJs6MKGxPILGshUNahka3hw0oiAa+3eAZSj2z8e+VfDJvLLE45TR6IpQ/iZgrX1HE/uOh/8E+PK0MF8yBPAZzzNSoI7rcDz3KSvhtwMN/GuU3Vg3fYfPKbAS7N+AOi4FXLVv43CkQt03oTyK4wtQz1z4lKPONPafh/UTcM4klhtw/MdYrkeZCt9bcB0u+H+K9QTsC9gM+P4Gfq/Bj30WwT6HbUH9szliYvkyrpFnbfwSPp/weeG/DNaevwywj38XNobyJXwszhWDfcGfGWWXwb8Cy69Q9gH8RKy/y31yrF+Jeitx/vVY/wjHX2h8RFOmGhai19gtABKN7zdoNBxxBnDDQkN7C43rLpQnsJ35VW6sD+VtRJ8/Zg6GdhK1RsN7A/t3vaq3A/XcVYH+NfavYcP2QDTYKAOLdJp/KiMNu3dXhGThXH/AvmU4rwpbDP+buZy/FFBHMY5dCCA7ckSG76Ow7YhWA3G+k3HNaWz/maMulv1wvWEGxIigi3H+N1F2DHxbYfsW+OyAzwiOevyL6dj/Kc49h/usONfbiIrrEPm6GmD9FX8fhnAIjr0Ufklc33j4tdlIdCyu6zXsW1qC68Bx78G+QpbQCT6tcd7RKNewfRF8BuOzC6jjcnQnWuKLZ4+X0E2Z2kNoOOPQANehcdbOnICGNR8NqwyN/HQ0tK/QoN9BI/Ogsb7J22hktY9/0HAvgm81TMdxOi/hV8qNFMddhvJK7P8Sx6SxP+PDkKJM4H6vUU1GnA7C/1bYUlxXFfzvA0T9GCgcN8xw45tr9+DatqDOCwDeySiLwyczux2Obcnng81nSODzBfz5N1Ezgt8klO3k6+Nt7rfiPB/hfB8zoDjmLUC2nH9Fnctx/Kn44uGofCeOy/wWLOqofeMJf7vMoySB6GwcuwLlxbi2WfCZhfWFqIsj/VAAfRV8y3G9TfqBKVNHqAxA1yIy7XqH0oKGtQQNshiNLB92FxpXBRrqSDS2jWh89xt+GaH8POxPMnRowPw7NTq2GcApqKcF6p/Pczvh+NpynogN6yVo1HudToUfs+Cc/IbRKqxfgWvZjLruM4r5C+Su+oCi/Eouw3FHYT/3O/nu8VFY8nrtTSL4TcD2ToCf6VdyWov6P6gD6JtYX8kRl8vh2xnXW4BruQP1jkWdSSxP5TIWPut0+C8D0D2wvgT18wRzj+G4MbjGv2N5L9Jf/uK5Bn/nIMrONw41ZWr/QuOaiIbDfcfzAVl7bljYx88ueV6fTFTDeiHKtqIBrkND2+03QdYSedF4J/MxPCMFw8mwonHGEDmGoEG/hXQu8wtwOE8GTiwFHHMt9y+5Dk5jAcYNiL6/wfFtcQ3cXwvjXF/gi6Mr1jkyrUOdfXHcCVh/Ff4M+UCc4xTs3wzfwVwXzvMr7FuJfZ/jM/l5Cd8C1Nsd/seh7EYc/z3sGVgH7OsNnzKcYz4Dinre5c8Jv8ys7Sjris9Viv138I0q1M8Tl7+J8o6wnjhuJWwVp7tYPsvlqPdm+JwI64b1KzilxTVcj7+LhGsawPWaMtUooUHdgwYowBYAno+xzTdr/s0NzHDhqPM4+pp8w+eFvT2bRcMOoCHzXdXFaNwR1FHJMKIx8k2SGAOLfQk04DLU9QZ8d/sBJwYNPmtwDV/D5mG9AL7fwDfT10X5H3FMMVLNpaj/Xez/EtdSBrDPg297lJXgXJlnpkhdOWrOwfZ7fK1Y3oFjKhDFF+P6pqFf2RH+0/BlUIpzzcG+D3GNm1D3DE53cZ0vYX3erufCOMdp2F6C67mRH8vg3BO5PuzjG2jvYv9ybH+0BtkCAO6C6+LrX4+/5Qewhdh+D4AyvFfgmFVmimsqK3Fqi8ZzHhrmQBg/7jiX70gaxZnnjmiIY2ApjiDG7r0KMByLBtkHAAyFPYntV9AgZ2J9LI6/FI27O/btMXwRkLTEec9BQ/8frA9BHb/nCGUUsyyo43SU882W/ljvCr+z+Di+2YI0uA+DyY6csuKc3dift420tTeguQjgnmXsCxjn+x2Xoc7TAU8nBhr7O2F/9103sLjvDZB7AuhjeRt/Lzfq7svXwteA405BeTdcR+a5J0de1NGP/5Z8TlxLd5RxvW04Q8DfIZ/9TJk6YKHhX4hG/T7AErB8kR9bGEX71a4H8my7UllTpkzlUIh2HK34ud+9u/pkpkyZOkSEyJcZCG5smjJlypQpU6ZMmTJlypQpU6ZMmTJlypQpU6ZMmTJlypQpU6ZMmTJlypQpU6ZMmTJlypQpU6ZM/VJF9P/4VLlQmJjGNAAAAABJRU5ErkJggg==&quot; style=&quot;font-size: 10px;&quot;&gt;" style="text;html=1;strokeColor=none;fillColor=none;align=center;verticalAlign=middle;whiteSpace=wrap;rounded=0;fontSize=10;" parent="1" vertex="1">
          <mxGeometry x="111" y="9097" width="10" height="10" as="geometry" />
        </mxCell>
        <mxCell id="nctrB8vf493KiRFq7X1_-5" value="Funcionalidad" style="rounded=0;whiteSpace=wrap;html=1;fontSize=14;fontStyle=1;fillColor=#BAC8D3;fontColor=#000000;strokeColor=#BAC8D3;" parent="1" vertex="1">
          <mxGeometry x="10.379999999999999" y="7756" width="708.25" height="41" as="geometry" />
        </mxCell>
        <mxCell id="nctrB8vf493KiRFq7X1_-131" value="&lt;div style=&quot;font-size: 13px;&quot;&gt;&lt;div style=&quot;font-size: 13px;&quot;&gt;&lt;b style=&quot;font-size: 13px;&quot;&gt;Escenario 1:&amp;nbsp;Identifica informaciÃ³n de la tarjeta del cliente&lt;/b&gt;&lt;/div&gt;&lt;div style=&quot;font-size: 13px;&quot;&gt;&lt;b style=&quot;font-size: 13px;&quot;&gt;&lt;br style=&quot;font-size: 13px;&quot;&gt;&lt;/b&gt;&lt;/div&gt;&lt;div style=&quot;font-size: 13px;&quot;&gt;El Cajero automÃ¡tico ATM identifica a travÃ©s del PAN de la tarjeta la informaciÃ³n origen de la tarjeta&amp;nbsp;&lt;span style=&quot;background-color: initial; font-size: 13px;&quot;&gt;del cliente&lt;/span&gt;&lt;span style=&quot;background-color: initial; font-size: 13px;&quot;&gt;&amp;nbsp;&lt;/span&gt;&lt;span style=&quot;background-color: initial; font-size: 13px;&quot;&gt;a travÃ©s del BIN si es una tarjeta registrada activa en PLARD.&amp;nbsp;&lt;/span&gt;&lt;/div&gt;&lt;div style=&quot;font-size: 13px;&quot;&gt;&lt;span style=&quot;background-color: initial; font-size: 13px;&quot;&gt;&lt;br style=&quot;font-size: 13px;&quot;&gt;&lt;/span&gt;&lt;/div&gt;&lt;div style=&quot;font-size: 13px;&quot;&gt;&lt;i style=&quot;font-size: 13px; background-color: initial; border-color: var(--border-color); text-indent: -24px;&quot;&gt;1. BIN == PLARD&lt;/i&gt;&lt;span style=&quot;background-color: initial; font-size: 13px;&quot;&gt;&amp;nbsp;&lt;/span&gt;&lt;/div&gt;&lt;div style=&quot;font-size: 13px;&quot;&gt;&lt;br style=&quot;font-size: 13px;&quot;&gt;&lt;/div&gt;&lt;div style=&quot;font-size: 13px;&quot;&gt;&lt;i style=&quot;font-size: 13px; background-color: initial; border-color: var(--border-color); text-indent: -24px;&quot;&gt;2. Origen de la tarjeta = [Nacional || Internacional]&amp;nbsp;&lt;/i&gt;&lt;/div&gt;&lt;div style=&quot;font-size: 13px;&quot;&gt;&lt;br style=&quot;font-size: 13px;&quot;&gt;&lt;/div&gt;&lt;div style=&quot;font-size: 13px;&quot;&gt;&lt;div style=&quot;font-size: 13px;&quot;&gt;&lt;br style=&quot;font-size: 13px;&quot;&gt;&lt;/div&gt;&lt;/div&gt;&lt;/div&gt;" style="text;html=1;strokeColor=#000000;fillColor=none;align=left;verticalAlign=top;whiteSpace=wrap;rounded=0;fontSize=13;strokeWidth=2;fontColor=#000000;" parent="1" vertex="1">
          <mxGeometry x="10" y="8409" width="709" height="641" as="geometry" />
        </mxCell>
        <mxCell id="nctrB8vf493KiRFq7X1_-132" value="Escenarios" style="rounded=0;whiteSpace=wrap;html=1;fillColor=#BAC8D3;strokeColor=#BAC8D3;fontColor=#000000;fontSize=15;fontStyle=1;align=center;" parent="1" vertex="1">
          <mxGeometry x="8" y="8368" width="710" height="39" as="geometry" />
        </mxCell>
        <mxCell id="nctrB8vf493KiRFq7X1_-135" value="&lt;div style=&quot;font-size: 13px;&quot;&gt;&lt;br&gt;&lt;/div&gt;" style="text;html=1;strokeColor=#000000;fillColor=none;align=left;verticalAlign=top;whiteSpace=wrap;rounded=0;fontSize=12;strokeWidth=2;fontColor=#000000;" parent="1" vertex="1">
          <mxGeometry x="750" y="7798" width="929" height="560" as="geometry" />
        </mxCell>
        <mxCell id="nctrB8vf493KiRFq7X1_-136" value="Transacciones Altair" style="rounded=0;whiteSpace=wrap;html=1;fillColor=#BAC8D3;strokeColor=#BAC8D3;fontColor=#000000;fontSize=15;fontStyle=1;align=center;" parent="1" vertex="1">
          <mxGeometry x="749" y="7757" width="929" height="39" as="geometry" />
        </mxCell>
        <mxCell id="nctrB8vf493KiRFq7X1_-141" value="&lt;div style=&quot;font-size: 13px;&quot;&gt;&lt;div&gt;&lt;br&gt;&lt;/div&gt;&lt;/div&gt;" style="text;html=1;strokeColor=#000000;fillColor=none;align=left;verticalAlign=top;whiteSpace=wrap;rounded=0;fontSize=12;strokeWidth=2;fontColor=#000000;" parent="1" vertex="1">
          <mxGeometry x="11.75" y="7798" width="707.25" height="560" as="geometry" />
        </mxCell>
        <mxCell id="nctrB8vf493KiRFq7X1_-142" value="&lt;div style=&quot;text-align: justify; font-size: 13px;&quot;&gt;&lt;font face=&quot;Helvetica&quot; style=&quot;font-size: 13px;&quot;&gt;&lt;b style=&quot;font-size: 13px;&quot;&gt;Funcionalidad:&lt;/b&gt;&amp;nbsp;&lt;/font&gt;&lt;/div&gt;&lt;div style=&quot;text-align: justify; font-size: 13px;&quot;&gt;&lt;span style=&quot;background-color: initial;&quot;&gt;Como canal de cajeros automÃ¡ticos, quiero consultar la informaciÃ³n de la tarjeta fÃ­sica de un cliente que ingrese su dispositivo (Tarjeta) al medio ATM. Para validar la identidad del usuario y cobro o excepciÃ³n de comisiÃ³n por uso del ATM.&lt;/span&gt;&lt;br&gt;&lt;/div&gt;&lt;div style=&quot;text-align: justify; font-size: 13px;&quot;&gt;&lt;span style=&quot;background-color: initial; font-size: 13px;&quot;&gt;&lt;font style=&quot;font-size: 13px;&quot;&gt;&lt;br style=&quot;font-size: 13px;&quot;&gt;&lt;/font&gt;&lt;/span&gt;&lt;/div&gt;&lt;div style=&quot;font-size: 13px;&quot;&gt;&lt;font style=&quot;font-size: 13px;&quot;&gt;&lt;b style=&quot;font-size: 13px;&quot;&gt;Alcance&lt;/b&gt;: La funcionalidad aplica para:&lt;/font&gt;&lt;/div&gt;&lt;div style=&quot;font-size: 13px;&quot;&gt;&lt;ul style=&quot;font-size: 13px;&quot;&gt;&lt;li style=&quot;font-size: 13px;&quot;&gt;&lt;span style=&quot;background-color: initial; font-size: 13px;&quot;&gt;&lt;font style=&quot;font-size: 13px;&quot;&gt;Tarjeta de dÃ©bito (TDD)&amp;nbsp;de Clientes con Cuentas Aperturadas.&lt;/font&gt;&lt;/span&gt;&lt;/li&gt;&lt;li style=&quot;text-align: justify; font-size: 13px;&quot;&gt;&lt;font style=&quot;font-size: 13px;&quot;&gt;&lt;span style=&quot;background-color: initial; font-size: 13px;&quot;&gt;Tarjeta de dÃ©bito (TDD) asÃ­ como las cuentas de cheques asociadas a estas&lt;/span&gt;&lt;br style=&quot;font-size: 13px;&quot;&gt;&lt;/font&gt;&lt;/li&gt;&lt;li style=&quot;font-size: 13px;&quot;&gt;&lt;font style=&quot;font-size: 13px;&quot;&gt;Tarjeta de dÃ©bito (TDD) que estÃ©n o no migradas a la Plataforma de PLARD CLOUD / NO PAMPA&lt;/font&gt;&lt;/li&gt;&lt;li style=&quot;font-size: 13px;&quot;&gt;&lt;span style=&quot;background-color: initial; font-size: 13px;&quot;&gt;&lt;font style=&quot;font-size: 13px;&quot;&gt;PLARD MVP 2 (Full Debit)&lt;/font&gt;&lt;/span&gt;&lt;/li&gt;&lt;/ul&gt;&lt;/div&gt;&lt;div style=&quot;&quot;&gt;&lt;span style=&quot;background-color: initial;&quot;&gt;&lt;div style=&quot;&quot;&gt;&lt;div style=&quot;font-size: 13px;&quot;&gt;&lt;font style=&quot;font-size: 13px;&quot;&gt;&lt;b style=&quot;font-size: 13px;&quot;&gt;Reglas de Negocio:&lt;/b&gt;&lt;/font&gt;&lt;/div&gt;&lt;font style=&quot;&quot;&gt;&lt;span style=&quot;background-color: initial;&quot;&gt;&lt;ul style=&quot;&quot;&gt;&lt;li style=&quot;font-size: 13px;&quot;&gt;&lt;font style=&quot;font-size: 13px;&quot;&gt;PAN - NumeraciÃ³n del dispositivo fÃ­sico &quot;tarjeta&quot; (16 DÃ­gitos TDD).&lt;/font&gt;&lt;/li&gt;&lt;li style=&quot;font-size: 13px;&quot;&gt;BIN - 6 DÃ­gitos iniciales del PAN.&lt;/li&gt;&lt;li style=&quot;font-size: 13px;&quot;&gt;RIB -&amp;nbsp; Tarjetas de Grupo de Santander exentas de cobro de comisiÃ³n.&lt;/li&gt;&lt;li style=&quot;&quot;&gt;TRX LMCH - Consulta de RIBs desde ATM.&lt;/li&gt;&lt;li style=&quot;&quot;&gt;TRX LMM8 - Consulta de cliente (BUC) a partir de PAN.&lt;/li&gt;&lt;/ul&gt;&lt;/span&gt;&lt;/font&gt;&lt;/div&gt;&lt;div style=&quot;font-size: 13px;&quot;&gt;&lt;b style=&quot;background-color: initial; font-size: 13px;&quot;&gt;&lt;font style=&quot;font-size: 13px;&quot;&gt;Precondiciones&amp;nbsp;&lt;/font&gt;&lt;/b&gt;&lt;/div&gt;&lt;div style=&quot;font-size: 13px;&quot;&gt;&lt;ul style=&quot;font-size: 13px;&quot;&gt;&lt;li style=&quot;font-size: 13px;&quot;&gt;&lt;span style=&quot;background-color: initial; font-size: 13px;&quot;&gt;&lt;font style=&quot;font-size: 13px;&quot;&gt;TDD activa en PLARD / PAMPA&lt;/font&gt;&lt;/span&gt;&lt;/li&gt;&lt;/ul&gt;&lt;/div&gt;&lt;div style=&quot;font-size: 13px;&quot;&gt;&lt;div style=&quot;font-size: 13px;&quot;&gt;&lt;div style=&quot;font-size: 13px;&quot;&gt;&lt;b style=&quot;font-size: 13px;&quot;&gt;&lt;font style=&quot;font-size: 13px;&quot;&gt;Post-condiciones&lt;/font&gt;&lt;/b&gt;&lt;/div&gt;&lt;div style=&quot;font-size: 13px;&quot;&gt;&lt;ul type=&quot;disc&quot; style=&quot;margin-top: 0cm; font-size: 13px;&quot;&gt;&lt;li style=&quot;font-size: 13px;&quot;&gt;&lt;span style=&quot;background-color: initial; font-size: 13px;&quot;&gt;&lt;font style=&quot;font-size: 13px;&quot;&gt;ATM Santander valida tarjeta fÃ­sica de dÃ©bito&lt;/font&gt;&lt;/span&gt;&lt;/li&gt;&lt;li style=&quot;font-size: 13px;&quot;&gt;&lt;font style=&quot;font-size: 13px;&quot;&gt;ATM exenta comisiÃ³n para tarjetas del grupo Santander.&lt;/font&gt;&lt;/li&gt;&lt;li style=&quot;font-size: 13px;&quot;&gt;&lt;font style=&quot;font-size: 13px;&quot;&gt;ATM muestra menÃº de RED para tarjetas externas a Grupo Santander.&lt;/font&gt;&lt;/li&gt;&lt;/ul&gt;&lt;/div&gt;&lt;/div&gt;&lt;div style=&quot;font-size: 13px;&quot;&gt;&lt;div style=&quot;font-size: 13px;&quot;&gt;&lt;font style=&quot;font-size: 13px;&quot;&gt;&lt;b style=&quot;background-color: initial; font-size: 13px;&quot;&gt;Premisas&amp;nbsp;&lt;/b&gt;&lt;br style=&quot;font-size: 13px;&quot;&gt;&lt;/font&gt;&lt;/div&gt;&lt;div style=&quot;font-size: 13px;&quot;&gt;&lt;div style=&quot;font-size: 13px;&quot;&gt;&lt;ul style=&quot;font-size: 13px;&quot;&gt;&lt;li style=&quot;font-size: 13px;&quot;&gt;&lt;span style=&quot;background-color: initial; font-size: 13px;&quot;&gt;&lt;font style=&quot;font-size: 13px;&quot;&gt;Cliente TDD Santander cuente con una tarjeta fÃ­sica de dÃ©bito&lt;/font&gt;&lt;/span&gt;&lt;/li&gt;&lt;li style=&quot;font-size: 13px;&quot;&gt;&lt;font style=&quot;font-size: 13px;&quot;&gt;Tarjeta de debito TDD se encentra activa en PLARD&lt;/font&gt;&lt;/li&gt;&lt;li style=&quot;font-size: 13px;&quot;&gt;&lt;font style=&quot;font-size: 13px;&quot;&gt;Cliente TDD Santander inserta tarjeta fÃ­sica de dÃ©bito en la ranura ATM Santander.&amp;nbsp;&lt;/font&gt;&lt;br style=&quot;font-size: 13px;&quot;&gt;&lt;/li&gt;&lt;/ul&gt;&lt;/div&gt;&lt;div style=&quot;font-size: 13px;&quot;&gt;&lt;/div&gt;&lt;/div&gt;&lt;/div&gt;&lt;/div&gt;&lt;/span&gt;&lt;/div&gt;" style="text;html=1;strokeColor=#EEEEEE;fillColor=none;align=left;verticalAlign=top;whiteSpace=wrap;rounded=0;fontSize=13;" parent="1" vertex="1">
          <mxGeometry x="34.19" y="7808" width="660.62" height="498" as="geometry" />
        </mxCell>
        <mxCell id="f5v7L8ivjZZMmViwqrjB-188" value="API" style="rounded=0;whiteSpace=wrap;html=1;fillColor=#BAC8D3;strokeColor=#BAC8D3;fontColor=#000000;fontSize=15;fontStyle=1;align=center;" parent="1" vertex="1">
          <mxGeometry x="748" y="8368" width="931" height="39" as="geometry" />
        </mxCell>
        <mxCell id="f5v7L8ivjZZMmViwqrjB-191" value="&lt;div style=&quot;font-size: 13px;&quot;&gt;&lt;br&gt;&lt;/div&gt;" style="text;html=1;strokeColor=#000000;fillColor=none;align=left;verticalAlign=top;whiteSpace=wrap;rounded=0;fontSize=12;strokeWidth=2;fontColor=#000000;" parent="1" vertex="1">
          <mxGeometry x="749" y="8408" width="930" height="644" as="geometry" />
        </mxCell>
        <mxCell id="e3NCDMCvRsL2zf-5tcVL-529" value="&lt;font style=&quot;font-size: 15px;&quot;&gt;TRX (PAMPA)&lt;/font&gt;" style="rounded=0;whiteSpace=wrap;html=1;fontSize=14;fontStyle=1;verticalAlign=top;fillColor=#D1E1ED;" parent="1" vertex="1">
          <mxGeometry x="809" y="7850" width="300" height="28" as="geometry" />
        </mxCell>
        <mxCell id="e3NCDMCvRsL2zf-5tcVL-530" value="ENTRADA" style="shape=table;startSize=22;container=1;collapsible=0;childLayout=tableLayout;fontSize=10;fontStyle=1;fillColor=#BAC8D3;" parent="1" vertex="1">
          <mxGeometry x="1319" y="7878" width="300" height="69" as="geometry" />
        </mxCell>
        <mxCell id="e3NCDMCvRsL2zf-5tcVL-606" style="shape=tableRow;horizontal=0;startSize=0;swimlaneHead=0;swimlaneBody=0;strokeColor=inherit;top=0;left=0;bottom=0;right=0;collapsible=0;dropTarget=0;fillColor=none;points=[[0,0.5],[1,0.5]];portConstraint=eastwest;fontSize=10;" parent="e3NCDMCvRsL2zf-5tcVL-530" vertex="1">
          <mxGeometry y="22" width="300" height="23" as="geometry" />
        </mxCell>
        <mxCell id="e3NCDMCvRsL2zf-5tcVL-607" value="&lt;b&gt;&lt;font style=&quot;font-size: 10px;&quot;&gt;CAMPO&lt;/font&gt;&lt;/b&gt;" style="shape=partialRectangle;html=1;whiteSpace=wrap;connectable=0;strokeColor=inherit;overflow=hidden;fillColor=none;top=0;left=0;bottom=0;right=0;pointerEvents=1;fontSize=6;" parent="e3NCDMCvRsL2zf-5tcVL-606" vertex="1">
          <mxGeometry width="60" height="23" as="geometry">
            <mxRectangle width="60" height="23" as="alternateBounds" />
          </mxGeometry>
        </mxCell>
        <mxCell id="e3NCDMCvRsL2zf-5tcVL-608" value="&lt;b&gt;&lt;font style=&quot;font-size: 10px;&quot;&gt;TIPO&lt;/font&gt;&lt;/b&gt;" style="shape=partialRectangle;html=1;whiteSpace=wrap;connectable=0;strokeColor=inherit;overflow=hidden;fillColor=none;top=0;left=0;bottom=0;right=0;pointerEvents=1;fontSize=6;" parent="e3NCDMCvRsL2zf-5tcVL-606" vertex="1">
          <mxGeometry x="60" width="60" height="23" as="geometry">
            <mxRectangle width="60" height="23" as="alternateBounds" />
          </mxGeometry>
        </mxCell>
        <mxCell id="e3NCDMCvRsL2zf-5tcVL-609" value="&lt;font style=&quot;font-size: 10px;&quot;&gt;&lt;b style=&quot;font-size: 10px;&quot;&gt;LONGITUD&lt;/b&gt;&lt;/font&gt;" style="shape=partialRectangle;html=1;whiteSpace=wrap;connectable=0;strokeColor=inherit;overflow=hidden;fillColor=none;top=0;left=0;bottom=0;right=0;pointerEvents=1;fontSize=10;" parent="e3NCDMCvRsL2zf-5tcVL-606" vertex="1">
          <mxGeometry x="120" width="60" height="23" as="geometry">
            <mxRectangle width="60" height="23" as="alternateBounds" />
          </mxGeometry>
        </mxCell>
        <mxCell id="e3NCDMCvRsL2zf-5tcVL-610" value="&lt;b style=&quot;font-size: 10px;&quot;&gt;&lt;font style=&quot;font-size: 10px;&quot;&gt;USO&lt;/font&gt;&lt;/b&gt;" style="shape=partialRectangle;html=1;whiteSpace=wrap;connectable=0;strokeColor=inherit;overflow=hidden;fillColor=none;top=0;left=0;bottom=0;right=0;pointerEvents=1;fontSize=10;" parent="e3NCDMCvRsL2zf-5tcVL-606" vertex="1">
          <mxGeometry x="180" width="60" height="23" as="geometry">
            <mxRectangle width="60" height="23" as="alternateBounds" />
          </mxGeometry>
        </mxCell>
        <mxCell id="e3NCDMCvRsL2zf-5tcVL-611" value="&lt;font size=&quot;1&quot; style=&quot;&quot;&gt;&lt;b style=&quot;font-size: 8px;&quot;&gt;DESCRIPCION&lt;/b&gt;&lt;/font&gt;" style="shape=partialRectangle;html=1;whiteSpace=wrap;connectable=0;strokeColor=inherit;overflow=hidden;fillColor=none;top=0;left=0;bottom=0;right=0;pointerEvents=1;fontSize=10;" parent="e3NCDMCvRsL2zf-5tcVL-606" vertex="1">
          <mxGeometry x="240" width="60" height="23" as="geometry">
            <mxRectangle width="60" height="23" as="alternateBounds" />
          </mxGeometry>
        </mxCell>
        <mxCell id="e3NCDMCvRsL2zf-5tcVL-531" value="" style="shape=tableRow;horizontal=0;startSize=0;swimlaneHead=0;swimlaneBody=0;strokeColor=inherit;top=0;left=0;bottom=0;right=0;collapsible=0;dropTarget=0;fillColor=none;points=[[0,0.5],[1,0.5]];portConstraint=eastwest;" parent="e3NCDMCvRsL2zf-5tcVL-530" vertex="1">
          <mxGeometry y="45" width="300" height="24" as="geometry" />
        </mxCell>
        <mxCell id="e3NCDMCvRsL2zf-5tcVL-532" value="&lt;div style=&quot;text-align: left; font-size: 8px;&quot;&gt;&lt;font style=&quot;font-size: 8px;&quot;&gt;PAN&lt;/font&gt;&lt;br style=&quot;font-size: 8px;&quot;&gt;&lt;/div&gt;" style="shape=partialRectangle;html=1;whiteSpace=wrap;connectable=0;strokeColor=inherit;overflow=hidden;fillColor=none;top=0;left=0;bottom=0;right=0;pointerEvents=1;fontSize=8;" parent="e3NCDMCvRsL2zf-5tcVL-531" vertex="1">
          <mxGeometry width="60" height="24" as="geometry">
            <mxRectangle width="60" height="24" as="alternateBounds" />
          </mxGeometry>
        </mxCell>
        <mxCell id="e3NCDMCvRsL2zf-5tcVL-533" value="ENTRADA" style="shape=partialRectangle;html=1;whiteSpace=wrap;connectable=0;strokeColor=inherit;overflow=hidden;fillColor=none;top=0;left=0;bottom=0;right=0;pointerEvents=1;fontSize=6;" parent="e3NCDMCvRsL2zf-5tcVL-531" vertex="1">
          <mxGeometry x="60" width="60" height="24" as="geometry">
            <mxRectangle width="60" height="24" as="alternateBounds" />
          </mxGeometry>
        </mxCell>
        <mxCell id="e3NCDMCvRsL2zf-5tcVL-534" value="22 / string" style="shape=partialRectangle;html=1;whiteSpace=wrap;connectable=0;strokeColor=inherit;overflow=hidden;fillColor=none;top=0;left=0;bottom=0;right=0;pointerEvents=1;fontSize=8;" parent="e3NCDMCvRsL2zf-5tcVL-531" vertex="1">
          <mxGeometry x="120" width="60" height="24" as="geometry">
            <mxRectangle width="60" height="24" as="alternateBounds" />
          </mxGeometry>
        </mxCell>
        <mxCell id="e3NCDMCvRsL2zf-5tcVL-535" value="&lt;font style=&quot;font-size: 8px;&quot;&gt;Requerido&lt;/font&gt;" style="shape=partialRectangle;html=1;whiteSpace=wrap;connectable=0;strokeColor=inherit;overflow=hidden;fillColor=none;top=0;left=0;bottom=0;right=0;pointerEvents=1;fontSize=10;" parent="e3NCDMCvRsL2zf-5tcVL-531" vertex="1">
          <mxGeometry x="180" width="60" height="24" as="geometry">
            <mxRectangle width="60" height="24" as="alternateBounds" />
          </mxGeometry>
        </mxCell>
        <mxCell id="e3NCDMCvRsL2zf-5tcVL-536" value="&lt;font style=&quot;font-size: 3px;&quot;&gt;&lt;font style=&quot;font-size: 3px;&quot;&gt;NUMERO DE TARJETA&amp;nbsp;&lt;/font&gt;&lt;/font&gt;&lt;font style=&quot;font-size: 3px; background-color: initial;&quot;&gt;[&lt;/font&gt;&lt;span style=&quot;font-size: 3px; background-color: initial; text-align: left;&quot;&gt;deviceId PLARD]&lt;/span&gt;" style="shape=partialRectangle;html=1;whiteSpace=wrap;connectable=0;strokeColor=inherit;overflow=hidden;fillColor=none;top=0;left=0;bottom=0;right=0;pointerEvents=1;" parent="e3NCDMCvRsL2zf-5tcVL-531" vertex="1">
          <mxGeometry x="240" width="60" height="24" as="geometry">
            <mxRectangle width="60" height="24" as="alternateBounds" />
          </mxGeometry>
        </mxCell>
        <mxCell id="e3NCDMCvRsL2zf-5tcVL-617" value="&lt;font style=&quot;font-size: 15px;&quot;&gt;TRX (CAPTACION)&lt;/font&gt;" style="rounded=0;whiteSpace=wrap;html=1;fontSize=14;fontStyle=1;verticalAlign=top;fillColor=#D1E1ED;strokeColor=default;" parent="1" vertex="1">
          <mxGeometry x="1319" y="7850" width="300" height="28" as="geometry" />
        </mxCell>
        <mxCell id="e3NCDMCvRsL2zf-5tcVL-618" value="SALIDA" style="shape=table;startSize=22;container=1;collapsible=0;childLayout=tableLayout;fontSize=10;fontStyle=1;fillColor=#BAC8D3;" parent="1" vertex="1">
          <mxGeometry x="1320" y="7948" width="300" height="185" as="geometry" />
        </mxCell>
        <mxCell id="e3NCDMCvRsL2zf-5tcVL-619" style="shape=tableRow;horizontal=0;startSize=0;swimlaneHead=0;swimlaneBody=0;strokeColor=inherit;top=0;left=0;bottom=0;right=0;collapsible=0;dropTarget=0;fillColor=none;points=[[0,0.5],[1,0.5]];portConstraint=eastwest;fontSize=8;" parent="e3NCDMCvRsL2zf-5tcVL-618" vertex="1">
          <mxGeometry y="22" width="300" height="23" as="geometry" />
        </mxCell>
        <mxCell id="e3NCDMCvRsL2zf-5tcVL-620" value="&lt;b style=&quot;font-size: 8px;&quot;&gt;&lt;font style=&quot;font-size: 8px;&quot;&gt;CAMPO&lt;/font&gt;&lt;/b&gt;" style="shape=partialRectangle;html=1;whiteSpace=wrap;connectable=0;strokeColor=inherit;overflow=hidden;fillColor=none;top=0;left=0;bottom=0;right=0;pointerEvents=1;fontSize=8;" parent="e3NCDMCvRsL2zf-5tcVL-619" vertex="1">
          <mxGeometry width="60" height="23" as="geometry">
            <mxRectangle width="60" height="23" as="alternateBounds" />
          </mxGeometry>
        </mxCell>
        <mxCell id="e3NCDMCvRsL2zf-5tcVL-621" value="&lt;b style=&quot;font-size: 8px;&quot;&gt;&lt;font style=&quot;font-size: 8px;&quot;&gt;TIPO&lt;/font&gt;&lt;/b&gt;" style="shape=partialRectangle;html=1;whiteSpace=wrap;connectable=0;strokeColor=inherit;overflow=hidden;fillColor=none;top=0;left=0;bottom=0;right=0;pointerEvents=1;fontSize=8;" parent="e3NCDMCvRsL2zf-5tcVL-619" vertex="1">
          <mxGeometry x="60" width="60" height="23" as="geometry">
            <mxRectangle width="60" height="23" as="alternateBounds" />
          </mxGeometry>
        </mxCell>
        <mxCell id="e3NCDMCvRsL2zf-5tcVL-622" value="&lt;font style=&quot;font-size: 8px;&quot;&gt;&lt;b style=&quot;font-size: 8px;&quot;&gt;LONGITUD&lt;/b&gt;&lt;/font&gt;" style="shape=partialRectangle;html=1;whiteSpace=wrap;connectable=0;strokeColor=inherit;overflow=hidden;fillColor=none;top=0;left=0;bottom=0;right=0;pointerEvents=1;fontSize=8;" parent="e3NCDMCvRsL2zf-5tcVL-619" vertex="1">
          <mxGeometry x="120" width="60" height="23" as="geometry">
            <mxRectangle width="60" height="23" as="alternateBounds" />
          </mxGeometry>
        </mxCell>
        <mxCell id="e3NCDMCvRsL2zf-5tcVL-623" value="&lt;b style=&quot;font-size: 8px;&quot;&gt;&lt;font style=&quot;font-size: 8px;&quot;&gt;USO&lt;/font&gt;&lt;/b&gt;" style="shape=partialRectangle;html=1;whiteSpace=wrap;connectable=0;strokeColor=inherit;overflow=hidden;fillColor=none;top=0;left=0;bottom=0;right=0;pointerEvents=1;fontSize=8;" parent="e3NCDMCvRsL2zf-5tcVL-619" vertex="1">
          <mxGeometry x="180" width="60" height="23" as="geometry">
            <mxRectangle width="60" height="23" as="alternateBounds" />
          </mxGeometry>
        </mxCell>
        <mxCell id="e3NCDMCvRsL2zf-5tcVL-624" value="&lt;font style=&quot;font-size: 8px;&quot;&gt;&lt;b style=&quot;font-size: 8px;&quot;&gt;DESCRIPCION&lt;/b&gt;&lt;/font&gt;" style="shape=partialRectangle;html=1;whiteSpace=wrap;connectable=0;strokeColor=inherit;overflow=hidden;fillColor=none;top=0;left=0;bottom=0;right=0;pointerEvents=1;fontSize=8;" parent="e3NCDMCvRsL2zf-5tcVL-619" vertex="1">
          <mxGeometry x="240" width="60" height="23" as="geometry">
            <mxRectangle width="60" height="23" as="alternateBounds" />
          </mxGeometry>
        </mxCell>
        <mxCell id="e3NCDMCvRsL2zf-5tcVL-625" value="" style="shape=tableRow;horizontal=0;startSize=0;swimlaneHead=0;swimlaneBody=0;strokeColor=inherit;top=0;left=0;bottom=0;right=0;collapsible=0;dropTarget=0;fillColor=none;points=[[0,0.5],[1,0.5]];portConstraint=eastwest;fontSize=8;" parent="e3NCDMCvRsL2zf-5tcVL-618" vertex="1">
          <mxGeometry y="45" width="300" height="24" as="geometry" />
        </mxCell>
        <mxCell id="e3NCDMCvRsL2zf-5tcVL-626" value="&lt;div style=&quot;text-align: left; font-size: 8px;&quot;&gt;&lt;span style=&quot;font-size: 8px;&quot;&gt;CLIENTE&lt;/span&gt;&lt;br style=&quot;font-size: 8px;&quot;&gt;&lt;/div&gt;" style="shape=partialRectangle;html=1;whiteSpace=wrap;connectable=0;strokeColor=inherit;overflow=hidden;fillColor=none;top=0;left=0;bottom=0;right=0;pointerEvents=1;fontSize=8;" parent="e3NCDMCvRsL2zf-5tcVL-625" vertex="1">
          <mxGeometry width="60" height="24" as="geometry">
            <mxRectangle width="60" height="24" as="alternateBounds" />
          </mxGeometry>
        </mxCell>
        <mxCell id="e3NCDMCvRsL2zf-5tcVL-627" value="SALIDA" style="shape=partialRectangle;html=1;whiteSpace=wrap;connectable=0;strokeColor=inherit;overflow=hidden;fillColor=none;top=0;left=0;bottom=0;right=0;pointerEvents=1;fontSize=8;" parent="e3NCDMCvRsL2zf-5tcVL-625" vertex="1">
          <mxGeometry x="60" width="60" height="24" as="geometry">
            <mxRectangle width="60" height="24" as="alternateBounds" />
          </mxGeometry>
        </mxCell>
        <mxCell id="e3NCDMCvRsL2zf-5tcVL-628" value="&lt;font style=&quot;font-size: 8px;&quot;&gt;8 / string&lt;/font&gt;" style="shape=partialRectangle;html=1;whiteSpace=wrap;connectable=0;strokeColor=inherit;overflow=hidden;fillColor=none;top=0;left=0;bottom=0;right=0;pointerEvents=1;fontSize=8;" parent="e3NCDMCvRsL2zf-5tcVL-625" vertex="1">
          <mxGeometry x="120" width="60" height="24" as="geometry">
            <mxRectangle width="60" height="24" as="alternateBounds" />
          </mxGeometry>
        </mxCell>
        <mxCell id="e3NCDMCvRsL2zf-5tcVL-629" value="Opcional" style="shape=partialRectangle;html=1;whiteSpace=wrap;connectable=0;strokeColor=inherit;overflow=hidden;fillColor=none;top=0;left=0;bottom=0;right=0;pointerEvents=1;fontSize=8;" parent="e3NCDMCvRsL2zf-5tcVL-625" vertex="1">
          <mxGeometry x="180" width="60" height="24" as="geometry">
            <mxRectangle width="60" height="24" as="alternateBounds" />
          </mxGeometry>
        </mxCell>
        <mxCell id="e3NCDMCvRsL2zf-5tcVL-630" value="&lt;table style=&quot;text-align: left; width: 726pt; font-size: 5px;&quot; width=&quot;967&quot; cellspacing=&quot;0&quot; cellpadding=&quot;0&quot; border=&quot;0&quot;&gt;&lt;tbody style=&quot;&quot;&gt;&lt;tr style=&quot;height: 10.5pt;&quot; height=&quot;14&quot;&gt;&lt;td style=&quot;border-top: none; border-left: none;&quot; class=&quot;xl73&quot;&gt;&lt;font style=&quot;font-size: 5px;&quot;&gt;&lt;font style=&quot;font-size: 5px;&quot;&gt;NUMERO DE&lt;br style=&quot;&quot;&gt;CLIENTE&amp;nbsp;&amp;nbsp;&lt;br style=&quot;&quot;&gt;&lt;/font&gt;&lt;br style=&quot;&quot;&gt;&lt;/font&gt;&lt;/td&gt;&lt;/tr&gt;&lt;/tbody&gt;&lt;/table&gt;" style="shape=partialRectangle;html=1;whiteSpace=wrap;connectable=0;strokeColor=inherit;overflow=hidden;fillColor=none;top=0;left=0;bottom=0;right=0;pointerEvents=1;fontSize=8;" parent="e3NCDMCvRsL2zf-5tcVL-625" vertex="1">
          <mxGeometry x="240" width="60" height="24" as="geometry">
            <mxRectangle width="60" height="24" as="alternateBounds" />
          </mxGeometry>
        </mxCell>
        <mxCell id="e3NCDMCvRsL2zf-5tcVL-631" value="" style="shape=tableRow;horizontal=0;startSize=0;swimlaneHead=0;swimlaneBody=0;strokeColor=inherit;top=0;left=0;bottom=0;right=0;collapsible=0;dropTarget=0;fillColor=none;points=[[0,0.5],[1,0.5]];portConstraint=eastwest;fontSize=8;" parent="e3NCDMCvRsL2zf-5tcVL-618" vertex="1">
          <mxGeometry y="69" width="300" height="23" as="geometry" />
        </mxCell>
        <mxCell id="e3NCDMCvRsL2zf-5tcVL-632" value="&lt;span style=&quot;font-size: 8px; text-align: left;&quot;&gt;CODPART&lt;/span&gt;" style="shape=partialRectangle;html=1;whiteSpace=wrap;connectable=0;strokeColor=inherit;overflow=hidden;fillColor=none;top=0;left=0;bottom=0;right=0;pointerEvents=1;fontSize=8;" parent="e3NCDMCvRsL2zf-5tcVL-631" vertex="1">
          <mxGeometry width="60" height="23" as="geometry">
            <mxRectangle width="60" height="23" as="alternateBounds" />
          </mxGeometry>
        </mxCell>
        <mxCell id="e3NCDMCvRsL2zf-5tcVL-633" value="SALIDA" style="shape=partialRectangle;html=1;whiteSpace=wrap;connectable=0;strokeColor=inherit;overflow=hidden;fillColor=none;top=0;left=0;bottom=0;right=0;pointerEvents=1;fontSize=8;" parent="e3NCDMCvRsL2zf-5tcVL-631" vertex="1">
          <mxGeometry x="60" width="60" height="23" as="geometry">
            <mxRectangle width="60" height="23" as="alternateBounds" />
          </mxGeometry>
        </mxCell>
        <mxCell id="e3NCDMCvRsL2zf-5tcVL-634" value="2 / string" style="shape=partialRectangle;html=1;whiteSpace=wrap;connectable=0;strokeColor=inherit;overflow=hidden;fillColor=none;top=0;left=0;bottom=0;right=0;pointerEvents=1;fontSize=8;" parent="e3NCDMCvRsL2zf-5tcVL-631" vertex="1">
          <mxGeometry x="120" width="60" height="23" as="geometry">
            <mxRectangle width="60" height="23" as="alternateBounds" />
          </mxGeometry>
        </mxCell>
        <mxCell id="e3NCDMCvRsL2zf-5tcVL-635" value="Opcional" style="shape=partialRectangle;html=1;whiteSpace=wrap;connectable=0;strokeColor=inherit;overflow=hidden;fillColor=none;top=0;left=0;bottom=0;right=0;pointerEvents=1;fontSize=8;" parent="e3NCDMCvRsL2zf-5tcVL-631" vertex="1">
          <mxGeometry x="180" width="60" height="23" as="geometry">
            <mxRectangle width="60" height="23" as="alternateBounds" />
          </mxGeometry>
        </mxCell>
        <mxCell id="e3NCDMCvRsL2zf-5tcVL-636" value="&lt;span style=&quot;text-align: left;&quot;&gt;&lt;font style=&quot;font-size: 5px;&quot;&gt;CODIGO DE PARTICIPA&lt;/font&gt;&lt;/span&gt;" style="shape=partialRectangle;html=1;whiteSpace=wrap;connectable=0;strokeColor=inherit;overflow=hidden;fillColor=none;top=0;left=0;bottom=0;right=0;pointerEvents=1;fontSize=8;" parent="e3NCDMCvRsL2zf-5tcVL-631" vertex="1">
          <mxGeometry x="240" width="60" height="23" as="geometry">
            <mxRectangle width="60" height="23" as="alternateBounds" />
          </mxGeometry>
        </mxCell>
        <mxCell id="e3NCDMCvRsL2zf-5tcVL-637" value="" style="shape=tableRow;horizontal=0;startSize=0;swimlaneHead=0;swimlaneBody=0;strokeColor=inherit;top=0;left=0;bottom=0;right=0;collapsible=0;dropTarget=0;fillColor=none;points=[[0,0.5],[1,0.5]];portConstraint=eastwest;fontSize=8;" parent="e3NCDMCvRsL2zf-5tcVL-618" vertex="1">
          <mxGeometry y="92" width="300" height="23" as="geometry" />
        </mxCell>
        <mxCell id="e3NCDMCvRsL2zf-5tcVL-638" value="&lt;div style=&quot;font-size: 8px;&quot;&gt;&lt;span style=&quot;font-size: 8px; text-align: left;&quot;&gt;ORDPART&lt;/span&gt;&lt;br style=&quot;font-size: 8px;&quot;&gt;&lt;/div&gt;" style="shape=partialRectangle;html=1;whiteSpace=wrap;connectable=0;strokeColor=inherit;overflow=hidden;fillColor=none;top=0;left=0;bottom=0;right=0;pointerEvents=1;fontSize=8;" parent="e3NCDMCvRsL2zf-5tcVL-637" vertex="1">
          <mxGeometry width="60" height="23" as="geometry">
            <mxRectangle width="60" height="23" as="alternateBounds" />
          </mxGeometry>
        </mxCell>
        <mxCell id="e3NCDMCvRsL2zf-5tcVL-639" value="SALIDA" style="shape=partialRectangle;html=1;whiteSpace=wrap;connectable=0;strokeColor=inherit;overflow=hidden;fillColor=none;top=0;left=0;bottom=0;right=0;pointerEvents=1;fontSize=8;" parent="e3NCDMCvRsL2zf-5tcVL-637" vertex="1">
          <mxGeometry x="60" width="60" height="23" as="geometry">
            <mxRectangle width="60" height="23" as="alternateBounds" />
          </mxGeometry>
        </mxCell>
        <mxCell id="e3NCDMCvRsL2zf-5tcVL-640" value="3 / num" style="shape=partialRectangle;html=1;whiteSpace=wrap;connectable=0;strokeColor=inherit;overflow=hidden;fillColor=none;top=0;left=0;bottom=0;right=0;pointerEvents=1;fontSize=8;" parent="e3NCDMCvRsL2zf-5tcVL-637" vertex="1">
          <mxGeometry x="120" width="60" height="23" as="geometry">
            <mxRectangle width="60" height="23" as="alternateBounds" />
          </mxGeometry>
        </mxCell>
        <mxCell id="e3NCDMCvRsL2zf-5tcVL-641" value="Opcional" style="shape=partialRectangle;html=1;whiteSpace=wrap;connectable=0;strokeColor=inherit;overflow=hidden;fillColor=none;top=0;left=0;bottom=0;right=0;pointerEvents=1;fontSize=8;" parent="e3NCDMCvRsL2zf-5tcVL-637" vertex="1">
          <mxGeometry x="180" width="60" height="23" as="geometry">
            <mxRectangle width="60" height="23" as="alternateBounds" />
          </mxGeometry>
        </mxCell>
        <mxCell id="e3NCDMCvRsL2zf-5tcVL-642" value="&lt;span style=&quot;text-align: left;&quot;&gt;&lt;font style=&quot;font-size: 5px;&quot;&gt;ORDEN DE PARTICIPAA&lt;/font&gt;&lt;/span&gt;" style="shape=partialRectangle;html=1;whiteSpace=wrap;connectable=0;strokeColor=inherit;overflow=hidden;fillColor=none;top=0;left=0;bottom=0;right=0;pointerEvents=1;fontSize=8;" parent="e3NCDMCvRsL2zf-5tcVL-637" vertex="1">
          <mxGeometry x="240" width="60" height="23" as="geometry">
            <mxRectangle width="60" height="23" as="alternateBounds" />
          </mxGeometry>
        </mxCell>
        <mxCell id="e3NCDMCvRsL2zf-5tcVL-643" value="" style="shape=tableRow;horizontal=0;startSize=0;swimlaneHead=0;swimlaneBody=0;strokeColor=inherit;top=0;left=0;bottom=0;right=0;collapsible=0;dropTarget=0;fillColor=none;points=[[0,0.5],[1,0.5]];portConstraint=eastwest;fontSize=8;" parent="e3NCDMCvRsL2zf-5tcVL-618" vertex="1">
          <mxGeometry y="115" width="300" height="24" as="geometry" />
        </mxCell>
        <mxCell id="e3NCDMCvRsL2zf-5tcVL-644" value="&lt;div style=&quot;text-align: left; font-size: 8px;&quot;&gt;&lt;span style=&quot;font-size: 8px;&quot;&gt;CODENT&lt;/span&gt;&lt;span style=&quot;font-size: 8px;&quot;&gt;&amp;nbsp;&lt;/span&gt;&lt;br style=&quot;font-size: 8px;&quot;&gt;&lt;/div&gt;" style="shape=partialRectangle;html=1;whiteSpace=wrap;connectable=0;strokeColor=inherit;overflow=hidden;fillColor=none;top=0;left=0;bottom=0;right=0;pointerEvents=1;fontSize=8;" parent="e3NCDMCvRsL2zf-5tcVL-643" vertex="1">
          <mxGeometry width="60" height="24" as="geometry">
            <mxRectangle width="60" height="24" as="alternateBounds" />
          </mxGeometry>
        </mxCell>
        <mxCell id="e3NCDMCvRsL2zf-5tcVL-645" value="SALIDA" style="shape=partialRectangle;html=1;whiteSpace=wrap;connectable=0;strokeColor=inherit;overflow=hidden;fillColor=none;top=0;left=0;bottom=0;right=0;pointerEvents=1;fontSize=8;" parent="e3NCDMCvRsL2zf-5tcVL-643" vertex="1">
          <mxGeometry x="60" width="60" height="24" as="geometry">
            <mxRectangle width="60" height="24" as="alternateBounds" />
          </mxGeometry>
        </mxCell>
        <mxCell id="e3NCDMCvRsL2zf-5tcVL-646" value="4 / string" style="shape=partialRectangle;html=1;whiteSpace=wrap;connectable=0;strokeColor=inherit;overflow=hidden;fillColor=none;top=0;left=0;bottom=0;right=0;pointerEvents=1;fontSize=8;" parent="e3NCDMCvRsL2zf-5tcVL-643" vertex="1">
          <mxGeometry x="120" width="60" height="24" as="geometry">
            <mxRectangle width="60" height="24" as="alternateBounds" />
          </mxGeometry>
        </mxCell>
        <mxCell id="e3NCDMCvRsL2zf-5tcVL-647" value="Opcional" style="shape=partialRectangle;html=1;whiteSpace=wrap;connectable=0;strokeColor=inherit;overflow=hidden;fillColor=none;top=0;left=0;bottom=0;right=0;pointerEvents=1;fontSize=8;" parent="e3NCDMCvRsL2zf-5tcVL-643" vertex="1">
          <mxGeometry x="180" width="60" height="24" as="geometry">
            <mxRectangle width="60" height="24" as="alternateBounds" />
          </mxGeometry>
        </mxCell>
        <mxCell id="e3NCDMCvRsL2zf-5tcVL-648" value="&lt;span style=&quot;text-align: left;&quot;&gt;&lt;font style=&quot;font-size: 5px;&quot;&gt;ENTIDAD&lt;/font&gt;&lt;/span&gt;" style="shape=partialRectangle;html=1;whiteSpace=wrap;connectable=0;strokeColor=inherit;overflow=hidden;fillColor=none;top=0;left=0;bottom=0;right=0;pointerEvents=1;fontSize=8;" parent="e3NCDMCvRsL2zf-5tcVL-643" vertex="1">
          <mxGeometry x="240" width="60" height="24" as="geometry">
            <mxRectangle width="60" height="24" as="alternateBounds" />
          </mxGeometry>
        </mxCell>
        <mxCell id="e3NCDMCvRsL2zf-5tcVL-649" value="" style="shape=tableRow;horizontal=0;startSize=0;swimlaneHead=0;swimlaneBody=0;strokeColor=inherit;top=0;left=0;bottom=0;right=0;collapsible=0;dropTarget=0;fillColor=none;points=[[0,0.5],[1,0.5]];portConstraint=eastwest;fontSize=8;" parent="e3NCDMCvRsL2zf-5tcVL-618" vertex="1">
          <mxGeometry y="139" width="300" height="23" as="geometry" />
        </mxCell>
        <mxCell id="e3NCDMCvRsL2zf-5tcVL-650" value="&lt;div style=&quot;text-align: left; font-size: 8px;&quot;&gt;&lt;span style=&quot;font-size: 8px;&quot;&gt;CODOFI&lt;/span&gt;&lt;span style=&quot;font-size: 8px;&quot;&gt;&amp;nbsp;&lt;/span&gt;&lt;br style=&quot;font-size: 8px;&quot;&gt;&lt;/div&gt;" style="shape=partialRectangle;html=1;whiteSpace=wrap;connectable=0;strokeColor=inherit;overflow=hidden;fillColor=none;top=0;left=0;bottom=0;right=0;pointerEvents=1;fontSize=8;" parent="e3NCDMCvRsL2zf-5tcVL-649" vertex="1">
          <mxGeometry width="60" height="23" as="geometry">
            <mxRectangle width="60" height="23" as="alternateBounds" />
          </mxGeometry>
        </mxCell>
        <mxCell id="e3NCDMCvRsL2zf-5tcVL-651" value="SALIDA" style="shape=partialRectangle;html=1;whiteSpace=wrap;connectable=0;strokeColor=inherit;overflow=hidden;fillColor=none;top=0;left=0;bottom=0;right=0;pointerEvents=1;fontSize=8;" parent="e3NCDMCvRsL2zf-5tcVL-649" vertex="1">
          <mxGeometry x="60" width="60" height="23" as="geometry">
            <mxRectangle width="60" height="23" as="alternateBounds" />
          </mxGeometry>
        </mxCell>
        <mxCell id="e3NCDMCvRsL2zf-5tcVL-652" value="4 / string" style="shape=partialRectangle;html=1;whiteSpace=wrap;connectable=0;strokeColor=inherit;overflow=hidden;fillColor=none;top=0;left=0;bottom=0;right=0;pointerEvents=1;fontSize=8;" parent="e3NCDMCvRsL2zf-5tcVL-649" vertex="1">
          <mxGeometry x="120" width="60" height="23" as="geometry">
            <mxRectangle width="60" height="23" as="alternateBounds" />
          </mxGeometry>
        </mxCell>
        <mxCell id="e3NCDMCvRsL2zf-5tcVL-653" value="Opcional" style="shape=partialRectangle;html=1;whiteSpace=wrap;connectable=0;strokeColor=inherit;overflow=hidden;fillColor=none;top=0;left=0;bottom=0;right=0;pointerEvents=1;fontSize=8;" parent="e3NCDMCvRsL2zf-5tcVL-649" vertex="1">
          <mxGeometry x="180" width="60" height="23" as="geometry">
            <mxRectangle width="60" height="23" as="alternateBounds" />
          </mxGeometry>
        </mxCell>
        <mxCell id="e3NCDMCvRsL2zf-5tcVL-654" value="&lt;table style=&quot;text-align: left; width: 726pt; font-size: 5px;&quot; width=&quot;967&quot; cellspacing=&quot;0&quot; cellpadding=&quot;0&quot; border=&quot;0&quot;&gt;&lt;tbody style=&quot;&quot;&gt;&lt;tr style=&quot;height: 10.5pt;&quot; height=&quot;14&quot;&gt;&lt;td style=&quot;border-top: none; border-left: none;&quot; class=&quot;xl73&quot;&gt;&lt;font style=&quot;font-size: 5px;&quot;&gt;&lt;font style=&quot;font-size: 5px;&quot;&gt;SUCURSAL CTA CHQ&lt;/font&gt;&lt;br style=&quot;&quot;&gt;&lt;/font&gt;&lt;/td&gt;&lt;/tr&gt;&lt;/tbody&gt;&lt;/table&gt;" style="shape=partialRectangle;html=1;whiteSpace=wrap;connectable=0;strokeColor=inherit;overflow=hidden;fillColor=none;top=0;left=0;bottom=0;right=0;pointerEvents=1;fontSize=8;" parent="e3NCDMCvRsL2zf-5tcVL-649" vertex="1">
          <mxGeometry x="240" width="60" height="23" as="geometry">
            <mxRectangle width="60" height="23" as="alternateBounds" />
          </mxGeometry>
        </mxCell>
        <mxCell id="e3NCDMCvRsL2zf-5tcVL-766" style="shape=tableRow;horizontal=0;startSize=0;swimlaneHead=0;swimlaneBody=0;strokeColor=inherit;top=0;left=0;bottom=0;right=0;collapsible=0;dropTarget=0;fillColor=none;points=[[0,0.5],[1,0.5]];portConstraint=eastwest;fontSize=8;" parent="e3NCDMCvRsL2zf-5tcVL-618" vertex="1">
          <mxGeometry y="162" width="300" height="23" as="geometry" />
        </mxCell>
        <mxCell id="e3NCDMCvRsL2zf-5tcVL-767" value="&lt;span style=&quot;font-size: 8px; text-align: left;&quot;&gt;CUENTA&lt;/span&gt;&lt;span style=&quot;font-size: 8px; text-align: left;&quot;&gt;&amp;nbsp;&lt;/span&gt;" style="shape=partialRectangle;html=1;whiteSpace=wrap;connectable=0;strokeColor=inherit;overflow=hidden;fillColor=none;top=0;left=0;bottom=0;right=0;pointerEvents=1;fontSize=8;" parent="e3NCDMCvRsL2zf-5tcVL-766" vertex="1">
          <mxGeometry width="60" height="23" as="geometry">
            <mxRectangle width="60" height="23" as="alternateBounds" />
          </mxGeometry>
        </mxCell>
        <mxCell id="e3NCDMCvRsL2zf-5tcVL-768" value="SALIDA" style="shape=partialRectangle;html=1;whiteSpace=wrap;connectable=0;strokeColor=inherit;overflow=hidden;fillColor=none;top=0;left=0;bottom=0;right=0;pointerEvents=1;fontSize=8;" parent="e3NCDMCvRsL2zf-5tcVL-766" vertex="1">
          <mxGeometry x="60" width="60" height="23" as="geometry">
            <mxRectangle width="60" height="23" as="alternateBounds" />
          </mxGeometry>
        </mxCell>
        <mxCell id="e3NCDMCvRsL2zf-5tcVL-769" value="12 / string" style="shape=partialRectangle;html=1;whiteSpace=wrap;connectable=0;strokeColor=inherit;overflow=hidden;fillColor=none;top=0;left=0;bottom=0;right=0;pointerEvents=1;fontSize=8;" parent="e3NCDMCvRsL2zf-5tcVL-766" vertex="1">
          <mxGeometry x="120" width="60" height="23" as="geometry">
            <mxRectangle width="60" height="23" as="alternateBounds" />
          </mxGeometry>
        </mxCell>
        <mxCell id="e3NCDMCvRsL2zf-5tcVL-770" value="Opcional" style="shape=partialRectangle;html=1;whiteSpace=wrap;connectable=0;strokeColor=inherit;overflow=hidden;fillColor=none;top=0;left=0;bottom=0;right=0;pointerEvents=1;fontSize=8;" parent="e3NCDMCvRsL2zf-5tcVL-766" vertex="1">
          <mxGeometry x="180" width="60" height="23" as="geometry">
            <mxRectangle width="60" height="23" as="alternateBounds" />
          </mxGeometry>
        </mxCell>
        <mxCell id="e3NCDMCvRsL2zf-5tcVL-771" value="&lt;table style=&quot;text-align: left; width: 726pt; font-size: 5px;&quot; width=&quot;967&quot; cellspacing=&quot;0&quot; cellpadding=&quot;0&quot; border=&quot;0&quot;&gt;&lt;tbody style=&quot;&quot;&gt;&lt;tr style=&quot;height: 10.5pt;&quot; height=&quot;14&quot;&gt;&lt;td style=&quot;border-top: none; border-left: none;&quot; class=&quot;xl73&quot;&gt;&lt;font style=&quot;font-size: 5px;&quot;&gt;&lt;font style=&quot;font-size: 5px;&quot;&gt;CUENTA CHEQUES&lt;/font&gt;&lt;br style=&quot;&quot;&gt;&lt;/font&gt;&lt;/td&gt;&lt;/tr&gt;&lt;/tbody&gt;&lt;/table&gt;" style="shape=partialRectangle;html=1;whiteSpace=wrap;connectable=0;strokeColor=inherit;overflow=hidden;fillColor=none;top=0;left=0;bottom=0;right=0;pointerEvents=1;fontSize=8;" parent="e3NCDMCvRsL2zf-5tcVL-766" vertex="1">
          <mxGeometry x="240" width="60" height="23" as="geometry">
            <mxRectangle width="60" height="23" as="alternateBounds" />
          </mxGeometry>
        </mxCell>
        <mxCell id="e3NCDMCvRsL2zf-5tcVL-925" value="Request:" style="shape=table;startSize=40;container=1;collapsible=0;childLayout=tableLayout;fontStyle=1;fillColor=#BAC8D3;fontColor=#333333;strokeColor=default;sketch=1;curveFitting=1;jiggle=2;" parent="1" vertex="1">
          <mxGeometry x="774.5" y="8470" width="430" height="180" as="geometry" />
        </mxCell>
        <mxCell id="e3NCDMCvRsL2zf-5tcVL-926" value="" style="shape=tableRow;horizontal=0;startSize=0;swimlaneHead=0;swimlaneBody=0;strokeColor=inherit;top=0;left=0;bottom=0;right=0;collapsible=0;dropTarget=0;fillColor=none;points=[[0,0.5],[1,0.5]];portConstraint=eastwest;" parent="e3NCDMCvRsL2zf-5tcVL-925" vertex="1">
          <mxGeometry y="40" width="430" height="70" as="geometry" />
        </mxCell>
        <mxCell id="e3NCDMCvRsL2zf-5tcVL-927" value="&lt;span style=&quot;text-align: left;&quot;&gt;&lt;b&gt;Nombre del Campo&lt;/b&gt;&lt;/span&gt;" style="shape=partialRectangle;html=1;whiteSpace=wrap;connectable=0;strokeColor=inherit;overflow=hidden;fillColor=none;top=0;left=0;bottom=0;right=0;pointerEvents=1;" parent="e3NCDMCvRsL2zf-5tcVL-926" vertex="1">
          <mxGeometry width="86" height="70" as="geometry">
            <mxRectangle width="86" height="70" as="alternateBounds" />
          </mxGeometry>
        </mxCell>
        <mxCell id="e3NCDMCvRsL2zf-5tcVL-928" value="&lt;b&gt;DescripciÃ³n del Campo&lt;/b&gt;" style="shape=partialRectangle;html=1;whiteSpace=wrap;connectable=0;strokeColor=inherit;overflow=hidden;fillColor=none;top=0;left=0;bottom=0;right=0;pointerEvents=1;" parent="e3NCDMCvRsL2zf-5tcVL-926" vertex="1">
          <mxGeometry x="86" width="86" height="70" as="geometry">
            <mxRectangle width="86" height="70" as="alternateBounds" />
          </mxGeometry>
        </mxCell>
        <mxCell id="e3NCDMCvRsL2zf-5tcVL-929" value="&lt;b&gt;Obligatorio&lt;/b&gt;" style="shape=partialRectangle;html=1;whiteSpace=wrap;connectable=0;strokeColor=inherit;overflow=hidden;fillColor=none;top=0;left=0;bottom=0;right=0;pointerEvents=1;" parent="e3NCDMCvRsL2zf-5tcVL-926" vertex="1">
          <mxGeometry x="172" width="86" height="70" as="geometry">
            <mxRectangle width="86" height="70" as="alternateBounds" />
          </mxGeometry>
        </mxCell>
        <mxCell id="e3NCDMCvRsL2zf-5tcVL-930" value="&lt;b&gt;Longitud / Formato&lt;/b&gt;" style="shape=partialRectangle;html=1;whiteSpace=wrap;connectable=0;strokeColor=inherit;overflow=hidden;fillColor=none;top=0;left=0;bottom=0;right=0;pointerEvents=1;" parent="e3NCDMCvRsL2zf-5tcVL-926" vertex="1">
          <mxGeometry x="258" width="87" height="70" as="geometry">
            <mxRectangle width="87" height="70" as="alternateBounds" />
          </mxGeometry>
        </mxCell>
        <mxCell id="e3NCDMCvRsL2zf-5tcVL-931" value="&lt;b&gt;Tipo&lt;/b&gt;" style="shape=partialRectangle;html=1;whiteSpace=wrap;connectable=0;strokeColor=inherit;overflow=hidden;fillColor=none;top=0;left=0;bottom=0;right=0;pointerEvents=1;" parent="e3NCDMCvRsL2zf-5tcVL-926" vertex="1">
          <mxGeometry x="345" width="85" height="70" as="geometry">
            <mxRectangle width="85" height="70" as="alternateBounds" />
          </mxGeometry>
        </mxCell>
        <mxCell id="e3NCDMCvRsL2zf-5tcVL-932" value="" style="shape=tableRow;horizontal=0;startSize=0;swimlaneHead=0;swimlaneBody=0;strokeColor=inherit;top=0;left=0;bottom=0;right=0;collapsible=0;dropTarget=0;fillColor=none;points=[[0,0.5],[1,0.5]];portConstraint=eastwest;" parent="e3NCDMCvRsL2zf-5tcVL-925" vertex="1">
          <mxGeometry y="110" width="430" height="70" as="geometry" />
        </mxCell>
        <mxCell id="e3NCDMCvRsL2zf-5tcVL-933" value="" style="shape=partialRectangle;html=1;whiteSpace=wrap;connectable=0;strokeColor=inherit;overflow=hidden;fillColor=none;top=0;left=0;bottom=0;right=0;pointerEvents=1;" parent="e3NCDMCvRsL2zf-5tcVL-932" vertex="1">
          <mxGeometry width="86" height="70" as="geometry">
            <mxRectangle width="86" height="70" as="alternateBounds" />
          </mxGeometry>
        </mxCell>
        <mxCell id="e3NCDMCvRsL2zf-5tcVL-934" value="" style="shape=partialRectangle;html=1;whiteSpace=wrap;connectable=0;strokeColor=inherit;overflow=hidden;fillColor=none;top=0;left=0;bottom=0;right=0;pointerEvents=1;" parent="e3NCDMCvRsL2zf-5tcVL-932" vertex="1">
          <mxGeometry x="86" width="86" height="70" as="geometry">
            <mxRectangle width="86" height="70" as="alternateBounds" />
          </mxGeometry>
        </mxCell>
        <mxCell id="e3NCDMCvRsL2zf-5tcVL-935" value="" style="shape=partialRectangle;html=1;whiteSpace=wrap;connectable=0;strokeColor=inherit;overflow=hidden;fillColor=none;top=0;left=0;bottom=0;right=0;pointerEvents=1;" parent="e3NCDMCvRsL2zf-5tcVL-932" vertex="1">
          <mxGeometry x="172" width="86" height="70" as="geometry">
            <mxRectangle width="86" height="70" as="alternateBounds" />
          </mxGeometry>
        </mxCell>
        <mxCell id="e3NCDMCvRsL2zf-5tcVL-936" value="" style="shape=partialRectangle;html=1;whiteSpace=wrap;connectable=0;strokeColor=inherit;overflow=hidden;fillColor=none;top=0;left=0;bottom=0;right=0;pointerEvents=1;" parent="e3NCDMCvRsL2zf-5tcVL-932" vertex="1">
          <mxGeometry x="258" width="87" height="70" as="geometry">
            <mxRectangle width="87" height="70" as="alternateBounds" />
          </mxGeometry>
        </mxCell>
        <mxCell id="e3NCDMCvRsL2zf-5tcVL-937" value="Entrada" style="shape=partialRectangle;html=1;whiteSpace=wrap;connectable=0;strokeColor=inherit;overflow=hidden;fillColor=none;top=0;left=0;bottom=0;right=0;pointerEvents=1;" parent="e3NCDMCvRsL2zf-5tcVL-932" vertex="1">
          <mxGeometry x="345" width="85" height="70" as="geometry">
            <mxRectangle width="85" height="70" as="alternateBounds" />
          </mxGeometry>
        </mxCell>
        <mxCell id="e3NCDMCvRsL2zf-5tcVL-938" value="API PLARD&lt;div&gt;&lt;span style=&quot;color: rgb(51, 51, 51); font-size: 12px; text-wrap: nowrap;&quot;&gt;[&lt;/span&gt;&lt;span style=&quot;font-size: 11px; text-wrap: nowrap; background-color: initial;&quot;&gt;API&amp;nbsp;&lt;/span&gt;&lt;span style=&quot;color: rgb(51, 51, 51); font-size: 12px; text-wrap: nowrap; background-color: initial;&quot;&gt;TBD RIBS]&lt;/span&gt;&lt;/div&gt;" style="rounded=0;whiteSpace=wrap;html=1;fontSize=14;fontStyle=1;verticalAlign=top;sketch=1;curveFitting=1;jiggle=2;fillColor=#D1E1ED;" parent="1" vertex="1">
          <mxGeometry x="774.5" y="8422" width="430" height="47" as="geometry" />
        </mxCell>
        <mxCell id="e3NCDMCvRsL2zf-5tcVL-939" value="Responce:" style="shape=table;startSize=30;container=1;collapsible=0;childLayout=tableLayout;fontStyle=1;fillColor=#BAC8D3;fontColor=#333333;strokeColor=#666666;sketch=1;curveFitting=1;jiggle=2;" parent="1" vertex="1">
          <mxGeometry x="774.5" y="8650" width="430" height="130" as="geometry" />
        </mxCell>
        <mxCell id="e3NCDMCvRsL2zf-5tcVL-940" value="" style="shape=tableRow;horizontal=0;startSize=0;swimlaneHead=0;swimlaneBody=0;strokeColor=inherit;top=0;left=0;bottom=0;right=0;collapsible=0;dropTarget=0;fillColor=none;points=[[0,0.5],[1,0.5]];portConstraint=eastwest;" parent="e3NCDMCvRsL2zf-5tcVL-939" vertex="1">
          <mxGeometry y="30" width="430" height="50" as="geometry" />
        </mxCell>
        <mxCell id="e3NCDMCvRsL2zf-5tcVL-941" value="&lt;span style=&quot;text-align: left;&quot;&gt;&lt;b&gt;Nombre del Campo&lt;/b&gt;&lt;/span&gt;" style="shape=partialRectangle;html=1;whiteSpace=wrap;connectable=0;strokeColor=inherit;overflow=hidden;fillColor=none;top=0;left=0;bottom=0;right=0;pointerEvents=1;" parent="e3NCDMCvRsL2zf-5tcVL-940" vertex="1">
          <mxGeometry width="86" height="50" as="geometry">
            <mxRectangle width="86" height="50" as="alternateBounds" />
          </mxGeometry>
        </mxCell>
        <mxCell id="e3NCDMCvRsL2zf-5tcVL-942" value="&lt;b&gt;DescripciÃ³n del Campo&lt;/b&gt;" style="shape=partialRectangle;html=1;whiteSpace=wrap;connectable=0;strokeColor=inherit;overflow=hidden;fillColor=none;top=0;left=0;bottom=0;right=0;pointerEvents=1;" parent="e3NCDMCvRsL2zf-5tcVL-940" vertex="1">
          <mxGeometry x="86" width="86" height="50" as="geometry">
            <mxRectangle width="86" height="50" as="alternateBounds" />
          </mxGeometry>
        </mxCell>
        <mxCell id="e3NCDMCvRsL2zf-5tcVL-943" value="&lt;b&gt;Obligatorio&lt;/b&gt;" style="shape=partialRectangle;html=1;whiteSpace=wrap;connectable=0;strokeColor=inherit;overflow=hidden;fillColor=none;top=0;left=0;bottom=0;right=0;pointerEvents=1;" parent="e3NCDMCvRsL2zf-5tcVL-940" vertex="1">
          <mxGeometry x="172" width="86" height="50" as="geometry">
            <mxRectangle width="86" height="50" as="alternateBounds" />
          </mxGeometry>
        </mxCell>
        <mxCell id="e3NCDMCvRsL2zf-5tcVL-944" value="&lt;b&gt;Longitud / Formato&lt;/b&gt;" style="shape=partialRectangle;html=1;whiteSpace=wrap;connectable=0;strokeColor=inherit;overflow=hidden;fillColor=none;top=0;left=0;bottom=0;right=0;pointerEvents=1;" parent="e3NCDMCvRsL2zf-5tcVL-940" vertex="1">
          <mxGeometry x="258" width="87" height="50" as="geometry">
            <mxRectangle width="87" height="50" as="alternateBounds" />
          </mxGeometry>
        </mxCell>
        <mxCell id="e3NCDMCvRsL2zf-5tcVL-945" value="&lt;b&gt;TIPO&lt;/b&gt;" style="shape=partialRectangle;html=1;whiteSpace=wrap;connectable=0;strokeColor=inherit;overflow=hidden;fillColor=none;top=0;left=0;bottom=0;right=0;pointerEvents=1;" parent="e3NCDMCvRsL2zf-5tcVL-940" vertex="1">
          <mxGeometry x="345" width="85" height="50" as="geometry">
            <mxRectangle width="85" height="50" as="alternateBounds" />
          </mxGeometry>
        </mxCell>
        <mxCell id="e3NCDMCvRsL2zf-5tcVL-946" value="" style="shape=tableRow;horizontal=0;startSize=0;swimlaneHead=0;swimlaneBody=0;strokeColor=inherit;top=0;left=0;bottom=0;right=0;collapsible=0;dropTarget=0;fillColor=none;points=[[0,0.5],[1,0.5]];portConstraint=eastwest;" parent="e3NCDMCvRsL2zf-5tcVL-939" vertex="1">
          <mxGeometry y="80" width="430" height="50" as="geometry" />
        </mxCell>
        <mxCell id="e3NCDMCvRsL2zf-5tcVL-947" value="" style="shape=partialRectangle;html=1;whiteSpace=wrap;connectable=0;strokeColor=inherit;overflow=hidden;fillColor=none;top=0;left=0;bottom=0;right=0;pointerEvents=1;" parent="e3NCDMCvRsL2zf-5tcVL-946" vertex="1">
          <mxGeometry width="86" height="50" as="geometry">
            <mxRectangle width="86" height="50" as="alternateBounds" />
          </mxGeometry>
        </mxCell>
        <mxCell id="e3NCDMCvRsL2zf-5tcVL-948" value="" style="shape=partialRectangle;html=1;whiteSpace=wrap;connectable=0;strokeColor=inherit;overflow=hidden;fillColor=none;top=0;left=0;bottom=0;right=0;pointerEvents=1;" parent="e3NCDMCvRsL2zf-5tcVL-946" vertex="1">
          <mxGeometry x="86" width="86" height="50" as="geometry">
            <mxRectangle width="86" height="50" as="alternateBounds" />
          </mxGeometry>
        </mxCell>
        <mxCell id="e3NCDMCvRsL2zf-5tcVL-949" value="" style="shape=partialRectangle;html=1;whiteSpace=wrap;connectable=0;strokeColor=inherit;overflow=hidden;fillColor=none;top=0;left=0;bottom=0;right=0;pointerEvents=1;" parent="e3NCDMCvRsL2zf-5tcVL-946" vertex="1">
          <mxGeometry x="172" width="86" height="50" as="geometry">
            <mxRectangle width="86" height="50" as="alternateBounds" />
          </mxGeometry>
        </mxCell>
        <mxCell id="e3NCDMCvRsL2zf-5tcVL-950" value="" style="shape=partialRectangle;html=1;whiteSpace=wrap;connectable=0;strokeColor=inherit;overflow=hidden;fillColor=none;top=0;left=0;bottom=0;right=0;pointerEvents=1;" parent="e3NCDMCvRsL2zf-5tcVL-946" vertex="1">
          <mxGeometry x="258" width="87" height="50" as="geometry">
            <mxRectangle width="87" height="50" as="alternateBounds" />
          </mxGeometry>
        </mxCell>
        <mxCell id="e3NCDMCvRsL2zf-5tcVL-951" value="Salida" style="shape=partialRectangle;html=1;whiteSpace=wrap;connectable=0;strokeColor=inherit;overflow=hidden;fillColor=none;top=0;left=0;bottom=0;right=0;pointerEvents=1;" parent="e3NCDMCvRsL2zf-5tcVL-946" vertex="1">
          <mxGeometry x="345" width="85" height="50" as="geometry">
            <mxRectangle width="85" height="50" as="alternateBounds" />
          </mxGeometry>
        </mxCell>
        <mxCell id="e3NCDMCvRsL2zf-5tcVL-983" value="ENTRADA" style="shape=table;startSize=22;container=1;collapsible=0;childLayout=tableLayout;fontSize=10;fontStyle=1;fillColor=#BAC8D3;strokeColor=default;sketch=1;curveFitting=1;jiggle=2;" parent="1" vertex="1">
          <mxGeometry x="809" y="7879" width="300" height="69" as="geometry" />
        </mxCell>
        <mxCell id="e3NCDMCvRsL2zf-5tcVL-984" style="shape=tableRow;horizontal=0;startSize=0;swimlaneHead=0;swimlaneBody=0;strokeColor=default;top=0;left=0;bottom=0;right=0;collapsible=0;dropTarget=0;fillColor=none;points=[[0,0.5],[1,0.5]];portConstraint=eastwest;fontSize=10;" parent="e3NCDMCvRsL2zf-5tcVL-983" vertex="1">
          <mxGeometry y="22" width="300" height="23" as="geometry" />
        </mxCell>
        <mxCell id="e3NCDMCvRsL2zf-5tcVL-985" value="&lt;b&gt;&lt;font style=&quot;font-size: 10px;&quot;&gt;CAMPO&lt;/font&gt;&lt;/b&gt;" style="shape=partialRectangle;html=1;whiteSpace=wrap;connectable=0;strokeColor=default;overflow=hidden;fillColor=none;top=0;left=0;bottom=0;right=0;pointerEvents=1;fontSize=6;" parent="e3NCDMCvRsL2zf-5tcVL-984" vertex="1">
          <mxGeometry width="60" height="23" as="geometry">
            <mxRectangle width="60" height="23" as="alternateBounds" />
          </mxGeometry>
        </mxCell>
        <mxCell id="e3NCDMCvRsL2zf-5tcVL-986" value="&lt;b&gt;&lt;font style=&quot;font-size: 10px;&quot;&gt;TIPO&lt;/font&gt;&lt;/b&gt;" style="shape=partialRectangle;html=1;whiteSpace=wrap;connectable=0;strokeColor=default;overflow=hidden;fillColor=none;top=0;left=0;bottom=0;right=0;pointerEvents=1;fontSize=6;" parent="e3NCDMCvRsL2zf-5tcVL-984" vertex="1">
          <mxGeometry x="60" width="60" height="23" as="geometry">
            <mxRectangle width="60" height="23" as="alternateBounds" />
          </mxGeometry>
        </mxCell>
        <mxCell id="e3NCDMCvRsL2zf-5tcVL-987" value="&lt;font style=&quot;font-size: 10px;&quot;&gt;&lt;b style=&quot;font-size: 10px;&quot;&gt;LONGITUD&lt;/b&gt;&lt;/font&gt;" style="shape=partialRectangle;html=1;whiteSpace=wrap;connectable=0;strokeColor=default;overflow=hidden;fillColor=none;top=0;left=0;bottom=0;right=0;pointerEvents=1;fontSize=10;" parent="e3NCDMCvRsL2zf-5tcVL-984" vertex="1">
          <mxGeometry x="120" width="60" height="23" as="geometry">
            <mxRectangle width="60" height="23" as="alternateBounds" />
          </mxGeometry>
        </mxCell>
        <mxCell id="e3NCDMCvRsL2zf-5tcVL-988" value="&lt;b style=&quot;font-size: 10px;&quot;&gt;&lt;font style=&quot;font-size: 10px;&quot;&gt;USO&lt;/font&gt;&lt;/b&gt;" style="shape=partialRectangle;html=1;whiteSpace=wrap;connectable=0;strokeColor=default;overflow=hidden;fillColor=none;top=0;left=0;bottom=0;right=0;pointerEvents=1;fontSize=10;" parent="e3NCDMCvRsL2zf-5tcVL-984" vertex="1">
          <mxGeometry x="180" width="60" height="23" as="geometry">
            <mxRectangle width="60" height="23" as="alternateBounds" />
          </mxGeometry>
        </mxCell>
        <mxCell id="e3NCDMCvRsL2zf-5tcVL-989" value="&lt;font size=&quot;1&quot; style=&quot;&quot;&gt;&lt;b style=&quot;font-size: 8px;&quot;&gt;DESCRIPCION&lt;/b&gt;&lt;/font&gt;" style="shape=partialRectangle;html=1;whiteSpace=wrap;connectable=0;strokeColor=default;overflow=hidden;fillColor=none;top=0;left=0;bottom=0;right=0;pointerEvents=1;fontSize=10;" parent="e3NCDMCvRsL2zf-5tcVL-984" vertex="1">
          <mxGeometry x="240" width="60" height="23" as="geometry">
            <mxRectangle width="60" height="23" as="alternateBounds" />
          </mxGeometry>
        </mxCell>
        <mxCell id="e3NCDMCvRsL2zf-5tcVL-990" value="" style="shape=tableRow;horizontal=0;startSize=0;swimlaneHead=0;swimlaneBody=0;strokeColor=default;top=0;left=0;bottom=0;right=0;collapsible=0;dropTarget=0;fillColor=none;points=[[0,0.5],[1,0.5]];portConstraint=eastwest;" parent="e3NCDMCvRsL2zf-5tcVL-983" vertex="1">
          <mxGeometry y="45" width="300" height="24" as="geometry" />
        </mxCell>
        <mxCell id="e3NCDMCvRsL2zf-5tcVL-991" value="NUMPANX" style="shape=partialRectangle;html=1;whiteSpace=wrap;connectable=0;strokeColor=default;overflow=hidden;fillColor=none;top=0;left=0;bottom=0;right=0;pointerEvents=1;fontSize=8;align=center;" parent="e3NCDMCvRsL2zf-5tcVL-990" vertex="1">
          <mxGeometry width="60" height="24" as="geometry">
            <mxRectangle width="60" height="24" as="alternateBounds" />
          </mxGeometry>
        </mxCell>
        <mxCell id="e3NCDMCvRsL2zf-5tcVL-992" value="E/S" style="shape=partialRectangle;html=1;whiteSpace=wrap;connectable=0;strokeColor=default;overflow=hidden;fillColor=none;top=0;left=0;bottom=0;right=0;pointerEvents=1;fontSize=6;" parent="e3NCDMCvRsL2zf-5tcVL-990" vertex="1">
          <mxGeometry x="60" width="60" height="24" as="geometry">
            <mxRectangle width="60" height="24" as="alternateBounds" />
          </mxGeometry>
        </mxCell>
        <mxCell id="e3NCDMCvRsL2zf-5tcVL-993" value="22 / string" style="shape=partialRectangle;html=1;whiteSpace=wrap;connectable=0;strokeColor=default;overflow=hidden;fillColor=none;top=0;left=0;bottom=0;right=0;pointerEvents=1;fontSize=8;" parent="e3NCDMCvRsL2zf-5tcVL-990" vertex="1">
          <mxGeometry x="120" width="60" height="24" as="geometry">
            <mxRectangle width="60" height="24" as="alternateBounds" />
          </mxGeometry>
        </mxCell>
        <mxCell id="e3NCDMCvRsL2zf-5tcVL-994" value="&lt;font style=&quot;font-size: 8px;&quot;&gt;Requerido&lt;/font&gt;" style="shape=partialRectangle;html=1;whiteSpace=wrap;connectable=0;strokeColor=default;overflow=hidden;fillColor=none;top=0;left=0;bottom=0;right=0;pointerEvents=1;fontSize=10;" parent="e3NCDMCvRsL2zf-5tcVL-990" vertex="1">
          <mxGeometry x="180" width="60" height="24" as="geometry">
            <mxRectangle width="60" height="24" as="alternateBounds" />
          </mxGeometry>
        </mxCell>
        <mxCell id="e3NCDMCvRsL2zf-5tcVL-995" value="&lt;font style=&quot;font-size: 5px;&quot;&gt;NUMERO DEL PAN&lt;/font&gt;" style="shape=partialRectangle;html=1;whiteSpace=wrap;connectable=0;strokeColor=default;overflow=hidden;fillColor=none;top=0;left=0;bottom=0;right=0;pointerEvents=1;" parent="e3NCDMCvRsL2zf-5tcVL-990" vertex="1">
          <mxGeometry x="240" width="60" height="24" as="geometry">
            <mxRectangle width="60" height="24" as="alternateBounds" />
          </mxGeometry>
        </mxCell>
        <mxCell id="e3NCDMCvRsL2zf-5tcVL-996" value="SALIDA" style="shape=table;startSize=22;container=1;collapsible=0;childLayout=tableLayout;fontSize=10;fontStyle=1;fillColor=#BAC8D3;strokeColor=default;sketch=1;curveFitting=1;jiggle=2;" parent="1" vertex="1">
          <mxGeometry x="809" y="7947" width="300" height="277" as="geometry" />
        </mxCell>
        <mxCell id="e3NCDMCvRsL2zf-5tcVL-997" style="shape=tableRow;horizontal=0;startSize=0;swimlaneHead=0;swimlaneBody=0;strokeColor=default;top=0;left=0;bottom=0;right=0;collapsible=0;dropTarget=0;fillColor=none;points=[[0,0.5],[1,0.5]];portConstraint=eastwest;fontSize=8;" parent="e3NCDMCvRsL2zf-5tcVL-996" vertex="1">
          <mxGeometry y="22" width="300" height="23" as="geometry" />
        </mxCell>
        <mxCell id="e3NCDMCvRsL2zf-5tcVL-998" value="&lt;b style=&quot;font-size: 8px;&quot;&gt;&lt;font style=&quot;font-size: 8px;&quot;&gt;CAMPO&lt;/font&gt;&lt;/b&gt;" style="shape=partialRectangle;html=1;whiteSpace=wrap;connectable=0;strokeColor=default;overflow=hidden;fillColor=none;top=0;left=0;bottom=0;right=0;pointerEvents=1;fontSize=8;" parent="e3NCDMCvRsL2zf-5tcVL-997" vertex="1">
          <mxGeometry width="60" height="23" as="geometry">
            <mxRectangle width="60" height="23" as="alternateBounds" />
          </mxGeometry>
        </mxCell>
        <mxCell id="e3NCDMCvRsL2zf-5tcVL-999" value="&lt;b style=&quot;font-size: 8px;&quot;&gt;&lt;font style=&quot;font-size: 8px;&quot;&gt;TIPO&lt;/font&gt;&lt;/b&gt;" style="shape=partialRectangle;html=1;whiteSpace=wrap;connectable=0;strokeColor=default;overflow=hidden;fillColor=none;top=0;left=0;bottom=0;right=0;pointerEvents=1;fontSize=8;" parent="e3NCDMCvRsL2zf-5tcVL-997" vertex="1">
          <mxGeometry x="60" width="60" height="23" as="geometry">
            <mxRectangle width="60" height="23" as="alternateBounds" />
          </mxGeometry>
        </mxCell>
        <mxCell id="e3NCDMCvRsL2zf-5tcVL-1000" value="&lt;font style=&quot;font-size: 8px;&quot;&gt;&lt;b style=&quot;font-size: 8px;&quot;&gt;LONGITUD&lt;/b&gt;&lt;/font&gt;" style="shape=partialRectangle;html=1;whiteSpace=wrap;connectable=0;strokeColor=default;overflow=hidden;fillColor=none;top=0;left=0;bottom=0;right=0;pointerEvents=1;fontSize=8;" parent="e3NCDMCvRsL2zf-5tcVL-997" vertex="1">
          <mxGeometry x="120" width="60" height="23" as="geometry">
            <mxRectangle width="60" height="23" as="alternateBounds" />
          </mxGeometry>
        </mxCell>
        <mxCell id="e3NCDMCvRsL2zf-5tcVL-1001" value="&lt;b style=&quot;font-size: 8px;&quot;&gt;&lt;font style=&quot;font-size: 8px;&quot;&gt;USO&lt;/font&gt;&lt;/b&gt;" style="shape=partialRectangle;html=1;whiteSpace=wrap;connectable=0;strokeColor=default;overflow=hidden;fillColor=none;top=0;left=0;bottom=0;right=0;pointerEvents=1;fontSize=8;" parent="e3NCDMCvRsL2zf-5tcVL-997" vertex="1">
          <mxGeometry x="180" width="60" height="23" as="geometry">
            <mxRectangle width="60" height="23" as="alternateBounds" />
          </mxGeometry>
        </mxCell>
        <mxCell id="e3NCDMCvRsL2zf-5tcVL-1002" value="&lt;font style=&quot;font-size: 8px;&quot;&gt;&lt;b style=&quot;font-size: 8px;&quot;&gt;DESCRIPCION&lt;/b&gt;&lt;/font&gt;" style="shape=partialRectangle;html=1;whiteSpace=wrap;connectable=0;strokeColor=default;overflow=hidden;fillColor=none;top=0;left=0;bottom=0;right=0;pointerEvents=1;fontSize=8;" parent="e3NCDMCvRsL2zf-5tcVL-997" vertex="1">
          <mxGeometry x="240" width="60" height="23" as="geometry">
            <mxRectangle width="60" height="23" as="alternateBounds" />
          </mxGeometry>
        </mxCell>
        <mxCell id="e3NCDMCvRsL2zf-5tcVL-1003" value="" style="shape=tableRow;horizontal=0;startSize=0;swimlaneHead=0;swimlaneBody=0;strokeColor=default;top=0;left=0;bottom=0;right=0;collapsible=0;dropTarget=0;fillColor=none;points=[[0,0.5],[1,0.5]];portConstraint=eastwest;fontSize=8;" parent="e3NCDMCvRsL2zf-5tcVL-996" vertex="1">
          <mxGeometry y="45" width="300" height="24" as="geometry" />
        </mxCell>
        <mxCell id="e3NCDMCvRsL2zf-5tcVL-1004" value="&lt;div style=&quot;text-align: left;&quot;&gt;CODIDIO&lt;br style=&quot;font-size: 8px;&quot;&gt;&lt;/div&gt;" style="shape=partialRectangle;html=1;whiteSpace=wrap;connectable=0;strokeColor=default;overflow=hidden;fillColor=none;top=0;left=0;bottom=0;right=0;pointerEvents=1;fontSize=8;" parent="e3NCDMCvRsL2zf-5tcVL-1003" vertex="1">
          <mxGeometry width="60" height="24" as="geometry">
            <mxRectangle width="60" height="24" as="alternateBounds" />
          </mxGeometry>
        </mxCell>
        <mxCell id="e3NCDMCvRsL2zf-5tcVL-1005" value="&lt;span style=&quot;font-size: 6px;&quot;&gt;E/S&lt;/span&gt;" style="shape=partialRectangle;html=1;whiteSpace=wrap;connectable=0;strokeColor=default;overflow=hidden;fillColor=none;top=0;left=0;bottom=0;right=0;pointerEvents=1;fontSize=8;" parent="e3NCDMCvRsL2zf-5tcVL-1003" vertex="1">
          <mxGeometry x="60" width="60" height="24" as="geometry">
            <mxRectangle width="60" height="24" as="alternateBounds" />
          </mxGeometry>
        </mxCell>
        <mxCell id="e3NCDMCvRsL2zf-5tcVL-1006" value="&lt;font style=&quot;font-size: 8px;&quot;&gt;5 / string&lt;/font&gt;" style="shape=partialRectangle;html=1;whiteSpace=wrap;connectable=0;strokeColor=default;overflow=hidden;fillColor=none;top=0;left=0;bottom=0;right=0;pointerEvents=1;fontSize=8;" parent="e3NCDMCvRsL2zf-5tcVL-1003" vertex="1">
          <mxGeometry x="120" width="60" height="24" as="geometry">
            <mxRectangle width="60" height="24" as="alternateBounds" />
          </mxGeometry>
        </mxCell>
        <mxCell id="e3NCDMCvRsL2zf-5tcVL-1007" value="Opcional" style="shape=partialRectangle;html=1;whiteSpace=wrap;connectable=0;strokeColor=default;overflow=hidden;fillColor=none;top=0;left=0;bottom=0;right=0;pointerEvents=1;fontSize=8;" parent="e3NCDMCvRsL2zf-5tcVL-1003" vertex="1">
          <mxGeometry x="180" width="60" height="24" as="geometry">
            <mxRectangle width="60" height="24" as="alternateBounds" />
          </mxGeometry>
        </mxCell>
        <mxCell id="e3NCDMCvRsL2zf-5tcVL-1008" value="&lt;div style=&quot;text-align: left;&quot;&gt;&lt;span style=&quot;background-color: initial;&quot;&gt;&lt;font style=&quot;font-size: 7px;&quot;&gt;IDIOMA&lt;/font&gt;&lt;/span&gt;&lt;/div&gt;" style="shape=partialRectangle;html=1;whiteSpace=wrap;connectable=0;strokeColor=default;overflow=hidden;fillColor=none;top=0;left=0;bottom=0;right=0;pointerEvents=1;fontSize=8;" parent="e3NCDMCvRsL2zf-5tcVL-1003" vertex="1">
          <mxGeometry x="240" width="60" height="24" as="geometry">
            <mxRectangle width="60" height="24" as="alternateBounds" />
          </mxGeometry>
        </mxCell>
        <mxCell id="e3NCDMCvRsL2zf-5tcVL-1009" value="" style="shape=tableRow;horizontal=0;startSize=0;swimlaneHead=0;swimlaneBody=0;strokeColor=default;top=0;left=0;bottom=0;right=0;collapsible=0;dropTarget=0;fillColor=none;points=[[0,0.5],[1,0.5]];portConstraint=eastwest;fontSize=8;" parent="e3NCDMCvRsL2zf-5tcVL-996" vertex="1">
          <mxGeometry y="69" width="300" height="23" as="geometry" />
        </mxCell>
        <mxCell id="e3NCDMCvRsL2zf-5tcVL-1010" value="&lt;div style=&quot;text-align: left;&quot;&gt;&lt;span style=&quot;background-color: initial;&quot;&gt;DESIDIO&lt;/span&gt;&lt;/div&gt;" style="shape=partialRectangle;html=1;whiteSpace=wrap;connectable=0;strokeColor=default;overflow=hidden;fillColor=none;top=0;left=0;bottom=0;right=0;pointerEvents=1;fontSize=8;" parent="e3NCDMCvRsL2zf-5tcVL-1009" vertex="1">
          <mxGeometry width="60" height="23" as="geometry">
            <mxRectangle width="60" height="23" as="alternateBounds" />
          </mxGeometry>
        </mxCell>
        <mxCell id="e3NCDMCvRsL2zf-5tcVL-1011" value="&lt;span style=&quot;font-size: 6px;&quot;&gt;E/S&lt;/span&gt;" style="shape=partialRectangle;html=1;whiteSpace=wrap;connectable=0;strokeColor=default;overflow=hidden;fillColor=none;top=0;left=0;bottom=0;right=0;pointerEvents=1;fontSize=8;" parent="e3NCDMCvRsL2zf-5tcVL-1009" vertex="1">
          <mxGeometry x="60" width="60" height="23" as="geometry">
            <mxRectangle width="60" height="23" as="alternateBounds" />
          </mxGeometry>
        </mxCell>
        <mxCell id="e3NCDMCvRsL2zf-5tcVL-1012" value="30 / string" style="shape=partialRectangle;html=1;whiteSpace=wrap;connectable=0;strokeColor=default;overflow=hidden;fillColor=none;top=0;left=0;bottom=0;right=0;pointerEvents=1;fontSize=8;" parent="e3NCDMCvRsL2zf-5tcVL-1009" vertex="1">
          <mxGeometry x="120" width="60" height="23" as="geometry">
            <mxRectangle width="60" height="23" as="alternateBounds" />
          </mxGeometry>
        </mxCell>
        <mxCell id="e3NCDMCvRsL2zf-5tcVL-1013" value="Opcional" style="shape=partialRectangle;html=1;whiteSpace=wrap;connectable=0;strokeColor=default;overflow=hidden;fillColor=none;top=0;left=0;bottom=0;right=0;pointerEvents=1;fontSize=8;" parent="e3NCDMCvRsL2zf-5tcVL-1009" vertex="1">
          <mxGeometry x="180" width="60" height="23" as="geometry">
            <mxRectangle width="60" height="23" as="alternateBounds" />
          </mxGeometry>
        </mxCell>
        <mxCell id="e3NCDMCvRsL2zf-5tcVL-1014" value="&lt;div style=&quot;text-align: left;&quot;&gt;&lt;span style=&quot;background-color: initial; font-size: 5px;&quot;&gt;DESCRIPCION IDIOMA&lt;/span&gt;&lt;/div&gt;" style="shape=partialRectangle;html=1;whiteSpace=wrap;connectable=0;strokeColor=default;overflow=hidden;fillColor=none;top=0;left=0;bottom=0;right=0;pointerEvents=1;fontSize=8;" parent="e3NCDMCvRsL2zf-5tcVL-1009" vertex="1">
          <mxGeometry x="240" width="60" height="23" as="geometry">
            <mxRectangle width="60" height="23" as="alternateBounds" />
          </mxGeometry>
        </mxCell>
        <mxCell id="e3NCDMCvRsL2zf-5tcVL-1015" value="" style="shape=tableRow;horizontal=0;startSize=0;swimlaneHead=0;swimlaneBody=0;strokeColor=default;top=0;left=0;bottom=0;right=0;collapsible=0;dropTarget=0;fillColor=none;points=[[0,0.5],[1,0.5]];portConstraint=eastwest;fontSize=8;" parent="e3NCDMCvRsL2zf-5tcVL-996" vertex="1">
          <mxGeometry y="92" width="300" height="23" as="geometry" />
        </mxCell>
        <mxCell id="e3NCDMCvRsL2zf-5tcVL-1016" value="&lt;div style=&quot;text-align: left;&quot;&gt;CODPAIS&lt;br style=&quot;font-size: 8px;&quot;&gt;&lt;/div&gt;" style="shape=partialRectangle;html=1;whiteSpace=wrap;connectable=0;strokeColor=default;overflow=hidden;fillColor=none;top=0;left=0;bottom=0;right=0;pointerEvents=1;fontSize=8;" parent="e3NCDMCvRsL2zf-5tcVL-1015" vertex="1">
          <mxGeometry width="60" height="23" as="geometry">
            <mxRectangle width="60" height="23" as="alternateBounds" />
          </mxGeometry>
        </mxCell>
        <mxCell id="e3NCDMCvRsL2zf-5tcVL-1017" value="&lt;span style=&quot;font-size: 6px;&quot;&gt;E/S&lt;/span&gt;" style="shape=partialRectangle;html=1;whiteSpace=wrap;connectable=0;strokeColor=default;overflow=hidden;fillColor=none;top=0;left=0;bottom=0;right=0;pointerEvents=1;fontSize=8;" parent="e3NCDMCvRsL2zf-5tcVL-1015" vertex="1">
          <mxGeometry x="60" width="60" height="23" as="geometry">
            <mxRectangle width="60" height="23" as="alternateBounds" />
          </mxGeometry>
        </mxCell>
        <mxCell id="e3NCDMCvRsL2zf-5tcVL-1018" value="3 / num" style="shape=partialRectangle;html=1;whiteSpace=wrap;connectable=0;strokeColor=default;overflow=hidden;fillColor=none;top=0;left=0;bottom=0;right=0;pointerEvents=1;fontSize=8;" parent="e3NCDMCvRsL2zf-5tcVL-1015" vertex="1">
          <mxGeometry x="120" width="60" height="23" as="geometry">
            <mxRectangle width="60" height="23" as="alternateBounds" />
          </mxGeometry>
        </mxCell>
        <mxCell id="e3NCDMCvRsL2zf-5tcVL-1019" value="Opcional" style="shape=partialRectangle;html=1;whiteSpace=wrap;connectable=0;strokeColor=default;overflow=hidden;fillColor=none;top=0;left=0;bottom=0;right=0;pointerEvents=1;fontSize=8;" parent="e3NCDMCvRsL2zf-5tcVL-1015" vertex="1">
          <mxGeometry x="180" width="60" height="23" as="geometry">
            <mxRectangle width="60" height="23" as="alternateBounds" />
          </mxGeometry>
        </mxCell>
        <mxCell id="e3NCDMCvRsL2zf-5tcVL-1020" value="&lt;div style=&quot;text-align: left;&quot;&gt;&lt;span style=&quot;background-color: initial; font-size: 5px;&quot;&gt;CODIGO DEL PAIS&lt;/span&gt;&lt;/div&gt;" style="shape=partialRectangle;html=1;whiteSpace=wrap;connectable=0;strokeColor=default;overflow=hidden;fillColor=none;top=0;left=0;bottom=0;right=0;pointerEvents=1;fontSize=8;" parent="e3NCDMCvRsL2zf-5tcVL-1015" vertex="1">
          <mxGeometry x="240" width="60" height="23" as="geometry">
            <mxRectangle width="60" height="23" as="alternateBounds" />
          </mxGeometry>
        </mxCell>
        <mxCell id="e3NCDMCvRsL2zf-5tcVL-1021" value="" style="shape=tableRow;horizontal=0;startSize=0;swimlaneHead=0;swimlaneBody=0;strokeColor=default;top=0;left=0;bottom=0;right=0;collapsible=0;dropTarget=0;fillColor=none;points=[[0,0.5],[1,0.5]];portConstraint=eastwest;fontSize=8;" parent="e3NCDMCvRsL2zf-5tcVL-996" vertex="1">
          <mxGeometry y="115" width="300" height="24" as="geometry" />
        </mxCell>
        <mxCell id="e3NCDMCvRsL2zf-5tcVL-1022" value="&lt;div style=&quot;text-align: left;&quot;&gt;DESPAIS&lt;br style=&quot;font-size: 8px;&quot;&gt;&lt;/div&gt;" style="shape=partialRectangle;html=1;whiteSpace=wrap;connectable=0;strokeColor=default;overflow=hidden;fillColor=none;top=0;left=0;bottom=0;right=0;pointerEvents=1;fontSize=8;" parent="e3NCDMCvRsL2zf-5tcVL-1021" vertex="1">
          <mxGeometry width="60" height="24" as="geometry">
            <mxRectangle width="60" height="24" as="alternateBounds" />
          </mxGeometry>
        </mxCell>
        <mxCell id="e3NCDMCvRsL2zf-5tcVL-1023" value="&lt;span style=&quot;font-size: 6px;&quot;&gt;E/S&lt;/span&gt;" style="shape=partialRectangle;html=1;whiteSpace=wrap;connectable=0;strokeColor=default;overflow=hidden;fillColor=none;top=0;left=0;bottom=0;right=0;pointerEvents=1;fontSize=8;" parent="e3NCDMCvRsL2zf-5tcVL-1021" vertex="1">
          <mxGeometry x="60" width="60" height="24" as="geometry">
            <mxRectangle width="60" height="24" as="alternateBounds" />
          </mxGeometry>
        </mxCell>
        <mxCell id="e3NCDMCvRsL2zf-5tcVL-1024" value="30 / string" style="shape=partialRectangle;html=1;whiteSpace=wrap;connectable=0;strokeColor=default;overflow=hidden;fillColor=none;top=0;left=0;bottom=0;right=0;pointerEvents=1;fontSize=8;" parent="e3NCDMCvRsL2zf-5tcVL-1021" vertex="1">
          <mxGeometry x="120" width="60" height="24" as="geometry">
            <mxRectangle width="60" height="24" as="alternateBounds" />
          </mxGeometry>
        </mxCell>
        <mxCell id="e3NCDMCvRsL2zf-5tcVL-1025" value="Opcional" style="shape=partialRectangle;html=1;whiteSpace=wrap;connectable=0;strokeColor=default;overflow=hidden;fillColor=none;top=0;left=0;bottom=0;right=0;pointerEvents=1;fontSize=8;" parent="e3NCDMCvRsL2zf-5tcVL-1021" vertex="1">
          <mxGeometry x="180" width="60" height="24" as="geometry">
            <mxRectangle width="60" height="24" as="alternateBounds" />
          </mxGeometry>
        </mxCell>
        <mxCell id="e3NCDMCvRsL2zf-5tcVL-1026" value="&lt;div style=&quot;text-align: left;&quot;&gt;&lt;span style=&quot;background-color: initial; font-size: 5px;&quot;&gt;DESCRIPCION DEL PAIS&lt;/span&gt;&lt;/div&gt;" style="shape=partialRectangle;html=1;whiteSpace=wrap;connectable=0;strokeColor=default;overflow=hidden;fillColor=none;top=0;left=0;bottom=0;right=0;pointerEvents=1;fontSize=8;" parent="e3NCDMCvRsL2zf-5tcVL-1021" vertex="1">
          <mxGeometry x="240" width="60" height="24" as="geometry">
            <mxRectangle width="60" height="24" as="alternateBounds" />
          </mxGeometry>
        </mxCell>
        <mxCell id="e3NCDMCvRsL2zf-5tcVL-1027" value="" style="shape=tableRow;horizontal=0;startSize=0;swimlaneHead=0;swimlaneBody=0;strokeColor=default;top=0;left=0;bottom=0;right=0;collapsible=0;dropTarget=0;fillColor=none;points=[[0,0.5],[1,0.5]];portConstraint=eastwest;fontSize=8;" parent="e3NCDMCvRsL2zf-5tcVL-996" vertex="1">
          <mxGeometry y="139" width="300" height="23" as="geometry" />
        </mxCell>
        <mxCell id="e3NCDMCvRsL2zf-5tcVL-1028" value="&lt;div style=&quot;text-align: left;&quot;&gt;CODMARC&lt;br style=&quot;font-size: 8px;&quot;&gt;&lt;/div&gt;" style="shape=partialRectangle;html=1;whiteSpace=wrap;connectable=0;strokeColor=default;overflow=hidden;fillColor=none;top=0;left=0;bottom=0;right=0;pointerEvents=1;fontSize=8;" parent="e3NCDMCvRsL2zf-5tcVL-1027" vertex="1">
          <mxGeometry width="60" height="23" as="geometry">
            <mxRectangle width="60" height="23" as="alternateBounds" />
          </mxGeometry>
        </mxCell>
        <mxCell id="e3NCDMCvRsL2zf-5tcVL-1029" value="&lt;span style=&quot;font-size: 6px;&quot;&gt;E/S&lt;/span&gt;" style="shape=partialRectangle;html=1;whiteSpace=wrap;connectable=0;strokeColor=default;overflow=hidden;fillColor=none;top=0;left=0;bottom=0;right=0;pointerEvents=1;fontSize=8;" parent="e3NCDMCvRsL2zf-5tcVL-1027" vertex="1">
          <mxGeometry x="60" width="60" height="23" as="geometry">
            <mxRectangle width="60" height="23" as="alternateBounds" />
          </mxGeometry>
        </mxCell>
        <mxCell id="e3NCDMCvRsL2zf-5tcVL-1030" value="4 / string" style="shape=partialRectangle;html=1;whiteSpace=wrap;connectable=0;strokeColor=default;overflow=hidden;fillColor=none;top=0;left=0;bottom=0;right=0;pointerEvents=1;fontSize=8;" parent="e3NCDMCvRsL2zf-5tcVL-1027" vertex="1">
          <mxGeometry x="120" width="60" height="23" as="geometry">
            <mxRectangle width="60" height="23" as="alternateBounds" />
          </mxGeometry>
        </mxCell>
        <mxCell id="e3NCDMCvRsL2zf-5tcVL-1031" value="Opcional" style="shape=partialRectangle;html=1;whiteSpace=wrap;connectable=0;strokeColor=default;overflow=hidden;fillColor=none;top=0;left=0;bottom=0;right=0;pointerEvents=1;fontSize=8;" parent="e3NCDMCvRsL2zf-5tcVL-1027" vertex="1">
          <mxGeometry x="180" width="60" height="23" as="geometry">
            <mxRectangle width="60" height="23" as="alternateBounds" />
          </mxGeometry>
        </mxCell>
        <mxCell id="e3NCDMCvRsL2zf-5tcVL-1032" value="&lt;div style=&quot;text-align: left;&quot;&gt;&lt;span style=&quot;background-color: initial; font-size: 5px;&quot;&gt;CODIGO DE MARCA&lt;/span&gt;&lt;/div&gt;" style="shape=partialRectangle;html=1;whiteSpace=wrap;connectable=0;strokeColor=default;overflow=hidden;fillColor=none;top=0;left=0;bottom=0;right=0;pointerEvents=1;fontSize=8;" parent="e3NCDMCvRsL2zf-5tcVL-1027" vertex="1">
          <mxGeometry x="240" width="60" height="23" as="geometry">
            <mxRectangle width="60" height="23" as="alternateBounds" />
          </mxGeometry>
        </mxCell>
        <mxCell id="e3NCDMCvRsL2zf-5tcVL-1033" style="shape=tableRow;horizontal=0;startSize=0;swimlaneHead=0;swimlaneBody=0;strokeColor=default;top=0;left=0;bottom=0;right=0;collapsible=0;dropTarget=0;fillColor=none;points=[[0,0.5],[1,0.5]];portConstraint=eastwest;fontSize=8;" parent="e3NCDMCvRsL2zf-5tcVL-996" vertex="1">
          <mxGeometry y="162" width="300" height="23" as="geometry" />
        </mxCell>
        <mxCell id="e3NCDMCvRsL2zf-5tcVL-1034" value="&lt;div style=&quot;text-align: left;&quot;&gt;&lt;span style=&quot;background-color: initial;&quot;&gt;DESMARC&lt;/span&gt;&lt;/div&gt;" style="shape=partialRectangle;html=1;whiteSpace=wrap;connectable=0;strokeColor=default;overflow=hidden;fillColor=none;top=0;left=0;bottom=0;right=0;pointerEvents=1;fontSize=8;" parent="e3NCDMCvRsL2zf-5tcVL-1033" vertex="1">
          <mxGeometry width="60" height="23" as="geometry">
            <mxRectangle width="60" height="23" as="alternateBounds" />
          </mxGeometry>
        </mxCell>
        <mxCell id="e3NCDMCvRsL2zf-5tcVL-1035" value="&lt;span style=&quot;font-size: 6px;&quot;&gt;E/S&lt;/span&gt;" style="shape=partialRectangle;html=1;whiteSpace=wrap;connectable=0;strokeColor=default;overflow=hidden;fillColor=none;top=0;left=0;bottom=0;right=0;pointerEvents=1;fontSize=8;" parent="e3NCDMCvRsL2zf-5tcVL-1033" vertex="1">
          <mxGeometry x="60" width="60" height="23" as="geometry">
            <mxRectangle width="60" height="23" as="alternateBounds" />
          </mxGeometry>
        </mxCell>
        <mxCell id="e3NCDMCvRsL2zf-5tcVL-1036" value="30 / string" style="shape=partialRectangle;html=1;whiteSpace=wrap;connectable=0;strokeColor=default;overflow=hidden;fillColor=none;top=0;left=0;bottom=0;right=0;pointerEvents=1;fontSize=8;" parent="e3NCDMCvRsL2zf-5tcVL-1033" vertex="1">
          <mxGeometry x="120" width="60" height="23" as="geometry">
            <mxRectangle width="60" height="23" as="alternateBounds" />
          </mxGeometry>
        </mxCell>
        <mxCell id="e3NCDMCvRsL2zf-5tcVL-1037" value="Opcional" style="shape=partialRectangle;html=1;whiteSpace=wrap;connectable=0;strokeColor=default;overflow=hidden;fillColor=none;top=0;left=0;bottom=0;right=0;pointerEvents=1;fontSize=8;" parent="e3NCDMCvRsL2zf-5tcVL-1033" vertex="1">
          <mxGeometry x="180" width="60" height="23" as="geometry">
            <mxRectangle width="60" height="23" as="alternateBounds" />
          </mxGeometry>
        </mxCell>
        <mxCell id="e3NCDMCvRsL2zf-5tcVL-1038" value="&lt;div style=&quot;text-align: left;&quot;&gt;&lt;span style=&quot;background-color: initial; font-size: 5px;&quot;&gt;DESCRIPCION MARCA&lt;/span&gt;&lt;/div&gt;" style="shape=partialRectangle;html=1;whiteSpace=wrap;connectable=0;strokeColor=default;overflow=hidden;fillColor=none;top=0;left=0;bottom=0;right=0;pointerEvents=1;fontSize=8;" parent="e3NCDMCvRsL2zf-5tcVL-1033" vertex="1">
          <mxGeometry x="240" width="60" height="23" as="geometry">
            <mxRectangle width="60" height="23" as="alternateBounds" />
          </mxGeometry>
        </mxCell>
        <mxCell id="e3NCDMCvRsL2zf-5tcVL-1039" style="shape=tableRow;horizontal=0;startSize=0;swimlaneHead=0;swimlaneBody=0;strokeColor=default;top=0;left=0;bottom=0;right=0;collapsible=0;dropTarget=0;fillColor=none;points=[[0,0.5],[1,0.5]];portConstraint=eastwest;fontSize=8;" parent="e3NCDMCvRsL2zf-5tcVL-996" vertex="1">
          <mxGeometry y="185" width="300" height="23" as="geometry" />
        </mxCell>
        <mxCell id="e3NCDMCvRsL2zf-5tcVL-1040" value="TIPTARJ" style="shape=partialRectangle;html=1;whiteSpace=wrap;connectable=0;strokeColor=default;overflow=hidden;fillColor=none;top=0;left=0;bottom=0;right=0;pointerEvents=1;fontSize=8;" parent="e3NCDMCvRsL2zf-5tcVL-1039" vertex="1">
          <mxGeometry width="60" height="23" as="geometry">
            <mxRectangle width="60" height="23" as="alternateBounds" />
          </mxGeometry>
        </mxCell>
        <mxCell id="e3NCDMCvRsL2zf-5tcVL-1041" value="&lt;span style=&quot;font-size: 6px;&quot;&gt;E/S&lt;/span&gt;" style="shape=partialRectangle;html=1;whiteSpace=wrap;connectable=0;strokeColor=default;overflow=hidden;fillColor=none;top=0;left=0;bottom=0;right=0;pointerEvents=1;fontSize=8;" parent="e3NCDMCvRsL2zf-5tcVL-1039" vertex="1">
          <mxGeometry x="60" width="60" height="23" as="geometry">
            <mxRectangle width="60" height="23" as="alternateBounds" />
          </mxGeometry>
        </mxCell>
        <mxCell id="e3NCDMCvRsL2zf-5tcVL-1042" value="2&amp;nbsp;/ string" style="shape=partialRectangle;html=1;whiteSpace=wrap;connectable=0;strokeColor=default;overflow=hidden;fillColor=none;top=0;left=0;bottom=0;right=0;pointerEvents=1;fontSize=8;" parent="e3NCDMCvRsL2zf-5tcVL-1039" vertex="1">
          <mxGeometry x="120" width="60" height="23" as="geometry">
            <mxRectangle width="60" height="23" as="alternateBounds" />
          </mxGeometry>
        </mxCell>
        <mxCell id="e3NCDMCvRsL2zf-5tcVL-1043" value="Opcional" style="shape=partialRectangle;html=1;whiteSpace=wrap;connectable=0;strokeColor=default;overflow=hidden;fillColor=none;top=0;left=0;bottom=0;right=0;pointerEvents=1;fontSize=8;" parent="e3NCDMCvRsL2zf-5tcVL-1039" vertex="1">
          <mxGeometry x="180" width="60" height="23" as="geometry">
            <mxRectangle width="60" height="23" as="alternateBounds" />
          </mxGeometry>
        </mxCell>
        <mxCell id="e3NCDMCvRsL2zf-5tcVL-1044" value="TIPO DE TARJETA" style="shape=partialRectangle;html=1;whiteSpace=wrap;connectable=0;strokeColor=default;overflow=hidden;fillColor=none;top=0;left=0;bottom=0;right=0;pointerEvents=1;fontSize=8;" parent="e3NCDMCvRsL2zf-5tcVL-1039" vertex="1">
          <mxGeometry x="240" width="60" height="23" as="geometry">
            <mxRectangle width="60" height="23" as="alternateBounds" />
          </mxGeometry>
        </mxCell>
        <mxCell id="e3NCDMCvRsL2zf-5tcVL-1045" style="shape=tableRow;horizontal=0;startSize=0;swimlaneHead=0;swimlaneBody=0;strokeColor=default;top=0;left=0;bottom=0;right=0;collapsible=0;dropTarget=0;fillColor=none;points=[[0,0.5],[1,0.5]];portConstraint=eastwest;fontSize=8;" parent="e3NCDMCvRsL2zf-5tcVL-996" vertex="1">
          <mxGeometry y="208" width="300" height="23" as="geometry" />
        </mxCell>
        <mxCell id="e3NCDMCvRsL2zf-5tcVL-1046" value="DESTARJ" style="shape=partialRectangle;html=1;whiteSpace=wrap;connectable=0;strokeColor=default;overflow=hidden;fillColor=none;top=0;left=0;bottom=0;right=0;pointerEvents=1;fontSize=8;" parent="e3NCDMCvRsL2zf-5tcVL-1045" vertex="1">
          <mxGeometry width="60" height="23" as="geometry">
            <mxRectangle width="60" height="23" as="alternateBounds" />
          </mxGeometry>
        </mxCell>
        <mxCell id="e3NCDMCvRsL2zf-5tcVL-1047" value="&lt;span style=&quot;font-size: 6px;&quot;&gt;E/S&lt;/span&gt;" style="shape=partialRectangle;html=1;whiteSpace=wrap;connectable=0;strokeColor=default;overflow=hidden;fillColor=none;top=0;left=0;bottom=0;right=0;pointerEvents=1;fontSize=8;" parent="e3NCDMCvRsL2zf-5tcVL-1045" vertex="1">
          <mxGeometry x="60" width="60" height="23" as="geometry">
            <mxRectangle width="60" height="23" as="alternateBounds" />
          </mxGeometry>
        </mxCell>
        <mxCell id="e3NCDMCvRsL2zf-5tcVL-1048" value="30&amp;nbsp;/ string" style="shape=partialRectangle;html=1;whiteSpace=wrap;connectable=0;strokeColor=default;overflow=hidden;fillColor=none;top=0;left=0;bottom=0;right=0;pointerEvents=1;fontSize=8;" parent="e3NCDMCvRsL2zf-5tcVL-1045" vertex="1">
          <mxGeometry x="120" width="60" height="23" as="geometry">
            <mxRectangle width="60" height="23" as="alternateBounds" />
          </mxGeometry>
        </mxCell>
        <mxCell id="e3NCDMCvRsL2zf-5tcVL-1049" value="Opcional" style="shape=partialRectangle;html=1;whiteSpace=wrap;connectable=0;strokeColor=default;overflow=hidden;fillColor=none;top=0;left=0;bottom=0;right=0;pointerEvents=1;fontSize=8;" parent="e3NCDMCvRsL2zf-5tcVL-1045" vertex="1">
          <mxGeometry x="180" width="60" height="23" as="geometry">
            <mxRectangle width="60" height="23" as="alternateBounds" />
          </mxGeometry>
        </mxCell>
        <mxCell id="e3NCDMCvRsL2zf-5tcVL-1050" value="DESCRIPCION TP TARJE" style="shape=partialRectangle;html=1;whiteSpace=wrap;connectable=0;strokeColor=default;overflow=hidden;fillColor=none;top=0;left=0;bottom=0;right=0;pointerEvents=1;fontSize=8;" parent="e3NCDMCvRsL2zf-5tcVL-1045" vertex="1">
          <mxGeometry x="240" width="60" height="23" as="geometry">
            <mxRectangle width="60" height="23" as="alternateBounds" />
          </mxGeometry>
        </mxCell>
        <mxCell id="e3NCDMCvRsL2zf-5tcVL-1051" style="shape=tableRow;horizontal=0;startSize=0;swimlaneHead=0;swimlaneBody=0;strokeColor=default;top=0;left=0;bottom=0;right=0;collapsible=0;dropTarget=0;fillColor=none;points=[[0,0.5],[1,0.5]];portConstraint=eastwest;fontSize=8;" parent="e3NCDMCvRsL2zf-5tcVL-996" vertex="1">
          <mxGeometry y="231" width="300" height="23" as="geometry" />
        </mxCell>
        <mxCell id="e3NCDMCvRsL2zf-5tcVL-1052" value="ADICIO1" style="shape=partialRectangle;html=1;whiteSpace=wrap;connectable=0;strokeColor=default;overflow=hidden;fillColor=none;top=0;left=0;bottom=0;right=0;pointerEvents=1;fontSize=8;" parent="e3NCDMCvRsL2zf-5tcVL-1051" vertex="1">
          <mxGeometry width="60" height="23" as="geometry">
            <mxRectangle width="60" height="23" as="alternateBounds" />
          </mxGeometry>
        </mxCell>
        <mxCell id="e3NCDMCvRsL2zf-5tcVL-1053" value="&lt;span style=&quot;font-size: 6px;&quot;&gt;E/S&lt;/span&gt;" style="shape=partialRectangle;html=1;whiteSpace=wrap;connectable=0;strokeColor=default;overflow=hidden;fillColor=none;top=0;left=0;bottom=0;right=0;pointerEvents=1;fontSize=8;" parent="e3NCDMCvRsL2zf-5tcVL-1051" vertex="1">
          <mxGeometry x="60" width="60" height="23" as="geometry">
            <mxRectangle width="60" height="23" as="alternateBounds" />
          </mxGeometry>
        </mxCell>
        <mxCell id="e3NCDMCvRsL2zf-5tcVL-1054" value="40&amp;nbsp;/ string" style="shape=partialRectangle;html=1;whiteSpace=wrap;connectable=0;strokeColor=default;overflow=hidden;fillColor=none;top=0;left=0;bottom=0;right=0;pointerEvents=1;fontSize=8;" parent="e3NCDMCvRsL2zf-5tcVL-1051" vertex="1">
          <mxGeometry x="120" width="60" height="23" as="geometry">
            <mxRectangle width="60" height="23" as="alternateBounds" />
          </mxGeometry>
        </mxCell>
        <mxCell id="e3NCDMCvRsL2zf-5tcVL-1055" value="Opcional" style="shape=partialRectangle;html=1;whiteSpace=wrap;connectable=0;strokeColor=default;overflow=hidden;fillColor=none;top=0;left=0;bottom=0;right=0;pointerEvents=1;fontSize=8;" parent="e3NCDMCvRsL2zf-5tcVL-1051" vertex="1">
          <mxGeometry x="180" width="60" height="23" as="geometry">
            <mxRectangle width="60" height="23" as="alternateBounds" />
          </mxGeometry>
        </mxCell>
        <mxCell id="e3NCDMCvRsL2zf-5tcVL-1056" value="ADICIONAL 1" style="shape=partialRectangle;html=1;whiteSpace=wrap;connectable=0;strokeColor=default;overflow=hidden;fillColor=none;top=0;left=0;bottom=0;right=0;pointerEvents=1;fontSize=8;" parent="e3NCDMCvRsL2zf-5tcVL-1051" vertex="1">
          <mxGeometry x="240" width="60" height="23" as="geometry">
            <mxRectangle width="60" height="23" as="alternateBounds" />
          </mxGeometry>
        </mxCell>
        <mxCell id="e3NCDMCvRsL2zf-5tcVL-1057" style="shape=tableRow;horizontal=0;startSize=0;swimlaneHead=0;swimlaneBody=0;strokeColor=default;top=0;left=0;bottom=0;right=0;collapsible=0;dropTarget=0;fillColor=none;points=[[0,0.5],[1,0.5]];portConstraint=eastwest;fontSize=8;" parent="e3NCDMCvRsL2zf-5tcVL-996" vertex="1">
          <mxGeometry y="254" width="300" height="23" as="geometry" />
        </mxCell>
        <mxCell id="e3NCDMCvRsL2zf-5tcVL-1058" value="ADICIO2" style="shape=partialRectangle;html=1;whiteSpace=wrap;connectable=0;strokeColor=default;overflow=hidden;fillColor=none;top=0;left=0;bottom=0;right=0;pointerEvents=1;fontSize=8;" parent="e3NCDMCvRsL2zf-5tcVL-1057" vertex="1">
          <mxGeometry width="60" height="23" as="geometry">
            <mxRectangle width="60" height="23" as="alternateBounds" />
          </mxGeometry>
        </mxCell>
        <mxCell id="e3NCDMCvRsL2zf-5tcVL-1059" value="&lt;span style=&quot;font-size: 6px;&quot;&gt;E/S&lt;/span&gt;" style="shape=partialRectangle;html=1;whiteSpace=wrap;connectable=0;strokeColor=default;overflow=hidden;fillColor=none;top=0;left=0;bottom=0;right=0;pointerEvents=1;fontSize=8;" parent="e3NCDMCvRsL2zf-5tcVL-1057" vertex="1">
          <mxGeometry x="60" width="60" height="23" as="geometry">
            <mxRectangle width="60" height="23" as="alternateBounds" />
          </mxGeometry>
        </mxCell>
        <mxCell id="e3NCDMCvRsL2zf-5tcVL-1060" value="40&amp;nbsp;/ string" style="shape=partialRectangle;html=1;whiteSpace=wrap;connectable=0;strokeColor=default;overflow=hidden;fillColor=none;top=0;left=0;bottom=0;right=0;pointerEvents=1;fontSize=8;" parent="e3NCDMCvRsL2zf-5tcVL-1057" vertex="1">
          <mxGeometry x="120" width="60" height="23" as="geometry">
            <mxRectangle width="60" height="23" as="alternateBounds" />
          </mxGeometry>
        </mxCell>
        <mxCell id="e3NCDMCvRsL2zf-5tcVL-1061" value="Opcional" style="shape=partialRectangle;html=1;whiteSpace=wrap;connectable=0;strokeColor=default;overflow=hidden;fillColor=none;top=0;left=0;bottom=0;right=0;pointerEvents=1;fontSize=8;" parent="e3NCDMCvRsL2zf-5tcVL-1057" vertex="1">
          <mxGeometry x="180" width="60" height="23" as="geometry">
            <mxRectangle width="60" height="23" as="alternateBounds" />
          </mxGeometry>
        </mxCell>
        <mxCell id="e3NCDMCvRsL2zf-5tcVL-1062" value="ADICIONAL 2" style="shape=partialRectangle;html=1;whiteSpace=wrap;connectable=0;strokeColor=default;overflow=hidden;fillColor=none;top=0;left=0;bottom=0;right=0;pointerEvents=1;fontSize=8;" parent="e3NCDMCvRsL2zf-5tcVL-1057" vertex="1">
          <mxGeometry x="240" width="60" height="23" as="geometry">
            <mxRectangle width="60" height="23" as="alternateBounds" />
          </mxGeometry>
        </mxCell>
        <mxCell id="e3NCDMCvRsL2zf-5tcVL-1063" value="Retiro de Efectivo desde ATM Santander" style="rounded=0;whiteSpace=wrap;html=1;fontSize=14;fontStyle=1;fillColor=#BAC8D3;fontColor=#000000;strokeColor=#BAC8D3;" parent="1" vertex="1">
          <mxGeometry x="9.370000000000001" y="7706" width="1668.63" height="41" as="geometry" />
        </mxCell>
        <mxCell id="X9y4Wk6Naa9MSp61Uxv0-25" value="alt" style="shape=umlFrame;whiteSpace=wrap;html=1;pointerEvents=0;width=60;height=30;" vertex="1" parent="1">
          <mxGeometry x="1940" y="9447" width="540" height="460" as="geometry" />
        </mxCell>
        <mxCell id="X9y4Wk6Naa9MSp61Uxv0-26" value="" style="endArrow=none;dashed=1;html=1;rounded=0;entryX=1.001;entryY=0.796;entryDx=0;entryDy=0;entryPerimeter=0;exitX=0.002;exitY=0.793;exitDx=0;exitDy=0;exitPerimeter=0;dashPattern=12 12;" edge="1" parent="1" source="X9y4Wk6Naa9MSp61Uxv0-25" target="X9y4Wk6Naa9MSp61Uxv0-25">
          <mxGeometry width="50" height="50" relative="1" as="geometry">
            <mxPoint x="1940" y="9804" as="sourcePoint" />
            <mxPoint x="2476.7599999999998" y="9805.52" as="targetPoint" />
          </mxGeometry>
        </mxCell>
        <mxCell id="X9y4Wk6Naa9MSp61Uxv0-29" value="&lt;div style=&quot;text-align: center;&quot;&gt;Validacion de Usuario en Supermovil&lt;/div&gt;" style="text;html=1;align=left;verticalAlign=top;whiteSpace=wrap;rounded=0;fontSize=11;" vertex="1" parent="1">
          <mxGeometry x="1950" y="9481.68" width="221" height="26.32" as="geometry" />
        </mxCell>
        <mxCell id="X9y4Wk6Naa9MSp61Uxv0-30" value="&lt;h1 style=&quot;margin-top: 0px; font-size: 11px;&quot;&gt;&lt;font style=&quot;font-size: 11px;&quot;&gt;else&lt;/font&gt;&lt;/h1&gt;&lt;h1 style=&quot;margin-top: 0px; font-size: 11px;&quot;&gt;&lt;br style=&quot;font-size: 11px;&quot;&gt;&lt;/h1&gt;" style="text;html=1;whiteSpace=wrap;overflow=hidden;rounded=0;fontSize=11;" vertex="1" parent="1">
          <mxGeometry x="1944" y="9813" width="49.25" height="29.5" as="geometry" />
        </mxCell>
        <mxCell id="X9y4Wk6Naa9MSp61Uxv0-34" value="&lt;div style=&quot;text-align: center;&quot;&gt;&lt;div&gt;Valida bloqueo inteligente&lt;/div&gt;&lt;/div&gt;" style="text;html=1;align=left;verticalAlign=top;whiteSpace=wrap;rounded=0;fontSize=11;" vertex="1" parent="1">
          <mxGeometry x="2042.32" y="9642" width="221" height="26.32" as="geometry" />
        </mxCell>
        <mxCell id="X9y4Wk6Naa9MSp61Uxv0-39" value="&lt;div style=&quot;text-align: center;&quot;&gt;&lt;div&gt;Cliente enrolado en Supermovil&lt;/div&gt;&lt;/div&gt;" style="text;html=1;align=left;verticalAlign=top;whiteSpace=wrap;rounded=0;fontSize=11;" vertex="1" parent="1">
          <mxGeometry x="2042.3199999999997" y="9508" width="221" height="26.32" as="geometry" />
        </mxCell>
        <mxCell id="X9y4Wk6Naa9MSp61Uxv0-40" value="alt" style="shape=umlFrame;whiteSpace=wrap;html=1;pointerEvents=0;width=60;height=35;" vertex="1" parent="1">
          <mxGeometry x="1980" y="9602" width="540" height="295" as="geometry" />
        </mxCell>
        <mxCell id="X9y4Wk6Naa9MSp61Uxv0-41" value="alt" style="shape=umlFrame;whiteSpace=wrap;html=1;pointerEvents=0;width=86;height=31;" vertex="1" parent="1">
          <mxGeometry x="2390" y="10486" width="280" height="280" as="geometry" />
        </mxCell>
        <mxCell id="X9y4Wk6Naa9MSp61Uxv0-42" value="" style="endArrow=none;dashed=1;html=1;rounded=0;entryX=1;entryY=0.574;entryDx=0;entryDy=0;entryPerimeter=0;exitX=0.007;exitY=0.576;exitDx=0;exitDy=0;exitPerimeter=0;" edge="1" parent="1" source="X9y4Wk6Naa9MSp61Uxv0-41" target="X9y4Wk6Naa9MSp61Uxv0-41">
          <mxGeometry width="50" height="50" relative="1" as="geometry">
            <mxPoint x="2360.0000000000005" y="10647.140000000001" as="sourcePoint" />
            <mxPoint x="2898.92" y="10646" as="targetPoint" />
          </mxGeometry>
        </mxCell>
        <mxCell id="X9y4Wk6Naa9MSp61Uxv0-46" style="edgeStyle=orthogonalEdgeStyle;rounded=0;orthogonalLoop=1;jettySize=auto;html=1;curved=0;exitX=0.503;exitY=0.55;exitDx=0;exitDy=0;exitPerimeter=0;entryX=0.5;entryY=0.561;entryDx=0;entryDy=0;entryPerimeter=0;" edge="1" parent="1">
          <mxGeometry relative="1" as="geometry">
            <mxPoint x="2490.354" y="10582.4525" as="sourcePoint" />
            <mxPoint x="2490" y="10606.66075" as="targetPoint" />
            <Array as="points">
              <mxPoint x="2514" y="10582.039999999999" />
              <mxPoint x="2614" y="10582.039999999999" />
              <mxPoint x="2614" y="10607.039999999999" />
            </Array>
          </mxGeometry>
        </mxCell>
        <mxCell id="X9y4Wk6Naa9MSp61Uxv0-48" value="&lt;h1 style=&quot;margin-top: 0px; font-size: 11px;&quot;&gt;&lt;font style=&quot;font-size: 11px;&quot;&gt;else&lt;/font&gt;&lt;/h1&gt;&lt;h1 style=&quot;margin-top: 0px; font-size: 11px;&quot;&gt;&lt;br style=&quot;font-size: 11px;&quot;&gt;&lt;/h1&gt;" style="text;html=1;whiteSpace=wrap;overflow=hidden;rounded=0;fontSize=11;" vertex="1" parent="1">
          <mxGeometry x="2400" y="10652.82" width="49.25" height="29.5" as="geometry" />
        </mxCell>
        <mxCell id="X9y4Wk6Naa9MSp61Uxv0-49" value="&lt;div style=&quot;text-align: center;&quot;&gt;&lt;div&gt;Valida Riesgo de&amp;nbsp;&lt;span style=&quot;background-color: initial;&quot;&gt;la operaciÃ³n&amp;nbsp;&lt;/span&gt;&lt;/div&gt;&lt;div&gt;&lt;span style=&quot;background-color: initial;&quot;&gt;para&amp;nbsp;&lt;/span&gt;&lt;span style=&quot;background-color: initial;&quot;&gt;Retiro de Efectivo&lt;/span&gt;&lt;/div&gt;&lt;/div&gt;" style="text;html=1;align=left;verticalAlign=top;whiteSpace=wrap;rounded=0;fontSize=11;" vertex="1" parent="1">
          <mxGeometry x="2501" y="10656" width="160" height="26.32" as="geometry" />
        </mxCell>
        <mxCell id="X9y4Wk6Naa9MSp61Uxv0-50" style="edgeStyle=orthogonalEdgeStyle;rounded=0;orthogonalLoop=1;jettySize=auto;html=1;curved=0;exitX=0.503;exitY=0.55;exitDx=0;exitDy=0;exitPerimeter=0;entryX=0.5;entryY=0.561;entryDx=0;entryDy=0;entryPerimeter=0;" edge="1" parent="1">
          <mxGeometry relative="1" as="geometry">
            <mxPoint x="2490.354" y="10692.4525" as="sourcePoint" />
            <mxPoint x="2490" y="10716.66075" as="targetPoint" />
            <Array as="points">
              <mxPoint x="2514" y="10692.039999999999" />
              <mxPoint x="2614" y="10692.039999999999" />
              <mxPoint x="2614" y="10717.039999999999" />
            </Array>
          </mxGeometry>
        </mxCell>
        <mxCell id="X9y4Wk6Naa9MSp61Uxv0-63" value="" style="endArrow=none;dashed=1;html=1;rounded=0;entryX=1;entryY=0.694;entryDx=0;entryDy=0;entryPerimeter=0;exitX=0.001;exitY=0.692;exitDx=0;exitDy=0;exitPerimeter=0;dashPattern=12 12;" edge="1" parent="1">
          <mxGeometry width="50" height="50" relative="1" as="geometry">
            <mxPoint x="1980.54" y="9792.14" as="sourcePoint" />
            <mxPoint x="2519.9999999999995" y="9792.73" as="targetPoint" />
          </mxGeometry>
        </mxCell>
        <mxCell id="X9y4Wk6Naa9MSp61Uxv0-64" value="&lt;h1 style=&quot;margin-top: 0px; font-size: 11px;&quot;&gt;&lt;font style=&quot;font-size: 11px;&quot;&gt;else&lt;/font&gt;&lt;/h1&gt;&lt;h1 style=&quot;margin-top: 0px; font-size: 11px;&quot;&gt;&lt;br style=&quot;font-size: 11px;&quot;&gt;&lt;/h1&gt;" style="text;html=1;whiteSpace=wrap;overflow=hidden;rounded=0;fontSize=11;" vertex="1" parent="1">
          <mxGeometry x="1991" y="9709" width="49.25" height="29.5" as="geometry" />
        </mxCell>
      </root>
    </mxGraphModel>
  </diagram>
  <diagram id="bjgMMNH6vZRZAIsmuC6v" name="MFS SUC">
    <mxGraphModel dx="1588" dy="984" grid="1" gridSize="10" guides="1" tooltips="1" connect="1" arrows="1" fold="1" page="1" pageScale="1" pageWidth="827" pageHeight="1169" math="0" shadow="0">
      <root>
        <mxCell id="0" />
        <mxCell id="1" parent="0" />
      </root>
    </mxGraphModel>
  </diagram>
  <diagram id="LDruEWHhpF2hNLPwvnjO" name="Versiones">
    <mxGraphModel dx="1985" dy="1230" grid="1" gridSize="10" guides="1" tooltips="1" connect="1" arrows="1" fold="1" page="1" pageScale="1" pageWidth="827" pageHeight="1169" math="0" shadow="0">
      <root>
        <mxCell id="0" />
        <mxCell id="1" parent="0" />
        <mxCell id="uEeV76IZE9_aYNRT6rTP-1" value="" style="shape=table;startSize=0;container=1;collapsible=0;childLayout=tableLayout;fontFamily=Roboto;fontSource=https://fonts.googleapis.com/css?family=Roboto;fontSize=16;strokeWidth=1;align=left;" vertex="1" parent="1">
          <mxGeometry y="41" width="1180" height="200" as="geometry" />
        </mxCell>
        <mxCell id="uEeV76IZE9_aYNRT6rTP-2" value="" style="shape=partialRectangle;collapsible=0;dropTarget=0;pointerEvents=0;fillColor=none;top=0;left=0;bottom=0;right=0;points=[[0,0.5],[1,0.5]];portConstraint=eastwest;fontFamily=Roboto;fontSource=https://fonts.googleapis.com/css?family=Roboto;fontSize=16;strokeWidth=1;" vertex="1" parent="uEeV76IZE9_aYNRT6rTP-1">
          <mxGeometry width="1180" height="40" as="geometry" />
        </mxCell>
        <mxCell id="uEeV76IZE9_aYNRT6rTP-3" value="&lt;b&gt;VERSION&lt;/b&gt;" style="shape=partialRectangle;html=1;whiteSpace=wrap;connectable=0;overflow=hidden;fillColor=none;top=0;left=0;bottom=0;right=0;pointerEvents=1;fontFamily=Roboto;fontSource=https://fonts.googleapis.com/css?family=Roboto;fontSize=16;strokeWidth=1;" vertex="1" parent="uEeV76IZE9_aYNRT6rTP-2">
          <mxGeometry width="90" height="40" as="geometry">
            <mxRectangle width="90" height="40" as="alternateBounds" />
          </mxGeometry>
        </mxCell>
        <mxCell id="uEeV76IZE9_aYNRT6rTP-4" value="&lt;span style=&quot;font-weight: 700;&quot;&gt;FECHA&lt;/span&gt;" style="shape=partialRectangle;html=1;whiteSpace=wrap;connectable=0;overflow=hidden;fillColor=none;top=0;left=0;bottom=0;right=0;pointerEvents=1;fontFamily=Roboto;fontSource=https://fonts.googleapis.com/css?family=Roboto;fontSize=16;strokeWidth=1;" vertex="1" parent="uEeV76IZE9_aYNRT6rTP-2">
          <mxGeometry x="90" width="100" height="40" as="geometry">
            <mxRectangle width="100" height="40" as="alternateBounds" />
          </mxGeometry>
        </mxCell>
        <mxCell id="uEeV76IZE9_aYNRT6rTP-5" value="&lt;b&gt;COMENTARIO&lt;/b&gt;" style="shape=partialRectangle;html=1;whiteSpace=wrap;connectable=0;overflow=hidden;fillColor=none;top=0;left=0;bottom=0;right=0;pointerEvents=1;fontFamily=Roboto;fontSource=https://fonts.googleapis.com/css?family=Roboto;fontSize=16;strokeWidth=1;" vertex="1" parent="uEeV76IZE9_aYNRT6rTP-2">
          <mxGeometry x="190" width="650" height="40" as="geometry">
            <mxRectangle width="650" height="40" as="alternateBounds" />
          </mxGeometry>
        </mxCell>
        <mxCell id="uEeV76IZE9_aYNRT6rTP-6" value="&lt;b&gt;REALIZADOR / AUTOR&lt;/b&gt;" style="shape=partialRectangle;html=1;whiteSpace=wrap;connectable=0;overflow=hidden;fillColor=none;top=0;left=0;bottom=0;right=0;pointerEvents=1;fontFamily=Roboto;fontSource=https://fonts.googleapis.com/css?family=Roboto;fontSize=16;strokeWidth=1;" vertex="1" parent="uEeV76IZE9_aYNRT6rTP-2">
          <mxGeometry x="840" width="340" height="40" as="geometry">
            <mxRectangle width="340" height="40" as="alternateBounds" />
          </mxGeometry>
        </mxCell>
        <mxCell id="uEeV76IZE9_aYNRT6rTP-7" value="" style="shape=partialRectangle;collapsible=0;dropTarget=0;pointerEvents=0;fillColor=none;top=0;left=0;bottom=0;right=0;points=[[0,0.5],[1,0.5]];portConstraint=eastwest;fontFamily=Roboto;fontSource=https://fonts.googleapis.com/css?family=Roboto;fontSize=16;strokeWidth=1;" vertex="1" parent="uEeV76IZE9_aYNRT6rTP-1">
          <mxGeometry y="40" width="1180" height="40" as="geometry" />
        </mxCell>
        <mxCell id="uEeV76IZE9_aYNRT6rTP-8" value="1.0" style="shape=partialRectangle;html=1;whiteSpace=wrap;connectable=0;overflow=hidden;fillColor=none;top=0;left=0;bottom=0;right=0;pointerEvents=1;fontFamily=Roboto;fontSource=https://fonts.googleapis.com/css?family=Roboto;fontSize=16;strokeWidth=1;" vertex="1" parent="uEeV76IZE9_aYNRT6rTP-7">
          <mxGeometry width="90" height="40" as="geometry">
            <mxRectangle width="90" height="40" as="alternateBounds" />
          </mxGeometry>
        </mxCell>
        <mxCell id="uEeV76IZE9_aYNRT6rTP-9" value="&lt;span style=&quot;text-align: center;&quot;&gt;22/10/2024&lt;/span&gt;" style="shape=partialRectangle;html=1;whiteSpace=wrap;connectable=0;overflow=hidden;fillColor=none;top=0;left=0;bottom=0;right=0;pointerEvents=1;fontFamily=Roboto;fontSource=https://fonts.googleapis.com/css?family=Roboto;fontSize=16;strokeWidth=1;align=left;" vertex="1" parent="uEeV76IZE9_aYNRT6rTP-7">
          <mxGeometry x="90" width="100" height="40" as="geometry">
            <mxRectangle width="100" height="40" as="alternateBounds" />
          </mxGeometry>
        </mxCell>
        <mxCell id="uEeV76IZE9_aYNRT6rTP-10" value="CreaciÃ³n del Documento" style="shape=partialRectangle;html=1;whiteSpace=wrap;connectable=0;overflow=hidden;fillColor=none;top=0;left=0;bottom=0;right=0;pointerEvents=1;fontFamily=Roboto;fontSource=https://fonts.googleapis.com/css?family=Roboto;fontSize=16;strokeWidth=1;align=left;" vertex="1" parent="uEeV76IZE9_aYNRT6rTP-7">
          <mxGeometry x="190" width="650" height="40" as="geometry">
            <mxRectangle width="650" height="40" as="alternateBounds" />
          </mxGeometry>
        </mxCell>
        <mxCell id="uEeV76IZE9_aYNRT6rTP-11" value="&lt;span style=&quot;text-align: center;&quot;&gt;Christopher Valencia Mendoza (IBM)&lt;/span&gt;" style="shape=partialRectangle;html=1;whiteSpace=wrap;connectable=0;overflow=hidden;fillColor=none;top=0;left=0;bottom=0;right=0;pointerEvents=1;fontFamily=Roboto;fontSource=https://fonts.googleapis.com/css?family=Roboto;fontSize=16;strokeWidth=1;align=left;" vertex="1" parent="uEeV76IZE9_aYNRT6rTP-7">
          <mxGeometry x="840" width="340" height="40" as="geometry">
            <mxRectangle width="340" height="40" as="alternateBounds" />
          </mxGeometry>
        </mxCell>
        <mxCell id="uEeV76IZE9_aYNRT6rTP-12" value="" style="shape=partialRectangle;collapsible=0;dropTarget=0;pointerEvents=0;fillColor=none;top=0;left=0;bottom=0;right=0;points=[[0,0.5],[1,0.5]];portConstraint=eastwest;fontFamily=Roboto;fontSource=https://fonts.googleapis.com/css?family=Roboto;fontSize=16;strokeWidth=1;" vertex="1" parent="uEeV76IZE9_aYNRT6rTP-1">
          <mxGeometry y="80" width="1180" height="40" as="geometry" />
        </mxCell>
        <mxCell id="uEeV76IZE9_aYNRT6rTP-13" value="2.0" style="shape=partialRectangle;html=1;whiteSpace=wrap;connectable=0;overflow=hidden;fillColor=none;top=0;left=0;bottom=0;right=0;pointerEvents=1;fontFamily=Roboto;fontSource=https://fonts.googleapis.com/css?family=Roboto;fontSize=16;strokeWidth=1;" vertex="1" parent="uEeV76IZE9_aYNRT6rTP-12">
          <mxGeometry width="90" height="40" as="geometry">
            <mxRectangle width="90" height="40" as="alternateBounds" />
          </mxGeometry>
        </mxCell>
        <mxCell id="uEeV76IZE9_aYNRT6rTP-14" value="&lt;span style=&quot;text-align: center;&quot;&gt;30/10/2024&lt;/span&gt;" style="shape=partialRectangle;html=1;whiteSpace=wrap;connectable=0;overflow=hidden;fillColor=none;top=0;left=0;bottom=0;right=0;pointerEvents=1;fontFamily=Roboto;fontSource=https://fonts.googleapis.com/css?family=Roboto;fontSize=16;strokeWidth=1;align=left;" vertex="1" parent="uEeV76IZE9_aYNRT6rTP-12">
          <mxGeometry x="90" width="100" height="40" as="geometry">
            <mxRectangle width="100" height="40" as="alternateBounds" />
          </mxGeometry>
        </mxCell>
        <mxCell id="uEeV76IZE9_aYNRT6rTP-15" value="Diagrama de Secuencia - Consulta de Tarjeta de Datos de Tarjeta de ATM" style="shape=partialRectangle;html=1;whiteSpace=wrap;connectable=0;overflow=hidden;fillColor=none;top=0;left=0;bottom=0;right=0;pointerEvents=1;fontFamily=Roboto;fontSource=https://fonts.googleapis.com/css?family=Roboto;fontSize=16;strokeWidth=1;align=left;" vertex="1" parent="uEeV76IZE9_aYNRT6rTP-12">
          <mxGeometry x="190" width="650" height="40" as="geometry">
            <mxRectangle width="650" height="40" as="alternateBounds" />
          </mxGeometry>
        </mxCell>
        <mxCell id="uEeV76IZE9_aYNRT6rTP-16" value="&lt;span style=&quot;text-align: center;&quot;&gt;Christopher Valencia Mendoza (IBM)&lt;/span&gt;" style="shape=partialRectangle;html=1;whiteSpace=wrap;connectable=0;overflow=hidden;fillColor=none;top=0;left=0;bottom=0;right=0;pointerEvents=1;fontFamily=Roboto;fontSource=https://fonts.googleapis.com/css?family=Roboto;fontSize=16;strokeWidth=1;align=left;" vertex="1" parent="uEeV76IZE9_aYNRT6rTP-12">
          <mxGeometry x="840" width="340" height="40" as="geometry">
            <mxRectangle width="340" height="40" as="alternateBounds" />
          </mxGeometry>
        </mxCell>
        <mxCell id="uEeV76IZE9_aYNRT6rTP-17" style="shape=partialRectangle;collapsible=0;dropTarget=0;pointerEvents=0;fillColor=none;top=0;left=0;bottom=0;right=0;points=[[0,0.5],[1,0.5]];portConstraint=eastwest;fontFamily=Roboto;fontSource=https://fonts.googleapis.com/css?family=Roboto;fontSize=16;strokeWidth=1;" vertex="1" parent="uEeV76IZE9_aYNRT6rTP-1">
          <mxGeometry y="120" width="1180" height="40" as="geometry" />
        </mxCell>
        <mxCell id="uEeV76IZE9_aYNRT6rTP-18" value="" style="shape=partialRectangle;html=1;whiteSpace=wrap;connectable=0;overflow=hidden;fillColor=none;top=0;left=0;bottom=0;right=0;pointerEvents=1;fontFamily=Roboto;fontSource=https://fonts.googleapis.com/css?family=Roboto;fontSize=16;strokeWidth=1;" vertex="1" parent="uEeV76IZE9_aYNRT6rTP-17">
          <mxGeometry width="90" height="40" as="geometry">
            <mxRectangle width="90" height="40" as="alternateBounds" />
          </mxGeometry>
        </mxCell>
        <mxCell id="uEeV76IZE9_aYNRT6rTP-19" value="" style="shape=partialRectangle;html=1;whiteSpace=wrap;connectable=0;overflow=hidden;fillColor=none;top=0;left=0;bottom=0;right=0;pointerEvents=1;fontFamily=Roboto;fontSource=https://fonts.googleapis.com/css?family=Roboto;fontSize=16;strokeWidth=1;align=left;" vertex="1" parent="uEeV76IZE9_aYNRT6rTP-17">
          <mxGeometry x="90" width="100" height="40" as="geometry">
            <mxRectangle width="100" height="40" as="alternateBounds" />
          </mxGeometry>
        </mxCell>
        <mxCell id="uEeV76IZE9_aYNRT6rTP-20" style="shape=partialRectangle;html=1;whiteSpace=wrap;connectable=0;overflow=hidden;fillColor=none;top=0;left=0;bottom=0;right=0;pointerEvents=1;fontFamily=Roboto;fontSource=https://fonts.googleapis.com/css?family=Roboto;fontSize=16;strokeWidth=1;align=left;" vertex="1" parent="uEeV76IZE9_aYNRT6rTP-17">
          <mxGeometry x="190" width="650" height="40" as="geometry">
            <mxRectangle width="650" height="40" as="alternateBounds" />
          </mxGeometry>
        </mxCell>
        <mxCell id="uEeV76IZE9_aYNRT6rTP-21" style="shape=partialRectangle;html=1;whiteSpace=wrap;connectable=0;overflow=hidden;fillColor=none;top=0;left=0;bottom=0;right=0;pointerEvents=1;fontFamily=Roboto;fontSource=https://fonts.googleapis.com/css?family=Roboto;fontSize=16;strokeWidth=1;align=left;" vertex="1" parent="uEeV76IZE9_aYNRT6rTP-17">
          <mxGeometry x="840" width="340" height="40" as="geometry">
            <mxRectangle width="340" height="40" as="alternateBounds" />
          </mxGeometry>
        </mxCell>
        <mxCell id="uEeV76IZE9_aYNRT6rTP-22" style="shape=partialRectangle;collapsible=0;dropTarget=0;pointerEvents=0;fillColor=none;top=0;left=0;bottom=0;right=0;points=[[0,0.5],[1,0.5]];portConstraint=eastwest;fontFamily=Roboto;fontSource=https://fonts.googleapis.com/css?family=Roboto;fontSize=16;strokeWidth=1;" vertex="1" parent="uEeV76IZE9_aYNRT6rTP-1">
          <mxGeometry y="160" width="1180" height="40" as="geometry" />
        </mxCell>
        <mxCell id="uEeV76IZE9_aYNRT6rTP-23" style="shape=partialRectangle;html=1;whiteSpace=wrap;connectable=0;overflow=hidden;fillColor=none;top=0;left=0;bottom=0;right=0;pointerEvents=1;fontFamily=Roboto;fontSource=https://fonts.googleapis.com/css?family=Roboto;fontSize=16;strokeWidth=1;" vertex="1" parent="uEeV76IZE9_aYNRT6rTP-22">
          <mxGeometry width="90" height="40" as="geometry">
            <mxRectangle width="90" height="40" as="alternateBounds" />
          </mxGeometry>
        </mxCell>
        <mxCell id="uEeV76IZE9_aYNRT6rTP-24" style="shape=partialRectangle;html=1;whiteSpace=wrap;connectable=0;overflow=hidden;fillColor=none;top=0;left=0;bottom=0;right=0;pointerEvents=1;fontFamily=Roboto;fontSource=https://fonts.googleapis.com/css?family=Roboto;fontSize=16;strokeWidth=1;align=left;" vertex="1" parent="uEeV76IZE9_aYNRT6rTP-22">
          <mxGeometry x="90" width="100" height="40" as="geometry">
            <mxRectangle width="100" height="40" as="alternateBounds" />
          </mxGeometry>
        </mxCell>
        <mxCell id="uEeV76IZE9_aYNRT6rTP-25" style="shape=partialRectangle;html=1;whiteSpace=wrap;connectable=0;overflow=hidden;fillColor=none;top=0;left=0;bottom=0;right=0;pointerEvents=1;fontFamily=Roboto;fontSource=https://fonts.googleapis.com/css?family=Roboto;fontSize=16;strokeWidth=1;align=left;" vertex="1" parent="uEeV76IZE9_aYNRT6rTP-22">
          <mxGeometry x="190" width="650" height="40" as="geometry">
            <mxRectangle width="650" height="40" as="alternateBounds" />
          </mxGeometry>
        </mxCell>
        <mxCell id="uEeV76IZE9_aYNRT6rTP-26" style="shape=partialRectangle;html=1;whiteSpace=wrap;connectable=0;overflow=hidden;fillColor=none;top=0;left=0;bottom=0;right=0;pointerEvents=1;fontFamily=Roboto;fontSource=https://fonts.googleapis.com/css?family=Roboto;fontSize=16;strokeWidth=1;align=left;" vertex="1" parent="uEeV76IZE9_aYNRT6rTP-22">
          <mxGeometry x="840" width="340" height="40" as="geometry">
            <mxRectangle width="340" height="40" as="alternateBounds" />
          </mxGeometry>
        </mxCell>
        <mxCell id="uEeV76IZE9_aYNRT6rTP-27" value="&lt;font style=&quot;font-size: 20px;&quot;&gt;CONTROL DE VERSIONES&lt;/font&gt;" style="rounded=0;whiteSpace=wrap;html=1;fontColor=#FFFFFF;labelBackgroundColor=none;fillColor=#36393D;fontSize=20;align=left;" vertex="1" parent="1">
          <mxGeometry width="1180" height="41" as="geometry" />
        </mxCell>
      </root>
    </mxGraphModel>
  </diagram>
</mxfile>
